<svg width="28" height="28" viewBox="0 0 28 28" fill="none" xmlns="http://www.w3.org/2000/svg">
<path d="M10.8076 15.0473V15.0474L10.8103 15.0472C11.4902 15.0101 12.1288 14.7102 12.5901 14.2113C13.0514 13.7124 13.2991 13.054 13.2805 12.3759C13.2618 11.6979 12.9782 11.054 12.4901 10.581C12.002 10.1081 11.3479 9.84355 10.667 9.84355C9.98608 9.84355 9.33199 10.1081 8.84389 10.581C8.35579 11.054 8.0722 11.6979 8.05352 12.3759C8.03485 13.054 8.28256 13.7124 8.7439 14.2113C9.20524 14.7102 9.84379 15.0101 10.5237 15.0472L10.5237 15.0473H10.5264H10.8076ZM11.7751 13.6451L11.775 13.6451C11.5831 13.7982 11.3571 13.9033 11.116 13.9516C10.8749 13.9999 10.6257 13.9901 10.3892 13.9228C10.1527 13.8556 9.93588 13.7329 9.75679 13.5651C9.5777 13.3973 9.44157 13.1893 9.35979 12.9584C9.27801 12.7275 9.25294 12.4805 9.28667 12.238C9.3204 11.9954 9.41196 11.7645 9.5537 11.5644C9.69544 11.3643 9.88324 11.201 10.1014 11.088C10.3192 10.9752 10.5608 10.9158 10.8063 10.9149L10.978 10.9244C11.3835 10.9694 11.7544 11.1727 12.0095 11.4897C12.2648 11.8071 12.383 12.2125 12.3382 12.6166L12.3382 12.617C12.3176 12.817 12.2572 13.0109 12.1605 13.1874C12.0638 13.3639 11.9328 13.5195 11.7751 13.6451Z" fill="#0066FF" stroke="#0066FF" stroke-width="0.1"/>
<path d="M9.0462 9.73193C9.56788 9.39301 10.1763 9.21049 10.799 9.20595L10.7998 9.21069C10.9302 9.20695 11.0607 9.2117 11.1905 9.2249C12.0446 9.32294 12.8251 9.75336 13.3616 10.4222C13.8983 11.0911 14.1474 11.9442 14.0548 12.7953C13.9866 13.4165 13.7394 14.0047 13.3429 14.4891C12.9464 14.9734 12.4175 15.3332 11.8202 15.5249C11.2228 15.7167 10.5825 15.7321 9.97656 15.5695C9.37058 15.4068 8.82486 15.073 8.40522 14.6083C7.98559 14.1437 7.70999 13.568 7.61164 12.9509C7.51329 12.3337 7.59639 11.7014 7.85093 11.1302C8.10548 10.559 8.52059 10.0734 9.0462 9.73193ZM7.37426 15.3552C8.1386 16.1838 9.19724 16.6829 10.3252 16.7465L10.8157 16.7465C10.8158 16.7465 10.8158 16.7465 10.8158 16.7465C11.9438 16.6829 13.0024 16.1838 13.7668 15.3552C14.5312 14.5265 14.941 13.4337 14.909 12.3088C14.8771 11.184 14.406 10.1159 13.5958 9.33162C12.7856 8.54731 11.7003 8.10857 10.5705 8.10857C9.44073 8.10857 8.35542 8.54731 7.54526 9.33162C6.73509 10.1159 6.26394 11.184 6.23201 12.3088C6.20008 13.4337 6.60988 14.5265 7.37426 15.3552Z" fill="#0066FF" stroke="#0066FF" stroke-width="0.1"/>
<path d="M6.80741 20.8353L6.8074 20.8353L6.80893 20.8354C6.90442 20.8427 7.00033 20.8428 7.09583 20.8356L7.09878 20.8356L7.09904 20.8356C7.74035 20.8322 8.35806 20.5941 8.83466 20.1667C9.31127 19.7393 9.61352 19.1522 9.68385 18.5173L9.68388 18.5169C9.73656 18.0061 9.63613 17.4912 9.39528 17.0372C9.15443 16.5832 8.78397 16.2105 8.33067 15.966C7.87737 15.7215 7.36152 15.6162 6.84821 15.6634C6.3349 15.7105 5.8471 15.9081 5.44635 16.231C5.0456 16.554 4.74986 16.988 4.59648 17.4782C4.44309 17.9684 4.43896 18.4929 4.58458 18.9854C4.73021 19.478 5.01906 19.9166 5.41467 20.2458C5.81027 20.575 6.2949 20.7801 6.80741 20.8353ZM5.59226 18.0691C5.63622 17.6654 5.83873 17.2954 6.15567 17.0397C6.42198 16.8273 6.75162 16.7089 7.09282 16.7032L7.24964 16.7126C7.65465 16.7576 8.02537 16.9602 8.28108 17.2761C8.53689 17.5921 8.65686 17.996 8.61495 18.3996C8.57535 18.6925 8.4516 18.9678 8.25855 19.1923C8.06533 19.417 7.81095 19.5813 7.52604 19.6653C7.24114 19.7494 6.9379 19.7495 6.6529 19.6658C6.36819 19.5822 6.11384 19.4184 5.92045 19.1943C5.66627 18.877 5.54831 18.4726 5.59226 18.0691Z" fill="#0066FF" stroke="#0066FF" stroke-width="0.1"/>
<path d="M14.4827 21.1414C15.1347 21.1419 15.7641 20.9034 16.251 20.4713C16.7378 20.0392 17.048 19.4437 17.1223 18.7983L17.1224 18.7978C17.1605 18.452 17.1298 18.1021 17.0321 17.768C16.9345 17.434 16.7717 17.1225 16.5532 16.8512C16.3356 16.5791 16.0658 16.353 15.7596 16.1859C15.4534 16.0187 15.1167 15.914 14.7694 15.8778L14.7694 15.8777L14.7663 15.8775C14.0798 15.8279 13.4007 16.0454 12.8717 16.4842C12.3428 16.923 12.0052 17.5491 11.9302 18.2308C11.8551 18.9125 12.0485 19.5966 12.4694 20.1392C12.8904 20.6818 13.5061 21.0406 14.1871 21.1403L14.1943 21.1414H14.2016H14.4827ZM14.4827 21.1414L14.4828 21.0414M14.4827 21.1414H14.4828V21.0414M14.4828 21.0414C15.1103 21.0419 15.7161 20.8123 16.1846 20.3966C16.6531 19.9808 16.9515 19.4078 17.023 18.7869L14.2016 21.0414H14.4828ZM7.09479 22.5897L7.09531 22.5897L10.8082 20.2979L10.8949 20.3477C10.895 20.3475 10.8951 20.3473 10.8952 20.3471C10.9725 20.2121 10.9928 20.0521 10.9518 19.9021C10.9106 19.752 10.8113 19.6243 10.6758 19.5472C10.5403 19.4701 10.3797 19.4498 10.2292 19.4907C10.0787 19.5315 9.95058 19.6303 9.87307 19.7654L9.87261 19.7662C9.51355 20.4056 8.94423 20.9023 8.26039 21.1728C7.57654 21.4433 6.81998 21.471 6.11803 21.2512C5.41609 21.0314 4.8117 20.5775 4.40649 19.9661C4.00144 19.3549 3.8201 18.6235 3.89289 17.8949C3.9778 17.1702 4.30947 16.4963 4.83277 15.9853C5.35621 15.4743 6.03976 15.1573 6.76955 15.0872C6.92428 15.0732 7.06723 14.9986 7.16693 14.8797C7.26673 14.7607 7.315 14.607 7.30103 14.4524C7.28706 14.2978 7.21201 14.1552 7.09253 14.0558C6.97307 13.9565 6.81896 13.9086 6.66411 13.9225L6.6632 13.9226C5.58845 14.0287 4.59101 14.527 3.8629 15.3216C3.13478 16.1162 2.72746 17.1511 2.71946 18.2269C2.71145 19.3028 3.10332 20.3435 3.81953 21.1488C4.53574 21.9541 5.52565 22.467 6.59872 22.589L6.59864 22.5897H6.61001L7.09479 22.5897ZM13.2172 15.9373L13.2191 15.9372C13.3486 15.9352 13.4738 15.8903 13.575 15.8097C13.5752 15.8095 13.5754 15.8093 13.5756 15.8091L18.4075 12.0833L18.4075 12.0834L18.4099 12.0814C18.5184 11.9922 18.6318 11.9074 18.7474 11.821C19.6125 11.2712 20.3237 10.512 20.8144 9.61416L20.8145 9.61421L20.8164 9.61024C21.1375 8.95572 21.2711 8.22571 21.2027 7.50044C21.1342 6.77516 20.8663 6.08275 20.4285 5.49929L20.4283 5.49904C19.8843 4.77878 19.1344 4.23922 18.277 3.95109C17.4201 3.66311 16.4957 3.63975 15.6252 3.88407C14.291 4.22273 13.2493 5.09314 12.2619 5.91815L12.2523 5.92624C12.2521 5.92633 12.252 5.92642 12.2519 5.92651C12.2088 5.96201 12.1661 5.99726 12.1237 6.03224C11.8075 6.29308 11.5095 6.53891 11.2004 6.76241L11.1999 6.76275L8.29373 8.88993C8.22771 8.93262 8.17099 8.98817 8.12699 9.05328C8.08237 9.11931 8.05178 9.19377 8.03715 9.27206C8.02251 9.35036 8.02413 9.43081 8.04191 9.50845C8.05969 9.5861 8.09325 9.65927 8.14049 9.72345C8.18773 9.78764 8.24765 9.84148 8.31654 9.88168C8.38543 9.92188 8.46184 9.94759 8.54105 9.95725C8.62026 9.9669 8.70062 9.9603 8.77718 9.93783C8.85272 9.91567 8.923 9.87853 8.98379 9.82863L11.8901 7.70138L11.8904 7.70118C12.2663 7.42403 12.6368 7.11814 12.9955 6.81885L13.0059 6.81026C13.9182 6.05154 14.8381 5.28653 15.9132 5.01418L15.9132 5.01421L15.9157 5.0135C16.5643 4.83095 17.2532 4.84738 17.8923 5.06065C18.531 5.27378 19.0903 5.6736 19.4974 6.20787C19.7985 6.6251 19.9808 7.11548 20.0253 7.62726C20.0697 8.13843 19.9749 8.65206 19.751 9.11412C19.3402 9.83709 18.7542 10.4463 18.0464 10.8861L18.0461 10.8857L18.0385 10.8916L17.6846 11.1619L17.6841 11.1623L12.8607 14.8939C12.8607 14.894 12.8606 14.894 12.8606 14.894C12.7384 14.9884 12.6585 15.1273 12.6388 15.2803C12.619 15.4333 12.661 15.5879 12.7554 15.7101L12.7554 15.7101C12.8099 15.7806 12.8799 15.8378 12.9599 15.8771C13.04 15.9165 13.128 15.937 13.2172 15.9373ZM13.5512 17.3396L13.5513 17.3396C13.8149 17.1293 14.1423 17.0145 14.48 17.0138L14.6491 17.0231C14.9922 17.061 15.3115 17.2159 15.5529 17.4616C15.7949 17.7078 15.9436 18.03 15.9736 18.373C16.0037 18.7161 15.9133 19.059 15.7178 19.3432C15.5223 19.6274 15.2338 19.8354 14.9014 19.9315C14.569 20.0277 14.2135 20.006 13.8953 19.8702C13.5772 19.7345 13.3164 19.4931 13.1572 19.1873C12.9979 18.8815 12.9502 18.5302 13.022 18.1933C13.0939 17.8564 13.2809 17.5547 13.5512 17.3396Z" fill="#0066FF" stroke="#0066FF" stroke-width="0.2"/>
<path d="M14.4825 22.8197L14.4831 22.8197C15.5808 22.8059 16.6322 22.3766 17.4236 21.6188C18.215 20.861 18.6872 19.8316 18.744 18.7396C18.8008 17.6476 18.4381 16.5751 17.7295 15.7399C17.021 14.9047 16.0198 14.3694 14.9294 14.2428V14.2428L14.9289 14.2427C14.7887 14.2277 14.6482 14.2686 14.538 14.3564C14.4278 14.4441 14.3569 14.5718 14.3407 14.7115L14.3407 14.7119C14.3256 14.8517 14.3667 14.9918 14.4549 15.1016C14.543 15.2113 14.6712 15.2819 14.8113 15.298L14.8113 15.298L14.8121 15.298C15.5038 15.3662 16.1555 15.6532 16.6713 16.1172C17.1872 16.5811 17.5401 17.1974 17.6784 17.8757C17.8168 18.5539 17.7331 19.2585 17.4399 19.886C17.1466 20.5135 16.6591 21.0309 16.0488 21.3623C15.4386 21.6937 14.7377 21.8216 14.049 21.7273C13.3604 21.633 12.7202 21.3213 12.2225 20.8381C11.7248 20.355 11.3957 19.7257 11.2835 19.0427C11.1713 18.36 11.2817 17.6595 11.5984 17.0438C11.6688 16.9198 11.6871 16.773 11.6491 16.6356C11.611 16.4978 11.5195 16.3808 11.3949 16.3103C11.2702 16.2398 11.1226 16.2214 10.9844 16.2593C10.8462 16.2972 10.7287 16.3883 10.6578 16.5125L10.6578 16.5125L10.6574 16.5133C10.3936 16.9961 10.227 17.5254 10.1668 18.0718L10.1668 18.0718C10.0429 19.2065 10.3762 20.3437 11.0934 21.2338C11.8107 22.1238 12.8533 22.6941 13.9922 22.8194L13.9922 22.8197H13.9977L14.4825 22.8197ZM13.9977 22.7697C12.8718 22.6458 11.8413 22.0821 11.1324 21.2024C10.4234 20.3226 10.094 19.1987 10.2165 18.0772C10.276 17.5374 10.4406 17.0143 10.7012 16.5373L13.9977 22.7697Z" fill="#0066FF" stroke="#0066FF" stroke-width="0.1"/>
<path d="M19.301 10.0683C19.2351 10.0799 19.1723 10.1049 19.1166 10.1418C19.0609 10.1786 19.0134 10.2266 18.9773 10.2826C18.9411 10.3387 18.9169 10.4016 18.9063 10.4673C18.8957 10.5331 18.8989 10.6004 18.9157 10.6649C18.9325 10.7293 18.9625 10.7897 19.0038 10.8421C19.0451 10.8944 19.0969 10.9377 19.1559 10.9692C19.2148 11.0007 19.2797 11.0197 19.3464 11.025C19.4131 11.0303 19.4801 11.0218 19.5434 11.0001L24.3766 15.649C24.6885 15.0117 24.8182 14.3011 24.7515 13.5951C24.6848 12.8892 24.4243 12.2152 23.9984 11.647C23.4666 10.9428 22.7334 10.4153 21.8951 10.1335C21.0568 9.85181 20.1525 9.82908 19.301 10.0683ZM19.301 10.0683L19.2923 10.0191C19.2915 10.0192 19.2906 10.0194 19.2898 10.0195M19.301 10.0683L19.2874 10.0202C19.2882 10.02 19.289 10.0198 19.2898 10.0195M19.2898 10.0195C19.2181 10.0325 19.1497 10.0599 19.089 10.1001C19.0275 10.1408 18.9752 10.1937 18.9353 10.2555C18.8953 10.3174 18.8687 10.3868 18.857 10.4594C18.8453 10.532 18.8488 10.6063 18.8673 10.6774C18.8858 10.7486 18.9189 10.8152 18.9646 10.873C19.0102 10.9308 19.0673 10.9786 19.1323 11.0133C19.1973 11.0481 19.2689 11.069 19.3424 11.0749C19.4154 11.0807 19.4889 11.0715 19.5582 11.0478M19.2898 10.0195C20.1503 9.77827 21.0639 9.80147 21.911 10.0861C22.7588 10.3711 23.5004 10.9046 24.0383 11.6168L24.0384 11.617C24.4698 12.1926 24.7338 12.8753 24.8013 13.5904C24.8689 14.3055 24.7375 15.0254 24.4215 15.671L24.4205 15.673L24.4204 15.673C23.9337 16.5652 23.2279 17.3202 22.3691 17.8674M19.5582 11.0478L22.3707 17.8661L22.3691 17.8674M19.5582 11.0478C20.2166 10.8635 20.9154 10.881 21.5637 11.0982C22.2121 11.3154 22.7797 11.7223 23.1923 12.2656C23.4988 12.6903 23.6846 13.1895 23.7299 13.7106C23.7751 14.2313 23.6784 14.7544 23.45 15.225C23.0371 15.9458 22.4541 16.5558 21.7514 17.002L21.7513 17.0019L21.7482 17.0042L21.3943 17.2697L21.3938 17.2701L16.546 21.0018L16.546 21.0019C16.4342 21.0882 16.3612 21.2152 16.3431 21.355C16.3251 21.4949 16.3634 21.6361 16.4497 21.7479L16.4501 21.7484C16.5005 21.8119 16.5647 21.8631 16.6379 21.8981C16.7109 21.9331 16.791 21.9511 16.8721 21.9507M19.5582 11.0478L22.0268 18.1266M22.3691 17.8674L22.0268 18.1266M22.3691 17.8674L22.0268 18.1266M22.0268 18.1266L22.0265 18.1268L17.1791 21.8583L17.1764 21.8603L17.1764 21.8602C17.0865 21.9204 16.9803 21.952 16.8721 21.9507M16.8721 21.9507C16.8719 21.9507 16.8718 21.9507 16.8716 21.9507L16.8722 21.9007L16.8725 21.9507C16.8724 21.9507 16.8722 21.9507 16.8721 21.9507ZM5.67382 15.2694L5.67382 15.2695L5.67688 15.2693C5.77853 15.2633 5.87635 15.2286 5.95886 15.1691L7.53278 14.1805C7.53281 14.1804 7.53285 14.1804 7.53288 14.1804C7.65335 14.1056 7.73911 13.9861 7.77121 13.8482C7.80333 13.7103 7.7791 13.5653 7.70391 13.4452C7.62871 13.3252 7.50873 13.2398 7.37041 13.2078C7.23209 13.1759 7.08668 13.2 6.96616 13.2748L6.96616 13.2748L6.96554 13.2752L5.38518 14.289L5.38512 14.289C5.28826 14.3513 5.21418 14.4432 5.17397 14.5509C5.13376 14.6586 5.12959 14.7764 5.16209 14.8867C5.19459 14.997 5.262 15.0938 5.35422 15.1627C5.44645 15.2317 5.55856 15.2691 5.67382 15.2694Z" fill="#0066FF" stroke="#0066FF" stroke-width="0.1"/>
</svg>
