<svg width="28" height="28" viewBox="0 0 28 28" fill="none" xmlns="http://www.w3.org/2000/svg">
<path d="M24.1 14.0022V14.0019C24.0997 12.0753 23.5486 10.1891 22.5115 8.5654C21.4745 6.94174 19.9948 5.64839 18.2468 4.83781C16.4989 4.02724 14.5556 3.73324 12.6461 3.99047C10.7366 4.2477 8.94048 5.04543 7.46943 6.28962C7.03993 6.65171 6.64237 7.05005 6.28182 7.48128C4.64888 9.41633 3.80206 11.8939 3.90903 14.4235C4.01599 16.9531 5.06901 19.3505 6.8596 21.1408C8.6502 22.9312 11.0478 23.984 13.5778 24.091C16.1079 24.1979 18.5858 23.3512 20.5212 21.7183L20.5216 21.718C21.6386 20.7655 22.5367 19.5829 23.1543 18.2512C23.7719 16.9195 24.0945 15.4701 24.1 14.0022ZM17.3509 16.036L17.2675 15.9526L17.1989 16.0486L16.2151 17.424L16.1657 17.493L16.2257 17.5529L19.1189 20.4457C17.5509 21.6811 15.5863 22.3061 13.5902 22.2017C11.5571 22.0954 9.63535 21.24 8.19575 19.8006C6.75616 18.3612 5.90069 16.4398 5.79437 14.4069C5.68999 12.4111 6.31499 10.4468 7.55065 8.87903L10.6398 11.9677L10.7232 12.0511L10.7918 11.9552L11.7756 10.5797L11.8249 10.5107L11.7649 10.4508L8.86754 7.55787C10.4351 6.31788 12.4013 5.68925 14.4 5.79169C16.4357 5.89602 18.3603 6.7513 19.8019 8.19216C21.2435 9.63302 22.0995 11.5571 22.2046 13.5924C22.3078 15.5908 21.6798 17.5571 20.4401 19.1248L17.3509 16.036ZM10.5582 14.7773L10.4453 14.9355H10.6396H13.6216L13.0418 18.9894L13.2221 19.0617L17.3907 13.2264L17.5037 13.0683H17.3094H14.3274L14.9072 9.01437L14.7268 8.94208L10.5582 14.7773Z" fill="#0066FF" stroke="#0066FF" stroke-width="0.2"/>
</svg>
