<svg width="28" height="28" viewBox="0 0 28 28" fill="none" xmlns="http://www.w3.org/2000/svg">
<path d="M14.8401 3.84159C14.8401 3.6188 14.7516 3.40515 14.5941 3.24762C14.4366 3.09009 14.2229 3.00159 14.0001 3.00159C13.7773 3.00159 13.5637 3.09009 13.4061 3.24762C13.2486 3.40515 13.1601 3.6188 13.1601 3.84159V15.0281C12.6564 15.2241 12.2371 15.5899 11.9746 16.0623C11.712 16.5347 11.6229 17.084 11.7226 17.6151C11.8222 18.1463 12.1044 18.626 12.5203 18.9711C12.9362 19.3162 13.4597 19.5051 14.0001 19.5051C14.5406 19.5051 15.064 19.3162 15.4799 18.9711C15.8958 18.626 16.178 18.1463 16.2777 17.6151C16.3773 17.084 16.2882 16.5347 16.0257 16.0623C15.7632 15.5899 15.3438 15.2241 14.8401 15.0281V10.2849H16.9166C17.1394 10.2849 17.353 10.1964 17.5106 10.0389C17.6681 9.88139 17.7566 9.66773 17.7566 9.44495C17.7566 9.22217 17.6681 9.00851 17.5106 8.85098C17.353 8.69345 17.1394 8.60495 16.9166 8.60495H14.8401V6.99999H16.9155C17.1383 6.99999 17.3519 6.91149 17.5094 6.75396C17.667 6.59643 17.7555 6.38277 17.7555 6.15999C17.7555 5.9372 17.667 5.72355 17.5094 5.56602C17.3519 5.40849 17.1383 5.31999 16.9155 5.31999H14.8401V3.84159ZM10.6032 16.7585C10.5307 17.346 10.6102 17.9421 10.8339 18.4901C10.5427 18.4113 10.2358 18.4109 9.94436 18.4888C9.65291 18.5667 9.38718 18.7201 9.17404 18.9336C8.85889 19.2489 8.48472 19.499 8.07289 19.6696C7.66107 19.8402 7.21966 19.9281 6.77388 19.9281C6.3281 19.9281 5.88669 19.8402 5.47486 19.6696C5.06304 19.499 4.68886 19.2489 4.37372 18.9336L2.56716 17.127C2.48463 17.0501 2.41843 16.9574 2.37252 16.8544C2.32661 16.7513 2.30193 16.6401 2.29994 16.5273C2.29795 16.4145 2.31869 16.3025 2.36094 16.1979C2.40319 16.0933 2.46607 15.9983 2.54583 15.9185C2.6256 15.8387 2.72061 15.7759 2.82521 15.7336C2.9298 15.6914 3.04184 15.6706 3.15462 15.6726C3.26741 15.6746 3.37864 15.6993 3.48168 15.7452C3.58472 15.7911 3.67746 15.8573 3.75436 15.9398L5.56092 17.7453C5.72009 17.9048 5.90915 18.0313 6.11729 18.1176C6.32542 18.204 6.54854 18.2484 6.77388 18.2484C6.99921 18.2484 7.22233 18.204 7.43047 18.1176C7.63861 18.0313 7.82767 17.9048 7.98684 17.7453C8.32756 17.404 8.73722 17.1395 9.18842 16.9693C9.63962 16.7991 10.122 16.7273 10.6032 16.7585ZM17.1675 18.4901C17.3932 17.9426 17.4727 17.346 17.3982 16.7585C17.8792 16.7274 18.3613 16.7994 18.8123 16.9695C19.2633 17.1397 19.6728 17.4042 20.0134 17.7453C20.1725 17.9046 20.3615 18.031 20.5696 18.1172C20.7776 18.2035 21.0006 18.2479 21.2258 18.2479C21.451 18.2479 21.674 18.2035 21.882 18.1172C22.0901 18.031 22.279 17.9046 22.4382 17.7453L24.2448 15.9387C24.4033 15.7858 24.6155 15.7012 24.8357 15.7032C25.056 15.7052 25.2666 15.7937 25.4223 15.9495C25.578 16.1053 25.6662 16.316 25.668 16.5363C25.6698 16.7565 25.585 16.9687 25.432 17.127L23.6254 18.9336C23.3103 19.2489 22.9361 19.499 22.5243 19.6696C22.1124 19.8402 21.671 19.9281 21.2252 19.9281C20.7795 19.9281 20.338 19.8402 19.9262 19.6696C19.5144 19.499 19.1402 19.2489 18.8251 18.9336C18.6122 18.7205 18.3468 18.5673 18.0558 18.4894C17.7648 18.4115 17.4584 18.4118 17.1675 18.4901ZM7.98684 22.3182C7.82767 22.4777 7.63861 22.6043 7.43047 22.6906C7.22233 22.7769 6.99921 22.8214 6.77388 22.8214C6.54854 22.8214 6.32542 22.7769 6.11729 22.6906C5.90915 22.6043 5.72009 22.4777 5.56092 22.3182L3.75548 20.5117C3.67803 20.4314 3.58537 20.3674 3.48291 20.3233C3.38044 20.2792 3.27023 20.256 3.1587 20.255C3.04716 20.254 2.93654 20.2752 2.83329 20.3173C2.73004 20.3595 2.63622 20.4219 2.55731 20.5007C2.47841 20.5795 2.41599 20.6733 2.37371 20.7765C2.33142 20.8797 2.31012 20.9903 2.31103 21.1018C2.31195 21.2134 2.33507 21.3236 2.37904 21.4261C2.42302 21.5286 2.48697 21.6213 2.56716 21.6989L4.37372 23.5054C5.01033 24.1419 5.87367 24.4994 6.77388 24.4994C7.67408 24.4994 8.53743 24.1419 9.17404 23.5054C9.33319 23.3461 9.52218 23.2197 9.73021 23.1335C9.93824 23.0472 10.1612 23.0028 10.3864 23.0028C10.6116 23.0028 10.8346 23.0472 11.0427 23.1335C11.2507 23.2197 11.4397 23.3461 11.5988 23.5054C11.9141 23.8207 12.2883 24.0709 12.7003 24.2415C13.1122 24.4122 13.5537 24.5 13.9996 24.5C14.4454 24.5 14.8869 24.4122 15.2989 24.2415C15.7108 24.0709 16.085 23.8207 16.4003 23.5054C16.5594 23.3461 16.7484 23.2197 16.9565 23.1335C17.1645 23.0472 17.3875 23.0028 17.6127 23.0028C17.8379 23.0028 18.0609 23.0472 18.2689 23.1335C18.4769 23.2197 18.6659 23.3461 18.8251 23.5054C19.4617 24.1419 20.325 24.4994 21.2252 24.4994C22.1254 24.4994 22.9888 24.1419 23.6254 23.5054L25.432 21.6989C25.5803 21.5396 25.6611 21.329 25.6573 21.1114C25.6534 20.8938 25.5653 20.6862 25.4114 20.5322C25.2575 20.3783 25.0498 20.2902 24.8322 20.2864C24.6146 20.2825 24.404 20.3633 24.2448 20.5117L22.4382 22.3182C22.279 22.4776 22.0901 22.604 21.882 22.6902C21.674 22.7764 21.451 22.8208 21.2258 22.8208C21.0006 22.8208 20.7776 22.7764 20.5696 22.6902C20.3615 22.604 20.1725 22.4776 20.0134 22.3182C19.6982 22.0029 19.3239 21.7528 18.912 21.5821C18.5 21.4115 18.0585 21.3236 17.6127 21.3236C17.1668 21.3236 16.7253 21.4115 16.3134 21.5821C15.9015 21.7528 15.5272 22.0029 15.212 22.3182C15.0528 22.4776 14.8638 22.604 14.6558 22.6902C14.4477 22.7764 14.2248 22.8208 13.9996 22.8208C13.7744 22.8208 13.5514 22.7764 13.3433 22.6902C13.1353 22.604 12.9463 22.4776 12.7872 22.3182C12.472 22.0029 12.0978 21.7528 11.686 21.5822C11.2742 21.4116 10.8328 21.3237 10.387 21.3237C9.94122 21.3237 9.49981 21.4116 9.08798 21.5822C8.67615 21.7528 8.30198 22.0029 7.98684 22.3182Z" fill="#0066FF"/>
</svg>
