<svg width="32" height="32" viewBox="0 0 32 32" fill="none" xmlns="http://www.w3.org/2000/svg">
<path d="M14.4063 2.10177C15.2066 1.0463 16.7934 1.0463 17.5937 2.10176L19.5791 4.72021C20.0158 5.29611 20.7292 5.59162 21.4452 5.49317L24.7006 5.04557C26.0129 4.86515 27.1349 5.98712 26.9544 7.29936L26.5068 10.5548C26.4084 11.2708 26.7039 11.9842 27.2798 12.4209L29.8982 14.4063C30.9537 15.2066 30.9537 16.7934 29.8982 17.5937L27.2798 19.5791C26.7039 20.0158 26.4084 20.7292 26.5068 21.4452L26.9544 24.7006C27.1349 26.0129 26.0129 27.1349 24.7006 26.9544L21.4452 26.5068C20.7292 26.4084 20.0158 26.7039 19.5791 27.2798L17.5937 29.8982C16.7934 30.9537 15.2066 30.9537 14.4063 29.8982L12.4209 27.2798C11.9842 26.7039 11.2708 26.4084 10.5548 26.5068L7.29936 26.9544C5.98712 27.1349 4.86515 26.0129 5.04557 24.7006L5.49317 21.4452C5.59162 20.7292 5.29611 20.0158 4.72021 19.5791L2.10177 17.5937C1.0463 16.7934 1.0463 15.2066 2.10176 14.4063L4.72021 12.4209C5.29611 11.9842 5.59162 11.2708 5.49317 10.5548L5.04557 7.29936C4.86515 5.98712 5.98712 4.86515 7.29936 5.04557L10.5548 5.49317C11.2708 5.59162 11.9842 5.29611 12.4209 4.72021L14.4063 2.10177Z" fill="#0095FF"/>
<path d="M11 16L15 20L21 12" stroke="white" stroke-width="2" stroke-linecap="round" stroke-linejoin="round"/>
</svg>
