<svg width="17" height="17" viewBox="0 0 17 17" fill="none" xmlns="http://www.w3.org/2000/svg">
<path d="M8.75894 0.930921L8.75893 0.930916C8.52669 0.820129 8.25687 0.820129 8.02463 0.930916L7.87487 0.61698L8.02462 0.930917C7.83711 1.02037 7.72527 1.18019 7.65447 1.2959L7.65447 1.2959C7.58321 1.41235 7.50721 1.56579 7.42381 1.73491C7.4238 1.73493 7.42379 1.73495 7.42379 1.73497L7.41132 1.76025L7.41131 1.76028L5.6977 5.23362L5.61687 5.39746L5.4361 5.42389L1.60308 5.98443L1.60293 5.98446L1.57509 5.98852L1.57508 5.98852C1.3886 6.01576 1.21933 6.04078 1.08667 6.07269L1.08666 6.0727C0.954885 6.1044 0.768521 6.16154 0.62567 6.31241L0.625665 6.31241C0.448693 6.4993 0.365427 6.75618 0.399127 7.01149C0.426334 7.21761 0.543772 7.37335 0.6319 7.47641L0.631902 7.47641C0.720601 7.58013 0.843008 7.6998 0.978024 7.8313L0.978119 7.83139L0.9982 7.85097L0.9984 7.85116L3.77072 10.5528L3.90169 10.6804L3.87079 10.8607L3.21186 14.7045L3.21184 14.7046C3.17993 14.8905 3.15124 15.0595 3.14046 15.1956L8.75894 0.930921ZM8.75894 0.930921C8.94643 1.02035 9.05816 1.18012 9.12903 1.29591L9.12906 1.29596M8.75894 0.930921L9.12906 1.29596M9.12906 1.29596C9.20033 1.41238 9.27631 1.5658 9.35972 1.73495M9.12906 1.29596L13.6431 15.1956M16.416 7.70246C16.3148 7.82072 16.1798 7.95225 16.0482 8.08044M16.416 7.70246C16.5138 7.58804 16.6882 7.36754 16.7292 7.05701C16.7767 6.69777 16.6595 6.3363 16.4104 6.07326M16.416 7.70246L16.1517 7.47635C16.1517 7.47638 16.1516 7.47642 16.1516 7.47646M16.416 7.70246L16.1516 7.47646M16.0482 8.08044L15.7782 5.73452C15.9245 5.76972 16.1951 5.84587 16.4104 6.07326M16.0482 8.08044L13.2556 10.8019L16.0482 8.08044ZM16.4104 6.07326L16.1579 6.31241M16.4104 6.07326L16.1579 6.31239C16.1579 6.3124 16.1579 6.31241 16.1579 6.31241M16.1579 6.31241C16.3348 6.49935 16.4181 6.75621 16.3844 7.01145C16.3572 7.21762 16.2397 7.37338 16.1516 7.47646M16.1579 6.31241C16.015 6.16155 15.8286 6.1044 15.6969 6.0727L15.6968 6.07269C15.5642 6.04078 15.395 6.01576 15.2084 5.98852L15.2084 5.98851L11.3475 5.42389L11.1667 5.39746L11.0859 5.23362L9.37224 1.76025L9.37212 1.76001L9.35972 1.73495M16.1516 7.47646C16.0629 7.58019 15.9405 7.69984 15.8055 7.83126L15.8054 7.83134L13.0128 10.5528L12.8818 10.6804L12.9127 10.8607L13.5717 14.7045L13.5717 14.7046C13.6036 14.8904 13.6323 15.0595 13.6431 15.1956M13.6431 15.1956C13.6537 15.3311 13.6572 15.5261 13.558 15.7088L13.558 15.7089C13.4352 15.9351 13.2168 16.0938 12.9638 16.1407L12.9638 16.1407C12.7595 16.1786 12.5751 16.115 12.45 16.0631L12.45 16.063C12.3238 16.0107 12.172 15.9312 12.0053 15.8434L12.0052 15.8433L8.55372 14.0273L8.39176 13.9421L8.2298 14.0273L4.77831 15.8433L4.77821 15.8434C4.61147 15.9312 4.4597 16.0107 4.33356 16.063L4.33347 16.0631C4.20842 16.115 4.02402 16.1786 3.81974 16.1407L3.81973 16.1407C3.56677 16.0938 3.3484 15.9351 3.22552 15.7088M13.6431 15.1956L3.14046 15.1956C3.12976 15.3308 3.12631 15.526 3.22552 15.7088M13.6431 15.1956C13.6431 15.1955 13.6431 15.1955 13.6431 15.1954L13.9898 15.1681M13.6431 15.1956L13.9898 15.1681M9.35972 1.73495L9.67168 1.58113L9.35941 1.73433L9.35972 1.73495ZM3.22552 15.7088C3.22552 15.7088 3.22553 15.7088 3.22554 15.7088L2.91984 15.8748L3.22552 15.7088ZM13.9898 15.1681C13.9775 15.013 13.9456 14.8269 13.9145 14.6457L4.46695 16.3843C4.61072 16.3246 4.7776 16.2368 4.94027 16.1512L8.39176 14.3351L11.8432 16.1512C12.0059 16.2368 12.1728 16.3246 12.3165 16.3843C12.4556 16.442 12.7192 16.5398 13.0272 16.4827C13.3834 16.4167 13.6908 16.1933 13.8637 15.8748C14.0132 15.5994 14.0016 15.3183 13.9898 15.1681Z" stroke="#FFAB00" stroke-width="0.695652"/>
<mask id="mask0_0_557" style="mask-type:alpha" maskUnits="userSpaceOnUse" x="0" y="1" width="9" height="15">
<rect x="0.398438" y="1" width="8" height="15" fill="#D9D9D9"/>
</mask>
<g mask="url(#mask0_0_557)">
<path fill-rule="evenodd" clip-rule="evenodd" d="M7.87487 0.61698C8.20184 0.461007 8.58172 0.461007 8.90869 0.61698C9.19136 0.751814 9.34711 0.985923 9.42571 1.11435C9.507 1.24713 9.59039 1.41627 9.67168 1.58113C9.67581 1.58955 9.68004 1.59796 9.68417 1.60636L11.3978 5.07973L15.2587 5.64435C15.4405 5.67089 15.627 5.69812 15.7782 5.73452C15.9245 5.76972 16.1951 5.84587 16.4104 6.07326C16.6595 6.3363 16.7767 6.69777 16.7292 7.05701C16.6882 7.36754 16.5138 7.58804 16.416 7.70246C16.3148 7.82072 16.1798 7.95225 16.0482 8.08044L13.2556 10.8019L13.9145 14.6457C13.9456 14.8269 13.9775 15.013 13.9898 15.1681C14.0016 15.3183 14.0132 15.5994 13.8637 15.8748C13.6908 16.1933 13.3834 16.4167 13.0272 16.4827C12.7192 16.5398 12.4556 16.442 12.3165 16.3843C12.1728 16.3246 12.0059 16.2368 11.8432 16.1512L8.39176 14.3351L4.94027 16.1512C4.7776 16.2368 4.61072 16.3246 4.46695 16.3843C4.32793 16.442 4.06427 16.5398 3.75633 16.4827C3.40012 16.4167 3.09276 16.1933 2.91984 15.8748C2.77035 15.5994 2.78184 15.3183 2.79372 15.1681C2.80601 15.013 2.83792 14.8269 2.86903 14.6457L3.52797 10.8019L0.755445 8.10007C0.748758 8.09355 0.742051 8.08702 0.735335 8.08047C0.603721 7.95228 0.468687 7.82073 0.36755 7.70246C0.2697 7.58804 0.0952809 7.36754 0.0542921 7.05701C0.0068753 6.69777 0.124019 6.3363 0.373104 6.07326C0.588415 5.84587 0.858974 5.76972 1.00531 5.73452C1.15658 5.69812 1.34307 5.67089 1.52482 5.64435C1.5341 5.64299 1.54336 5.64165 1.5526 5.64029L5.38577 5.07973L7.09939 1.60636C7.10354 1.59796 7.10768 1.58955 7.11183 1.58113C7.19312 1.41627 7.27653 1.24713 7.35778 1.11435C7.43637 0.985923 7.59221 0.751814 7.87487 0.61698Z" fill="#FFAB00"/>
</g>
</svg>
