<svg width="19" height="16" viewBox="0 0 19 16" fill="none" xmlns="http://www.w3.org/2000/svg">
<path d="M10.7599 0.430921L10.7599 0.430916C10.5277 0.320129 10.2578 0.320129 10.0256 0.430916L9.87585 0.11698L10.0256 0.430917C9.83809 0.520366 9.72625 0.680191 9.65545 0.795897L9.65544 0.795901C9.58419 0.912353 9.50819 1.06579 9.42479 1.23491C9.42478 1.23493 9.42477 1.23495 9.42476 1.23497L9.4123 1.26025L9.41229 1.26028L7.69868 4.73362L7.61785 4.89746L7.43708 4.92389L3.60405 5.48443L3.60391 5.48446L3.57606 5.48852L3.57606 5.48852C3.38958 5.51576 3.22031 5.54078 3.08765 5.57269L3.08764 5.5727C2.95586 5.6044 2.7695 5.66154 2.62665 5.81241L2.62664 5.81241C2.44967 5.9993 2.3664 6.25618 2.4001 6.51149C2.42731 6.71761 2.54475 6.87335 2.63288 6.97641L2.63288 6.97641C2.72158 7.08013 2.84399 7.1998 2.979 7.3313L2.9791 7.33139L2.99918 7.35097L2.99938 7.35116L5.7717 10.0528L5.90267 10.1804L5.87177 10.3607L5.21283 14.2045L5.21282 14.2046C5.18091 14.3905 5.15222 14.5595 5.14144 14.6956L10.7599 0.430921ZM10.7599 0.430921C10.9474 0.520351 11.0591 0.680116 11.13 0.795912L11.13 0.795964M10.7599 0.430921L11.13 0.795964M11.13 0.795964C11.2013 0.912385 11.2773 1.0658 11.3607 1.23495M11.13 0.795964L15.6441 14.6956M18.417 7.20246C18.3158 7.32072 18.1808 7.45225 18.0492 7.58044M18.417 7.20246C18.5148 7.08804 18.6892 6.86754 18.7302 6.55701C18.7777 6.19777 18.6605 5.8363 18.4114 5.57326M18.417 7.20246L18.1527 6.97635C18.1527 6.97638 18.1526 6.97642 18.1526 6.97646M18.417 7.20246L18.1526 6.97646M18.0492 7.58044L17.7792 5.23452C17.9255 5.26972 18.1961 5.34587 18.4114 5.57326M18.0492 7.58044L15.2565 10.3019L18.0492 7.58044ZM18.4114 5.57326L18.1588 5.81241M18.4114 5.57326L18.1588 5.81239C18.1588 5.8124 18.1588 5.81241 18.1588 5.81241M18.1588 5.81241C18.3358 5.99935 18.4191 6.25621 18.3854 6.51145C18.3581 6.71762 18.2407 6.87338 18.1526 6.97646M18.1588 5.81241C18.016 5.66155 17.8296 5.6044 17.6978 5.5727L17.6978 5.57269C17.5652 5.54078 17.3959 5.51576 17.2094 5.48852L17.2093 5.48851L13.3484 4.92389L13.1677 4.89746L13.0869 4.73362L11.3732 1.26025L11.3731 1.26001L11.3607 1.23495M18.1526 6.97646C18.0638 7.08019 17.9415 7.19984 17.8065 7.33126L17.8064 7.33134L15.0138 10.0528L14.8828 10.1804L14.9137 10.3607L15.5726 14.2045L15.5727 14.2046C15.6046 14.3904 15.6333 14.5595 15.6441 14.6956M15.6441 14.6956C15.6547 14.8311 15.6581 15.0261 15.559 15.2088L15.5589 15.2089C15.4361 15.4351 15.2178 15.5938 14.9648 15.6407L14.9647 15.6407C14.7605 15.6786 14.5761 15.615 14.451 15.5631L14.4509 15.563C14.3248 15.5107 14.173 15.4312 14.0063 15.3434L14.0062 15.3433L10.5547 13.5273L10.3927 13.4421L10.2308 13.5273L6.77928 15.3433L6.77919 15.3434C6.61245 15.4312 6.46068 15.5107 6.33454 15.563L6.33445 15.5631C6.20939 15.615 6.025 15.6786 5.82072 15.6407L5.82071 15.6407C5.56775 15.5938 5.34938 15.4351 5.22649 15.2088M15.6441 14.6956L5.14144 14.6956C5.13073 14.8308 5.12729 15.026 5.22649 15.2088M15.6441 14.6956C15.6441 14.6955 15.6441 14.6955 15.644 14.6954L15.9908 14.6681M15.6441 14.6956L15.9908 14.6681M11.3607 1.23495L11.6727 1.08113L11.3604 1.23433L11.3607 1.23495ZM5.22649 15.2088C5.2265 15.2088 5.22651 15.2088 5.22652 15.2088L4.92082 15.3748L5.22649 15.2088ZM15.9908 14.6681C15.9785 14.513 15.9466 14.3269 15.9155 14.1457L6.46793 15.8843C6.6117 15.8246 6.77857 15.7368 6.94124 15.6512L10.3927 13.8351L13.8442 15.6512C14.0069 15.7368 14.1738 15.8246 14.3175 15.8843C14.4566 15.942 14.7202 16.0398 15.0281 15.9827C15.3844 15.9167 15.6918 15.6933 15.8646 15.3748C16.0141 15.0994 16.0026 14.8183 15.9908 14.6681Z" stroke="#FFAB00" stroke-width="0.695652"/>
<mask id="mask0_0_896" style="mask-type:alpha" maskUnits="userSpaceOnUse" x="0" y="0" width="11" height="16">
<rect x="0.65332" width="9.73913" height="16" fill="#D9D9D9"/>
</mask>
<g mask="url(#mask0_0_896)">
<path fill-rule="evenodd" clip-rule="evenodd" d="M9.87585 0.11698C10.2028 -0.0389933 10.5827 -0.0389933 10.9097 0.11698C11.1923 0.251814 11.3481 0.485923 11.4267 0.614354C11.508 0.747131 11.5914 0.916274 11.6727 1.08113C11.6768 1.08955 11.681 1.09796 11.6851 1.10636L13.3988 4.57973L17.2597 5.14435C17.4415 5.17089 17.628 5.19812 17.7792 5.23452C17.9255 5.26972 18.1961 5.34587 18.4114 5.57326C18.6605 5.8363 18.7777 6.19777 18.7302 6.55701C18.6892 6.86754 18.5148 7.08804 18.417 7.20246C18.3158 7.32072 18.1808 7.45225 18.0492 7.58044L15.2565 10.3019L15.9155 14.1457C15.9466 14.3269 15.9785 14.513 15.9908 14.6681C16.0026 14.8183 16.0141 15.0994 15.8646 15.3748C15.6918 15.6933 15.3844 15.9167 15.0281 15.9827C14.7202 16.0398 14.4566 15.942 14.3175 15.8843C14.1738 15.8246 14.0069 15.7368 13.8442 15.6512L10.3927 13.8351L6.94124 15.6512C6.77857 15.7368 6.6117 15.8246 6.46793 15.8843C6.32891 15.942 6.06525 16.0398 5.7573 15.9827C5.4011 15.9167 5.09374 15.6933 4.92082 15.3748C4.77133 15.0994 4.78281 14.8183 4.7947 14.6681C4.80699 14.513 4.8389 14.3269 4.87001 14.1457L5.52894 10.3019L2.75642 7.60007C2.74973 7.59355 2.74303 7.58702 2.73631 7.58047C2.6047 7.45228 2.46966 7.32073 2.36853 7.20246C2.27068 7.08804 2.09626 6.86754 2.05527 6.55701C2.00785 6.19777 2.125 5.8363 2.37408 5.57326C2.58939 5.34587 2.85995 5.26972 3.00628 5.23452C3.15756 5.19812 3.34404 5.17089 3.52579 5.14435C3.53508 5.14299 3.54434 5.14165 3.55358 5.14029L7.38675 4.57973L9.10037 1.10636C9.10451 1.09796 9.10865 1.08955 9.1128 1.08113C9.1941 0.916274 9.27751 0.747131 9.35876 0.614354C9.43734 0.485923 9.59319 0.251814 9.87585 0.11698Z" fill="#FFAB00"/>
</g>
</svg>
