<svg width="25" height="25" viewBox="0 0 25 25" fill="none" xmlns="http://www.w3.org/2000/svg">
<path d="M12.5458 3.68013C12.2382 3.68017 11.9432 3.80238 11.7257 4.01988C11.5082 4.23743 11.3859 4.53248 11.3859 4.84013L11.3859 20.2001L11.386 20.2028L11.3864 20.2388L11.3864 20.2388L11.3866 20.2434C11.3976 20.5473 11.5276 20.8347 11.7485 21.0437C11.9694 21.2527 12.2635 21.3666 12.5675 21.3609C12.8716 21.3552 13.1612 21.2303 13.3741 21.0132C13.5869 20.7961 13.706 20.5041 13.7058 20.2001C13.7058 20.2001 13.7058 20.2 13.7058 20.1999L12.5458 3.68013Z" fill="#0066FF" stroke="#0066FF" stroke-width="0.4"/>
<path d="M12.5456 3.19962L10.4859 1.13978L10.4859 1.13975L10.4827 1.13665L10.4534 1.10865L10.4534 1.10862L10.4505 1.10595C10.2302 0.903475 9.94024 0.793953 9.6411 0.800258C9.34198 0.806562 9.05685 0.9282 8.8453 1.13976C8.84529 1.13977 8.84528 1.13977 8.84528 1.13978L12.5456 3.19962ZM13.3334 19.3486L13.3334 19.3486L13.3305 19.3459C13.1102 19.1435 12.8202 19.034 12.5211 19.0403C12.222 19.0466 11.9368 19.1682 11.7253 19.3798L8.84528 22.2598L8.84525 22.2597L8.84216 22.263L8.81416 22.2922L8.81413 22.2922L8.81145 22.2951C8.60898 22.5154 8.49946 22.8054 8.50576 23.1046C8.51207 23.4037 8.63371 23.6888 8.84529 23.9004L8.84525 23.9004L8.84848 23.9035L8.87776 23.9315L8.87773 23.9315L8.88064 23.9342C9.10093 24.1367 9.39093 24.2462 9.69007 24.2399C9.9892 24.2336 10.2743 24.1119 10.4859 23.9004L12.5456 21.8405L14.6053 23.9004L14.6052 23.9004L14.6085 23.9035L14.6378 23.9315L14.6377 23.9315L14.6402 23.9338C14.8634 24.1402 15.1588 24.2507 15.4626 24.2415C15.7665 24.2323 16.0547 24.1043 16.265 23.8848C16.4754 23.6653 16.5912 23.3721 16.5876 23.0681C16.5839 22.7642 16.4611 22.4738 16.2456 22.2595C16.2456 22.2595 16.2455 22.2594 16.2455 22.2594L13.3659 19.3798L13.3659 19.3797L13.3627 19.3766L13.3334 19.3486ZM6.43842 7.65549L6.43845 7.65545L6.43471 7.65348C6.16942 7.5139 5.86038 7.48244 5.5724 7.5657C5.28442 7.64895 5.03986 7.84047 4.88998 8.10008C4.73616 8.36651 4.69447 8.68312 4.77409 8.98028C4.85371 9.27745 5.04812 9.53081 5.31454 9.68464L5.41454 9.51144L5.31454 9.68464L18.6166 17.3646L18.6166 17.3647L18.6201 17.3666L18.6533 17.3849L18.6532 17.3849L18.6569 17.3868C18.9256 17.5276 19.2388 17.5576 19.5294 17.4702C19.8199 17.3828 20.0646 17.1851 20.2111 16.9195C20.3576 16.6538 20.3942 16.3413 20.313 16.049C20.2319 15.7567 20.0394 15.5078 19.7769 15.3557L19.7766 15.3555L6.47454 7.67551L6.47456 7.67548L6.47138 7.67373L6.43842 7.65549Z" fill="#0066FF" stroke="#0066FF" stroke-width="0.4"/>
<path d="M4.54063 3.62541L4.54062 3.62539L4.53745 3.62629L4.50273 3.63621L4.50272 3.63617L4.49868 3.63742C4.21193 3.72593 3.97063 3.92212 3.82549 4.18479C3.68035 4.44746 3.64265 4.75615 3.72032 5.04603C3.72032 5.04603 3.72032 5.04604 3.72032 5.04604L4.47402 7.85974L1.66046 8.61374L1.66045 8.61371L1.65705 8.61468L1.62249 8.6246L1.62248 8.62457L1.61885 8.62569C1.32825 8.7151 1.08438 8.91504 0.939718 9.18246C0.795056 9.44988 0.761169 9.76341 0.845352 10.0556C0.929534 10.3477 1.12506 10.5951 1.38984 10.7446C1.65457 10.894 1.96737 10.9335 2.26095 10.8547C2.26096 10.8547 2.26098 10.8547 2.26099 10.8547C2.26103 10.8546 2.26106 10.8546 2.2611 10.8546L6.19503 9.80059L6.19504 9.80063L6.19903 9.79947L6.23375 9.78939L6.23376 9.78942L6.23698 9.78842C6.5237 9.69991 6.76496 9.50375 6.9101 9.24112C7.05523 8.97849 7.09296 8.66984 7.01534 8.37999L7.01534 8.37996L5.96126 4.44556L5.96129 4.44555L5.96031 4.44214L5.95039 4.40758L5.95043 4.40757L5.94925 4.40377C5.86074 4.11702 5.66455 3.87573 5.40188 3.73058C5.1392 3.58544 4.83051 3.54774 4.54063 3.62541ZM20.6178 17.1802L23.4314 16.4263L23.4314 16.4264L23.4345 16.4255L23.4693 16.4155L23.4693 16.4156L23.4729 16.4145C23.7639 16.3253 24.0081 16.1254 24.1531 15.8579C24.298 15.5903 24.332 15.2765 24.2478 14.9841C24.1635 14.6917 23.9677 14.4441 23.7025 14.2947C23.4375 14.1454 23.1244 14.1061 22.8307 14.1855C22.8306 14.1855 22.8305 14.1855 22.8304 14.1855L18.8968 15.2395L18.8968 15.2394L18.8925 15.2407L18.858 15.2508L18.858 15.2507L18.855 15.2517C18.5683 15.3402 18.327 15.5363 18.1819 15.799C18.0367 16.0616 17.999 16.3702 18.0766 16.6601L18.0766 16.6601L19.1307 20.5945L19.1307 20.5945L19.1317 20.5979L19.1416 20.6325L19.1416 20.6325L19.1427 20.6363C19.2312 20.9231 19.4274 21.1644 19.6901 21.3095C19.9528 21.4546 20.2615 21.4923 20.5514 21.4147L20.5514 21.4147L20.5548 21.4137L20.5893 21.4038L20.5893 21.4038L20.5931 21.4027C20.8799 21.3142 21.1212 21.118 21.2664 20.8553C21.4116 20.5927 21.4493 20.284 21.3717 19.994L20.6178 17.1802ZM18.6172 7.67536L18.617 7.67548L5.31495 15.3555L5.31493 15.3554L5.31155 15.3575L5.27923 15.377L5.27921 15.377L5.2757 15.3792C5.01924 15.5414 4.83658 15.7977 4.76689 16.0931C4.69719 16.3884 4.74602 16.6994 4.9029 16.9591C5.05978 17.2189 5.31221 17.4069 5.60606 17.4827C5.89991 17.5585 6.21177 17.5162 6.47475 17.3647L6.47495 17.3646L19.777 9.68461L19.7771 9.68464L19.7804 9.6826L19.8127 9.66308L19.8128 9.66312L19.8163 9.6609C20.0727 9.49865 20.2554 9.24236 20.3251 8.947C20.3948 8.65164 20.346 8.34072 20.1891 8.08095C20.0322 7.82117 19.7798 7.63321 19.4859 7.55739C19.1921 7.48157 18.8802 7.52392 18.6172 7.67536Z" fill="#0066FF" stroke="#0066FF" stroke-width="0.4"/>
<path d="M0.840484 15.0057L0.840445 15.0057L0.839486 15.0096L0.830846 15.0446L0.830817 15.0446L0.830042 15.048C0.763288 15.3406 0.81252 15.6477 0.967396 15.9047C1.12227 16.1618 1.37074 16.3488 1.6606 16.4265L1.66063 16.4265L4.47418 17.1803L3.72048 19.9942L3.72045 19.9942L3.71954 19.9979L3.7109 20.0327L3.71086 20.0327L3.71002 20.0364C3.64259 20.3326 3.69404 20.6435 3.85333 20.9021C4.01261 21.1608 4.26701 21.3467 4.56186 21.4198C4.85671 21.4929 5.16848 21.4475 5.43017 21.2932C5.69186 21.1389 5.8826 20.8882 5.96139 20.5948L5.96142 20.5947L7.0155 16.6604L7.01554 16.6604L7.0165 16.6565L7.02514 16.6215L7.02517 16.6215L7.02594 16.6181C7.09269 16.3255 7.04343 16.0184 6.88852 15.7614C6.7336 15.5043 6.48509 15.3173 6.19519 15.2396L2.26111 14.1856L2.26112 14.1855L2.25828 14.1848L2.2234 14.176L2.22341 14.176L2.21895 14.175C1.92634 14.1082 1.61926 14.1575 1.36221 14.3124C1.10516 14.4673 0.918153 14.7158 0.840484 15.0057ZM19.1305 4.44652L19.1213 4.48153L18.0768 8.37995L18.0768 8.37993L18.0758 8.38382L18.0672 8.41886L18.0671 8.41885L18.0664 8.42226C17.9996 8.71484 18.0488 9.0219 18.2037 9.27895C18.3586 9.53599 18.6071 9.72301 18.8969 9.80072L18.8969 9.80073L22.831 10.8548L22.831 10.8548L22.8341 10.8556L22.8691 10.8644L22.8691 10.8644L22.8734 10.8654C23.166 10.9322 23.473 10.8829 23.7301 10.728C23.9871 10.5731 24.1742 10.3246 24.2518 10.0347L24.2519 10.0347L24.2528 10.0308L24.2615 9.99575L24.2615 9.99575L24.2623 9.99234C24.329 9.69974 24.2798 9.39265 24.1248 9.1356C23.9699 8.87855 23.7214 8.69155 23.4315 8.61388L20.618 7.85989L21.3718 5.04618L21.3719 5.04619L21.3728 5.0425L21.3814 5.00762L21.3814 5.00763L21.3821 5.00487C21.4511 4.70805 21.4006 4.39598 21.2414 4.13611C21.0823 3.87624 20.8272 3.68944 20.5315 3.61609C20.2357 3.54274 19.9229 3.58873 19.6607 3.74412C19.3986 3.89952 19.2081 4.15183 19.1305 4.44652Z" fill="#0066FF" stroke="#0066FF" stroke-width="0.4"/>
</svg>
