<svg width="106" height="17" viewBox="0 0 106 17" fill="none" xmlns="http://www.w3.org/2000/svg">
<path fill-rule="evenodd" clip-rule="evenodd" d="M7.83092 0.61698C8.15789 0.461007 8.53777 0.461007 8.86474 0.61698C9.14742 0.751814 9.30317 0.985923 9.38176 1.11435C9.46305 1.24713 9.54645 1.41627 9.62774 1.58113C9.63187 1.58955 9.63609 1.59796 9.64023 1.60636L11.3539 5.07973L15.2147 5.64435C15.3965 5.67089 15.583 5.69812 15.7343 5.73452C15.8806 5.76972 16.1512 5.84587 16.3665 6.07326C16.6155 6.3363 16.7328 6.69777 16.6853 7.05701C16.6443 7.36754 16.4699 7.58804 16.3721 7.70246C16.2709 7.82072 16.1359 7.95225 16.0043 8.08044L13.2116 10.8019L13.8706 14.6457C13.9017 14.8269 13.9336 15.013 13.9459 15.1681C13.9577 15.3183 13.9692 15.5994 13.8197 15.8748C13.6469 16.1933 13.3395 16.4167 12.9832 16.4827C12.6753 16.5398 12.4116 16.442 12.2726 16.3843C12.1289 16.3246 11.962 16.2368 11.7993 16.1512L8.34782 14.3351L4.89632 16.1512C4.73365 16.2368 4.56678 16.3246 4.42301 16.3843C4.28399 16.442 4.02033 16.5398 3.71238 16.4827C3.35617 16.4167 3.04881 16.1933 2.87589 15.8748C2.72641 15.5994 2.73789 15.3183 2.74978 15.1681C2.76207 15.013 2.79398 14.8269 2.82509 14.6457L3.48402 10.8019L0.7115 8.10007C0.704813 8.09355 0.698106 8.08702 0.69139 8.08047C0.559776 7.95228 0.424741 7.82073 0.323605 7.70246C0.225754 7.58804 0.0513356 7.36754 0.0103468 7.05701C-0.03707 6.69777 0.0800739 6.3363 0.329158 6.07326C0.54447 5.84587 0.815029 5.76972 0.961363 5.73452C1.11264 5.69812 1.29912 5.67089 1.48087 5.64435C1.49015 5.64299 1.49942 5.64165 1.50866 5.64029L5.34183 5.07973L7.05545 1.60636C7.05959 1.59796 7.06373 1.58955 7.06788 1.58113C7.14918 1.41627 7.23259 1.24713 7.31383 1.11435C7.39242 0.985923 7.54827 0.751814 7.83092 0.61698Z" fill="#FFAB00"/>
<path fill-rule="evenodd" clip-rule="evenodd" d="M30.0919 0.61698C30.4189 0.461007 30.7988 0.461007 31.1257 0.61698C31.4084 0.751814 31.5642 0.985923 31.6427 1.11435C31.724 1.24713 31.8074 1.41627 31.8887 1.58113C31.8929 1.58955 31.8971 1.59796 31.9012 1.60636L33.6148 5.07973L37.4757 5.64435C37.6575 5.67089 37.844 5.69812 37.9953 5.73452C38.1416 5.76972 38.4122 5.84587 38.6275 6.07326C38.8765 6.3363 38.9937 6.69777 38.9463 7.05701C38.9053 7.36754 38.7309 7.58804 38.633 7.70246C38.5319 7.82072 38.3969 7.95225 38.2652 8.08044L35.4726 10.8019L36.1315 14.6457C36.1627 14.8269 36.1946 15.013 36.2069 15.1681C36.2187 15.3183 36.2302 15.5994 36.0807 15.8748C35.9079 16.1933 35.6005 16.4167 35.2442 16.4827C34.9363 16.5398 34.6726 16.442 34.5336 16.3843C34.3898 16.3246 34.223 16.2368 34.0603 16.1512L30.6088 14.3351L27.1573 16.1512C26.9946 16.2368 26.8278 16.3246 26.684 16.3843C26.545 16.442 26.2813 16.5398 25.9734 16.4827C25.6172 16.4167 25.3098 16.1933 25.1369 15.8748C24.9874 15.5994 24.9989 15.3183 25.0108 15.1681C25.0231 15.013 25.055 14.8269 25.0861 14.6457L25.745 10.8019L22.9725 8.10007C22.9658 8.09355 22.9591 8.08702 22.9524 8.08047C22.8208 7.95228 22.6857 7.82073 22.5846 7.70246C22.4867 7.58804 22.3123 7.36754 22.2713 7.05701C22.2239 6.69777 22.3411 6.3363 22.5901 6.07326C22.8055 5.84587 23.076 5.76972 23.2223 5.73452C23.3736 5.69812 23.5601 5.67089 23.7419 5.64435C23.7511 5.64299 23.7604 5.64165 23.7696 5.64029L27.6028 5.07973L29.3164 1.60636C29.3206 1.59796 29.3247 1.58955 29.3289 1.58113C29.4102 1.41627 29.4936 1.24713 29.5748 1.11435C29.6534 0.985923 29.8093 0.751814 30.0919 0.61698Z" fill="#FFAB00"/>
<path fill-rule="evenodd" clip-rule="evenodd" d="M52.3524 0.61698C52.6794 0.461007 53.0593 0.461007 53.3862 0.61698C53.6689 0.751814 53.8247 0.985923 53.9032 1.11435C53.9845 1.24713 54.0679 1.41627 54.1492 1.58113C54.1534 1.58955 54.1576 1.59796 54.1617 1.60636L55.8753 5.07973L59.7362 5.64435C59.918 5.67089 60.1045 5.69812 60.2557 5.73452C60.4021 5.76972 60.6727 5.84587 60.888 6.07326C61.137 6.3363 61.2542 6.69777 61.2068 7.05701C61.1657 7.36754 60.9914 7.58804 60.8935 7.70246C60.7924 7.82072 60.6574 7.95225 60.5257 8.08044L57.7331 10.8019L58.392 14.6457C58.4232 14.8269 58.4551 15.013 58.4674 15.1681C58.4792 15.3183 58.4907 15.5994 58.3412 15.8748C58.1684 16.1933 57.861 16.4167 57.5047 16.4827C57.1968 16.5398 56.9331 16.442 56.7941 16.3843C56.6503 16.3246 56.4834 16.2368 56.3208 16.1512L52.8693 14.3351L49.4178 16.1512C49.2551 16.2368 49.0883 16.3246 48.9445 16.3843C48.8055 16.442 48.5418 16.5398 48.2339 16.4827C47.8777 16.4167 47.5703 16.1933 47.3974 15.8748C47.2479 15.5994 47.2594 15.3183 47.2713 15.1681C47.2836 15.013 47.3155 14.8269 47.3466 14.6457L48.0055 10.8019L45.233 8.10007C45.2263 8.09355 45.2196 8.08702 45.2129 8.08047C45.0813 7.95228 44.9462 7.82073 44.8451 7.70246C44.7472 7.58804 44.5728 7.36754 44.5318 7.05701C44.4844 6.69777 44.6016 6.3363 44.8506 6.07326C45.066 5.84587 45.3365 5.76972 45.4828 5.73452C45.6341 5.69812 45.8206 5.67089 46.0024 5.64435C46.0116 5.64299 46.0209 5.64165 46.0301 5.64029L49.8633 5.07973L51.5769 1.60636C51.5811 1.59796 51.5852 1.58955 51.5894 1.58113C51.6707 1.41627 51.7541 1.24713 51.8353 1.11435C51.9139 0.985923 52.0698 0.751814 52.3524 0.61698Z" fill="#FFAB00"/>
<path fill-rule="evenodd" clip-rule="evenodd" d="M74.6132 0.61698C74.9401 0.461007 75.32 0.461007 75.647 0.61698C75.9296 0.751814 76.0854 0.985923 76.164 1.11435C76.2453 1.24713 76.3287 1.41627 76.41 1.58113C76.4141 1.58955 76.4183 1.59796 76.4225 1.60636L78.1361 5.07973L81.997 5.64435C82.1788 5.67089 82.3653 5.69812 82.5165 5.73452C82.6628 5.76972 82.9334 5.84587 83.1487 6.07326C83.3978 6.3363 83.515 6.69776 83.4675 7.05701C83.4265 7.36754 83.2521 7.58804 83.1543 7.70246C83.0531 7.82072 82.9181 7.95225 82.7865 8.08044L79.9938 10.8019L80.6528 14.6457C80.6839 14.8269 80.7158 15.013 80.7281 15.1681C80.7399 15.3183 80.7515 15.5994 80.6019 15.8748C80.4291 16.1933 80.1217 16.4167 79.7655 16.4827C79.4575 16.5398 79.1939 16.442 79.0548 16.3843C78.9111 16.3246 78.7442 16.2368 78.5815 16.1512L75.13 14.3351L71.6785 16.1512C71.5159 16.2368 71.349 16.3246 71.2052 16.3843C71.0662 16.442 70.8026 16.5398 70.4946 16.4827C70.1384 16.4167 69.831 16.1933 69.6581 15.8748C69.5086 15.5994 69.5201 15.3183 69.532 15.1681C69.5443 15.013 69.5762 14.8269 69.6073 14.6457L70.2662 10.8019L67.4937 8.10007C67.487 8.09355 67.4803 8.08702 67.4736 8.08047C67.342 7.95228 67.207 7.82073 67.1058 7.70246C67.008 7.58804 66.8336 7.36754 66.7926 7.05701C66.7452 6.69777 66.8623 6.3363 67.1114 6.07326C67.3267 5.84587 67.5973 5.76972 67.7436 5.73452C67.8949 5.69812 68.0813 5.67089 68.2631 5.64435C68.2724 5.64299 68.2816 5.64165 68.2909 5.64029L72.1241 5.07973L73.8377 1.60636C73.8418 1.59796 73.846 1.58955 73.8501 1.58113C73.9314 1.41627 74.0148 1.24713 74.0961 1.11435C74.1746 0.985923 74.3305 0.751814 74.6132 0.61698Z" fill="#FFAB00"/>
<path fill-rule="evenodd" clip-rule="evenodd" d="M96.6132 0.61698C96.9401 0.461007 97.32 0.461007 97.647 0.61698C97.9296 0.751814 98.0854 0.985923 98.164 1.11435C98.2453 1.24713 98.3287 1.41627 98.41 1.58113C98.4141 1.58955 98.4183 1.59796 98.4225 1.60636L100.136 5.07973L103.997 5.64435C104.179 5.67089 104.365 5.69812 104.516 5.73452C104.663 5.76972 104.933 5.84587 105.149 6.07326C105.398 6.3363 105.515 6.69776 105.468 7.05701C105.426 7.36754 105.252 7.58804 105.154 7.70246C105.053 7.82072 104.918 7.95225 104.786 8.08044L101.994 10.8019L102.653 14.6457C102.684 14.8269 102.716 15.013 102.728 15.1681C102.74 15.3183 102.751 15.5994 102.602 15.8748C102.429 16.1933 102.122 16.4167 101.765 16.4827C101.458 16.5398 101.194 16.442 101.055 16.3843C100.911 16.3246 100.744 16.2368 100.582 16.1512L97.13 14.3351L93.6785 16.1512C93.5159 16.2368 93.349 16.3246 93.2052 16.3843C93.0662 16.442 92.8026 16.5398 92.4946 16.4827C92.1384 16.4167 91.831 16.1933 91.6581 15.8748C91.5086 15.5994 91.5201 15.3183 91.532 15.1681C91.5443 15.013 91.5762 14.8269 91.6073 14.6457L92.2662 10.8019L89.4937 8.10007C89.487 8.09355 89.4803 8.08702 89.4736 8.08047C89.342 7.95228 89.207 7.82073 89.1058 7.70246C89.008 7.58804 88.8336 7.36754 88.7926 7.05701C88.7452 6.69777 88.8623 6.3363 89.1114 6.07326C89.3267 5.84587 89.5973 5.76972 89.7436 5.73452C89.8949 5.69812 90.0813 5.67089 90.2631 5.64435C90.2724 5.64299 90.2816 5.64165 90.2909 5.64029L94.1241 5.07973L95.8377 1.60636C95.8418 1.59796 95.846 1.58955 95.8501 1.58113C95.9314 1.41627 96.0148 1.24713 96.0961 1.11435C96.1746 0.985923 96.3305 0.751814 96.6132 0.61698Z" fill="#FFAB00"/>
</svg>
