<svg width="146" height="158" viewBox="0 0 146 158" fill="none" xmlns="http://www.w3.org/2000/svg">
<path d="M74.9032 133.943C104.729 132.901 128.063 107.878 127.022 78.0523C125.98 48.2265 100.957 24.8922 71.1314 25.9337C41.3056 26.9752 17.9713 51.9982 19.0128 81.8241C20.0544 111.65 45.0773 134.984 74.9032 133.943Z" fill="#001440"/>
<path d="M7.437 42.127L10.5501 37.0909L12.293 38.3695L12.0773 38.6999L11.2616 38.2859C11.1044 38.1981 10.9206 38.1705 10.7446 38.2083C10.6602 38.2255 10.5808 38.2615 10.5122 38.3136C10.4436 38.3656 10.3877 38.4325 10.3485 38.5092L9.92817 39.1457L16.6705 44.1965L17.1547 43.6773L17.4493 43.8943L15.83 46.4983L15.5473 46.2809L15.8324 45.5414L9.12594 40.4893L8.57066 41.3698C8.4691 41.5222 8.4286 41.7072 8.4572 41.8881C8.4821 42.0801 8.57781 42.2559 8.72557 42.381L9.38286 43.0517L9.16967 43.4538L7.437 42.127Z" fill="#001440"/>
<path d="M16.6325 39.6892C16.8665 39.8843 17.0763 40.0683 17.2971 40.2281C17.6755 40.5263 18.1161 40.7357 18.5863 40.8408C18.7565 40.8656 18.9302 40.841 19.0868 40.7698C19.2433 40.6986 19.3761 40.5838 19.4692 40.4392C19.5791 40.3004 19.6521 40.1361 19.6815 39.9616C19.711 39.787 19.6959 39.6079 19.6377 39.4407C19.454 39.0128 19.2019 38.6177 18.8912 38.2708L20.2243 37.7458C20.4217 38.2662 20.4785 38.8293 20.389 39.3786C20.3102 39.9268 20.0984 40.4475 19.7722 40.8951C19.5932 41.1659 19.361 41.3973 19.0896 41.5754C18.8182 41.7535 18.5134 41.8745 18.1938 41.9309C17.817 41.9691 17.4364 41.9306 17.0748 41.8178C16.7132 41.7051 16.3782 41.5204 16.0899 41.2748C15.9671 41.1834 15.7697 41.0109 15.4982 40.7693C14.9792 40.3153 14.5776 39.7425 14.3276 39.0999C14.1449 38.5919 14.101 38.0443 14.2004 37.5137C14.2808 37.073 14.4629 36.6571 14.7321 36.2991C14.9147 36.0516 15.1514 35.849 15.4241 35.7068C15.6969 35.5646 15.9986 35.4866 16.3061 35.4787C17.0258 35.5198 17.7139 35.789 18.2704 36.2473C18.4184 36.3513 18.5584 36.4664 18.689 36.5915L16.6325 39.6892ZM15.044 37.3527C15.0988 37.6693 15.2107 37.9734 15.3743 38.2501C15.6162 38.6773 15.9156 39.0692 16.2641 39.415L17.3977 37.6293C17.2181 37.4655 17.029 37.3124 16.8316 37.1706C16.519 36.9099 16.1472 36.7298 15.7488 36.6463C15.636 36.6178 15.5174 36.6216 15.4066 36.6572C15.2958 36.6928 15.1972 36.7587 15.122 36.8476C15.0398 37.0024 15.0123 37.1803 15.044 37.3527Z" fill="#001440"/>
<path d="M27.4346 30.5095L27.7374 30.6185L27.4252 31.6101C27.3621 31.8248 27.255 32.024 27.1108 32.1951C27.0618 32.2602 26.9975 32.312 26.9235 32.3459C26.8495 32.3798 26.7682 32.3947 26.687 32.3893C26.5917 32.3754 26.5007 32.3407 26.4203 32.2877C26.3399 32.2347 26.2722 32.1647 26.2218 32.0827L23.9366 29.316C23.8689 29.2364 23.7943 29.163 23.7136 29.0966C23.611 28.9728 23.4804 28.8752 23.3326 28.8117C23.1849 28.7483 23.0241 28.7208 22.8637 28.7316C22.5933 28.7712 22.3446 28.9023 22.1591 29.103C21.8739 29.4071 21.6945 29.7951 21.6476 30.2092C21.7851 30.3086 21.9097 30.4248 22.0184 30.5551L24.843 33.6976L25.3578 33.3686L25.6063 33.635L23.9001 35.4647L23.6636 35.1978L23.9122 34.7825L21.2252 31.8146C21.1708 31.7422 21.1083 31.6762 21.039 31.6178C20.877 31.4391 20.6568 31.3239 20.4177 31.2927C20.3105 31.2963 20.2055 31.3234 20.11 31.3722C20.0145 31.421 19.931 31.4903 19.8654 31.5751C19.6603 31.8043 19.4992 32.0694 19.3904 32.3571C19.2724 32.6466 19.2219 32.9593 19.2429 33.2712L22.2163 36.564L22.6722 36.261L22.9207 36.5274L21.191 38.3698L20.9425 38.1034L21.2245 37.6152L17.7413 33.7662L17.5059 34.2169L17.1886 34.0366L17.7053 32.392C17.7274 32.3288 17.762 32.2707 17.8069 32.221C17.8341 32.1873 17.8679 32.1596 17.9064 32.1398C17.9448 32.1199 17.987 32.1083 18.0302 32.1056C18.0754 32.1081 18.1196 32.1204 18.1596 32.1417C18.1996 32.163 18.2344 32.1929 18.2617 32.2291L18.8337 32.8549C18.771 32.4115 18.8126 31.9596 18.9551 31.5351C19.0734 31.1382 19.2769 30.7719 19.5514 30.4618C19.7671 30.2044 20.0504 30.0123 20.3693 29.907C20.657 29.802 20.9707 29.791 21.2652 29.8758C21.2428 29.4664 21.3058 29.0569 21.4504 28.6733C21.57 28.3357 21.7541 28.0246 21.9925 27.7574C22.2947 27.4145 22.713 27.1954 23.167 27.1423C23.4207 27.1155 23.6771 27.1492 23.9152 27.2407C24.1533 27.3322 24.3663 27.4788 24.5368 27.6685L24.7849 27.923L27.2795 30.8617L27.4346 30.5095Z" fill="#001440"/>
<path d="M28.861 22.7217C29.478 22.9473 30.0184 23.3431 30.4198 23.8632C30.6073 24.0959 30.7573 24.282 30.846 24.4224C31.3738 25.0959 31.6523 25.9313 31.6342 26.7868C31.5978 27.474 31.3444 28.1319 30.9104 28.6659C30.7208 28.9123 30.5039 29.1365 30.264 29.3343C30.0855 29.4874 29.8893 29.6187 29.6797 29.7254L30.8511 31.4187L31.3897 31.0889L31.5665 31.3579L29.5444 33.043L29.356 32.7865L29.7715 32.3534L25.3629 25.9773L25.1488 26.3555L24.858 26.2461L25.5299 24.5961C25.5573 24.5391 25.5916 24.4857 25.632 24.437C25.6665 24.4091 25.7064 24.3886 25.7492 24.3769C25.792 24.3651 25.8368 24.3622 25.8808 24.3686C25.9706 24.3948 26.0486 24.4512 26.1016 24.5283L26.3786 24.9252C26.447 24.5607 26.5633 24.2067 26.7245 23.8727C26.8603 23.5721 27.0589 23.3042 27.3071 23.0869C27.5066 22.8877 27.7577 22.748 28.0322 22.6835C28.3066 22.619 28.5936 22.6322 28.861 22.7217ZM29.2364 24.9092C28.9648 24.5629 28.6201 24.2809 28.2269 24.0833C28.1079 24.0141 27.9742 23.974 27.8367 23.9663C27.6993 23.9586 27.562 23.9836 27.436 24.0392C27.3846 24.0656 27.3374 24.0995 27.296 24.1397C26.9607 24.4623 26.7511 24.8935 26.7046 25.3564L29.3751 29.2218C29.5122 29.1426 29.6412 29.05 29.7601 28.9452C29.9574 28.7859 30.1212 28.5892 30.2422 28.3663C30.4307 27.9956 30.4916 27.5731 30.4155 27.1643C30.2775 26.5515 30.0217 25.9714 29.6622 25.4564C29.4623 25.2122 29.3238 25.0137 29.2364 24.9092Z" fill="#001440"/>
<path d="M37.7609 23.1164L38.4326 22.8298L38.6235 23.158L36.2874 24.7585L36.0966 24.4303L36.4902 24.0577L33.4899 22.3925L33.381 23.0421L34.6544 25.258L35.1387 25.0856L35.3296 25.4139L33.1792 26.8524L32.9884 26.5242L33.4392 26.0779L29.0766 18.2769L28.6892 18.8286L28.348 18.6492L29.2044 16.8014C29.2373 16.7311 29.289 16.6713 29.3539 16.6287C29.3925 16.6092 29.435 16.5983 29.4783 16.5967C29.5216 16.5952 29.5648 16.6032 29.6047 16.62C29.6975 16.6472 29.7766 16.7085 29.826 16.7917L32.9602 22.2914L33.4819 19.0799L32.7616 19.3442L32.5707 19.016L34.4641 17.7539L34.643 18.0825L34.0905 18.6998L33.7364 20.8889L37.7609 23.1164Z" fill="#001440"/>
<path d="M47.3127 18.2023L48.0245 18.0339L48.156 18.3761L45.5668 19.5788L45.4353 19.2366L45.8668 18.9225L43.2095 16.8027L42.9919 17.4203L43.8637 19.7818L44.3748 19.6922L44.5064 20.0344L42.1524 21.1213L42.02 20.7551L42.5454 20.39L39.5134 11.9924L39.0403 12.4873L38.7811 12.2572L39.9181 10.567C39.9571 10.5059 40.0139 10.458 40.0807 10.4298C40.1216 10.4106 40.166 10.3999 40.2112 10.3983C40.2563 10.3967 40.3014 10.4043 40.3435 10.4206C40.3879 10.4398 40.4275 10.4685 40.4597 10.5045C40.492 10.5405 40.516 10.5831 40.5302 10.6294L42.6883 16.6057L43.7176 13.5439L42.9692 13.6896L42.8373 13.3354L44.8704 12.3076L45.0024 12.6618L44.3629 13.1865L43.6586 15.2801L47.3127 18.2023Z" fill="#001440"/>
<path d="M48.5512 14.9659C48.6155 15.2429 48.6969 15.5157 48.795 15.7826C48.9318 16.2435 49.176 16.6654 49.5077 17.0135C49.6358 17.1298 49.7948 17.2066 49.9656 17.2346C50.1363 17.2626 50.3115 17.2406 50.47 17.1712C50.6388 17.1201 50.7914 17.0259 50.9127 16.898C51.0341 16.77 51.12 16.6127 51.1621 16.4414C51.2628 15.9812 51.2826 15.5071 51.2208 15.0401L52.6186 15.3381C52.492 15.9115 52.2031 16.4365 51.7864 16.8502C51.4108 17.2594 50.9415 17.5713 50.4188 17.759C50.1207 17.883 49.8006 17.9453 49.4778 17.9422C49.155 17.9391 48.8361 17.8706 48.5405 17.7409C48.2056 17.5632 47.9108 17.3187 47.6742 17.0225C47.4376 16.7263 47.2642 16.3847 47.1648 16.0189C47.1598 15.8756 47.0431 15.6165 46.9593 15.2726C46.766 14.6083 46.7415 13.9062 46.888 13.23C47.0163 12.7047 47.2847 12.2241 47.6646 11.8394C47.9918 11.5138 48.3942 11.2738 48.8362 11.1407C49.1249 11.0366 49.4339 11.0018 49.7385 11.0389C50.0431 11.076 50.3347 11.1842 50.5898 11.3546C51.1877 11.7755 51.6294 12.3824 51.8461 13.0808C51.8498 13.1883 51.9393 13.3526 52.0078 13.6013L48.5512 14.9659ZM48.454 12.1826C48.316 12.478 48.2378 12.7978 48.2237 13.1235C48.1957 13.5959 48.2365 14.0699 48.3446 14.5306L50.2889 13.6972C50.2797 13.4344 50.1524 13.2117 50.0851 12.9987C49.9663 12.6116 49.7572 12.2581 49.475 11.9676C49.4017 11.8761 49.3025 11.8088 49.1904 11.7743C49.0783 11.7399 48.9585 11.7398 48.8464 11.7743C48.6702 11.858 48.5307 12.0033 48.454 12.1826Z" fill="#001440"/>
<path d="M54.0502 13.183C54.0606 13.4817 54.1658 13.7531 54.2347 14.0138C54.3297 14.4842 54.5381 14.9244 54.8416 15.2962C54.9563 15.4145 55.1021 15.4979 55.2622 15.5367C55.4223 15.5756 55.5901 15.5683 55.7462 15.5158C55.9201 15.4803 56.0815 15.3995 56.2139 15.2814C56.3463 15.1633 56.4451 15.0123 56.5002 14.8436C56.645 14.394 56.7055 13.9216 56.6787 13.45L58.0452 13.8807C57.8706 14.4079 57.5614 14.8804 57.1483 15.2515C56.7445 15.6305 56.2525 15.9026 55.7168 16.043C55.4067 16.1421 55.0796 16.1767 54.7556 16.1448C54.4316 16.113 54.1175 16.0152 53.8327 15.8577C53.5064 15.6567 53.2258 15.3898 53.0089 15.074C52.7919 14.7582 52.6433 14.4006 52.5726 14.024C52.5059 13.7743 52.4571 13.5202 52.4265 13.2637C52.2947 12.5834 52.3444 11.8804 52.5706 11.2255C52.7436 10.717 53.05 10.2644 53.4577 9.91477C53.7971 9.62508 54.1994 9.41856 54.6326 9.31163C54.9298 9.23378 55.241 9.22559 55.5418 9.28769C55.8427 9.34979 56.1252 9.4805 56.3673 9.66965C56.8987 10.1548 57.2642 10.7947 57.4119 11.4989C57.4157 11.6064 57.4816 11.7835 57.5262 12.0331L54.0502 13.183ZM54.2866 10.3642C54.1223 10.6418 54.0189 10.9512 53.9835 11.2718C53.9301 11.7415 53.9467 12.2165 54.0327 12.6813L55.9795 11.9197C55.9703 11.6569 55.8903 11.4205 55.8354 11.2191C55.7536 10.8181 55.5764 10.4428 55.3188 10.1249C55.2491 10.0303 55.154 9.95737 55.0445 9.91462C54.9351 9.87187 54.8158 9.86102 54.7004 9.88334C54.5131 9.96547 54.3643 10.1162 54.2846 10.3045L54.2866 10.3642Z" fill="#001440"/>
<path d="M63.302 8.24346C63.7194 8.75191 63.9817 9.36963 64.0579 10.023C64.1066 10.2505 64.1386 10.4812 64.1537 10.7133C64.2733 11.5488 64.1002 12.4 63.6638 13.1224C63.2828 13.6925 62.7338 14.1297 62.0929 14.3732C61.8044 14.4808 61.5072 14.5632 61.2045 14.6195C60.9716 14.658 60.7347 14.6662 60.4997 14.6441L60.6674 16.7073L61.2886 16.6856L61.2994 16.9962L58.6959 17.4459L58.6851 17.1354L59.2411 16.9605L58.6363 9.23162L58.2497 9.4604L58.0617 9.21581L59.4737 8.20971L59.6504 8.13179C59.6927 8.12037 59.7372 8.12021 59.7795 8.13132C59.8219 8.14243 59.8606 8.16442 59.8918 8.19511C59.9287 8.22473 59.9584 8.26238 59.9785 8.30521C59.9987 8.34803 60.0088 8.39489 60.0081 8.44221L60.0248 8.92002C60.2736 8.62755 60.5626 8.37184 60.8833 8.16049C61.1656 7.97773 61.4833 7.8566 61.8157 7.80502C62.08 7.73785 62.3575 7.74312 62.619 7.82028C62.8806 7.89743 63.1165 8.04361 63.302 8.24346ZM62.5253 10.3157C62.4636 9.89439 62.3107 9.49158 62.0774 9.13538C62.0075 9.01781 61.9115 8.91781 61.797 8.84303C61.6824 8.76826 61.5523 8.72069 61.4165 8.70398L61.2373 8.71024C60.7646 8.82475 60.3494 9.10699 60.0691 9.5045L60.4826 14.1544L60.9485 14.1381C61.1975 14.0955 61.4372 14.0102 61.6573 13.8861C62.0027 13.6433 62.2594 13.2941 62.388 12.8919C62.5759 12.2947 62.6474 11.6669 62.5985 11.0427C62.5876 10.7992 62.5631 10.5565 62.5253 10.3157Z" fill="#001440"/>
<path d="M73.6353 3.1107C73.8724 3.23091 74.0789 3.40369 74.239 3.61585L73.7621 4.68497C73.6292 4.41506 73.468 4.16009 73.281 3.92438C73.2183 3.84553 73.1388 3.7816 73.0483 3.7372C72.9578 3.69279 72.8586 3.66901 72.7578 3.66757C72.1964 3.68718 71.9037 4.21167 71.8436 5.23036L71.7122 6.9452L72.9784 6.90098L72.9984 7.47436L71.8039 7.51607L71.3874 13.056L72.0959 13.1389L72.1101 13.5451L69.4463 13.6381L69.4329 13.2559L69.8959 13.156L70.2036 7.58391L69.6063 7.60477L69.5863 7.0314L70.1836 7.01054L70.2269 6.19576C70.2515 5.33799 70.5495 4.5105 71.0773 3.8339C71.2998 3.56171 71.5797 3.34196 71.8969 3.19031C72.2141 3.03866 72.5608 2.95884 72.9124 2.95655C73.1634 2.93418 73.4153 2.9879 73.6353 3.1107Z" fill="#001440"/>
<path d="M73.4894 12.9706C73.0617 12.3596 72.8699 11.6142 72.9497 10.8726C72.9455 10.7531 72.9384 10.5501 73.0009 10.2848C73.094 9.35637 73.518 8.4925 74.1956 7.85107C74.8491 7.28699 75.6988 7.00372 76.5601 7.06287C76.9903 7.08429 77.4073 7.21818 77.7696 7.45119C78.1488 7.69927 78.4446 8.05564 78.6186 8.47401C78.829 8.97753 78.9216 9.52241 78.8895 10.0672C78.8937 10.1866 78.8995 10.3538 78.8358 10.5833C78.7711 11.2056 78.5672 11.8055 78.2393 12.3383C77.9334 12.8232 77.5003 13.2148 76.9871 13.4704C76.4719 13.7269 75.9004 13.8497 75.3252 13.8274C74.9752 13.8277 74.6293 13.7512 74.3121 13.6031C73.9948 13.4551 73.714 13.2391 73.4894 12.9706ZM77.2882 10.446C77.2773 10.1354 77.3509 9.84581 77.3652 9.57024C77.4095 9.05007 77.3423 8.52643 77.1681 8.03431C77.1128 7.87385 77.0107 7.73363 76.875 7.63178C76.7393 7.52992 76.5761 7.4711 76.4066 7.46291C76.1595 7.46414 75.918 7.53626 75.7107 7.6707C75.5034 7.80514 75.339 7.99625 75.2371 8.22134C74.8666 8.87125 74.639 9.59274 74.5695 10.3376C74.4849 10.9984 74.4291 11.4548 74.4255 11.6941C74.3809 12.099 74.4405 12.5086 74.5986 12.884C74.6769 13.0191 74.7915 13.1296 74.9293 13.203C75.0671 13.2764 75.2227 13.3098 75.3785 13.2993C76.3968 13.3475 77.0209 12.3809 77.2898 10.4938L77.2882 10.446Z" fill="#001440"/>
<path d="M82.1467 8.81742C82.458 8.43979 82.8589 8.14618 83.3129 7.96343C83.7617 7.79892 84.2513 7.78183 84.7105 7.91463L84.0952 9.13209L83.5168 9.00877C83.2367 8.95672 82.948 8.97602 82.6773 9.06489C82.4066 9.15377 82.1626 9.30937 81.9678 9.51734L81.0795 13.531L81.5887 13.7285L81.5176 14.0898L79.0307 13.77L79.1018 13.4087L79.6632 13.3891L80.7781 8.32702L80.2764 8.34454L80.2635 7.97424L81.9068 7.4265C81.9727 7.40644 82.0427 7.404 82.1099 7.41941C82.1948 7.42631 82.2736 7.46655 82.329 7.53135C82.3525 7.57304 82.3656 7.61975 82.3673 7.66756C82.369 7.71537 82.3591 7.76288 82.3386 7.8061L82.1467 8.81742Z" fill="#001440"/>
<path d="M94.6464 10.9163C94.8276 11.5528 94.8095 12.2296 94.5945 12.8556C94.5358 13.083 94.4596 13.3056 94.3666 13.5213C94.1095 14.2875 93.6127 14.9506 92.9496 15.4126C92.4265 15.751 91.8215 15.9415 91.1988 15.9641C90.8734 15.9684 90.5493 15.9233 90.2374 15.8302C89.8466 15.7381 89.4834 15.5539 89.1781 15.2931L88.0305 15.3093L91.3924 6.43732L90.7712 6.45901L90.7591 6.1126L92.538 5.67972C92.6615 5.63887 92.7942 5.63423 92.9203 5.66637C93.1135 5.71943 93.1654 5.83721 93.0885 6.03125L91.5884 9.9945C92.1582 9.74031 92.7978 9.68843 93.4011 9.84748C93.683 9.90368 93.9457 10.0315 94.1638 10.2187C94.3819 10.4059 94.5481 10.6462 94.6464 10.9163ZM93.0172 12.5518C93.1527 12.1218 93.1899 11.6668 93.1262 11.2205C93.1167 11.0816 93.075 10.9468 93.0044 10.8267C92.9338 10.7067 92.8362 10.6048 92.7193 10.5291L92.4775 10.4538C92.1081 10.364 91.7187 10.4116 91.3819 10.5877L89.6736 15.0964C89.7661 15.1505 89.8638 15.1952 89.9653 15.2298C90.2154 15.2964 90.477 15.3076 90.7318 15.2628C91.1417 15.2139 91.523 15.0278 91.8137 14.7347C92.2423 14.2785 92.5771 13.7426 92.7991 13.1574C92.8853 12.9607 92.9582 12.7584 93.0172 12.5518Z" fill="#001440"/>
<path d="M96.375 14.5277C96.2433 14.7789 96.1285 15.0386 96.0314 15.3051C95.8358 15.7432 95.7499 16.2224 95.7811 16.7012C95.7981 16.8733 95.8652 17.0366 95.9741 17.171C96.0829 17.3053 96.2287 17.4048 96.3936 17.4572C96.5583 17.5233 96.7367 17.5482 96.9133 17.5295C97.0898 17.5108 97.2591 17.4492 97.4064 17.3501C97.7812 17.0686 98.1014 16.721 98.3513 16.3244L99.2172 17.4901C98.7655 17.8165 98.237 18.0204 97.6831 18.0819C97.1349 18.1514 96.578 18.0846 96.0617 17.8874C95.7541 17.7824 95.4703 17.6175 95.2268 17.4022C94.9832 17.187 94.7846 16.9257 94.6426 16.6333C94.505 16.28 94.441 15.9024 94.4545 15.5235C94.468 15.1447 94.5587 14.7725 94.7211 14.43C94.7165 14.2986 94.8874 14.0534 95.0557 13.7366C95.3283 13.1094 95.7531 12.5602 96.2915 12.1386C96.7482 11.8448 97.2749 11.6778 97.8175 11.6548C98.2607 11.6182 98.7061 11.6888 99.1163 11.8606C99.411 11.9631 99.6771 12.134 99.8929 12.3593C100.109 12.5846 100.268 12.8579 100.358 13.1567C100.482 13.8355 100.394 14.5362 100.105 15.1629L99.8833 15.6729L96.375 14.5277ZM98.2013 12.3709C97.906 12.506 97.6404 12.6982 97.4197 12.9364C97.0964 13.2784 96.8201 13.6622 96.5984 14.0774L98.6175 14.7005C98.741 14.469 98.829 14.2506 98.9175 14.0442C99.0902 13.668 99.1623 13.2534 99.1266 12.8409C99.1175 12.7191 99.0704 12.6032 98.9921 12.5094C98.9137 12.4156 98.808 12.3487 98.6898 12.318C98.5138 12.2773 98.3293 12.2964 98.1654 12.3722L98.2013 12.3709Z" fill="#001440"/>
<path d="M104.383 14.7262L102.031 18.5996C101.927 18.7475 101.879 18.9269 101.893 19.1068C101.906 19.1771 101.937 19.2429 101.983 19.2978C102.029 19.3528 102.088 19.395 102.155 19.4205C102.497 19.5446 102.862 19.5891 103.224 19.5506L102.986 19.9416L102.461 19.96C102.207 19.9866 101.952 19.9956 101.696 19.9867C101.479 19.9774 101.264 19.9366 101.058 19.8655C100.982 19.847 100.908 19.8174 100.84 19.7774C100.717 19.7342 100.605 19.664 100.513 19.572C100.421 19.4801 100.351 19.3686 100.307 19.2459C100.261 18.9676 100.314 18.6819 100.458 18.4393C100.508 18.3265 100.564 18.2168 100.626 18.1105L103.068 14.0546L102.411 13.7426L102.705 13.254L103.362 13.5659L104.643 11.5598L105.944 12.1721L104.737 14.2355L105.77 14.7256L105.477 15.2262L104.383 14.7262Z" fill="#001440"/>
<path d="M109.539 17.5003L106.905 21.1803C106.783 21.3123 106.717 21.4857 106.718 21.6652C106.724 21.7379 106.75 21.8076 106.792 21.8672C106.834 21.9267 106.891 21.9739 106.958 22.0037C107.286 22.1534 107.644 22.2268 108.006 22.2182L107.743 22.5862L107.218 22.6045C106.962 22.6128 106.705 22.6018 106.451 22.5715C106.234 22.5477 106.023 22.4906 105.823 22.4021L105.616 22.3016C105.496 22.2477 105.388 22.1676 105.302 22.0673C105.216 21.9669 105.153 21.8487 105.118 21.7211C105.101 21.4397 105.175 21.1604 105.329 20.9243C105.392 20.8187 105.46 20.7165 105.534 20.6182L108.294 16.7784L107.659 16.4059L108.002 15.9395L108.636 16.312L110.039 14.3614L111.261 15.0841L109.858 17.0347L110.847 17.6102L110.516 18.0762L109.539 17.5003Z" fill="#001440"/>
<path d="M111.62 22.2953C111.437 22.5114 111.265 22.737 111.105 22.971C110.806 23.3453 110.603 23.7879 110.516 24.2593C110.491 24.4308 110.517 24.6058 110.591 24.7627C110.664 24.9196 110.782 25.0514 110.93 25.1419C111.071 25.2517 111.239 25.3227 111.416 25.348C111.593 25.3733 111.773 25.3519 111.94 25.286C112.368 25.0984 112.763 24.8423 113.109 24.5276L113.669 25.8356C113.152 26.0448 112.59 26.114 112.038 26.0361C111.489 25.9702 110.964 25.7709 110.51 25.4555C110.238 25.2802 110.003 25.0527 109.819 24.7861C109.636 24.5195 109.507 24.2191 109.44 23.9022C109.39 23.526 109.419 23.1436 109.526 22.7795C109.633 22.4154 109.815 22.0775 110.059 21.7876C110.212 21.5769 110.376 21.3754 110.553 21.1844C110.981 20.6301 111.547 20.1979 112.195 19.931C112.698 19.7319 113.247 19.6755 113.78 19.7681C114.219 19.8397 114.635 20.0137 114.994 20.2758C115.243 20.4559 115.448 20.6898 115.594 20.9601C115.74 21.2303 115.823 21.5301 115.838 21.837C115.809 22.5542 115.557 23.2446 115.117 23.8116L114.774 24.2422L111.62 22.2953ZM113.955 20.6589C113.636 20.7186 113.332 20.8388 113.058 21.0132C112.657 21.2651 112.294 21.5716 111.978 21.924L113.787 23.0568C113.947 22.8773 114.097 22.6884 114.234 22.491C114.483 22.1697 114.654 21.7954 114.734 21.3972C114.758 21.2832 114.751 21.1648 114.714 21.0545C114.676 20.9443 114.61 20.8462 114.521 20.7707C114.346 20.6575 114.134 20.6176 113.931 20.6598L113.955 20.6589Z" fill="#001440"/>
<path d="M118.447 24.6282C118.919 24.4804 119.423 24.4628 119.904 24.5773C120.369 24.6594 120.796 24.8875 121.123 25.2284L119.953 25.9749C119.821 25.8284 119.68 25.6895 119.532 25.5591C119.322 25.3661 119.068 25.2286 118.792 25.1588C118.516 25.0891 118.227 25.0894 117.951 25.1598L115.064 28.0951L115.39 28.5262L115.136 28.7863L113.201 27.1555L113.455 26.8955L113.954 27.1412L117.592 23.4262L117.142 23.2147L117.298 22.8863L118.975 23.3062C119.043 23.3252 119.105 23.3599 119.158 23.4074C119.196 23.4313 119.227 23.4641 119.249 23.503C119.272 23.5418 119.284 23.5855 119.286 23.6302C119.287 23.6749 119.278 23.7194 119.258 23.7596C119.239 23.7999 119.21 23.8348 119.174 23.8613L118.447 24.6282Z" fill="#001440"/>
<path d="M129.127 27.7117C129.195 27.7433 129.257 27.7855 129.311 27.8369C129.368 27.9023 129.401 27.9858 129.403 28.0728C129.397 28.1169 129.381 28.1592 129.358 28.1971C129.335 28.2349 129.304 28.2675 129.267 28.2929L121.641 34.2281L121.896 34.6976L121.617 34.9226L119.903 33.0929L120.182 32.8678L120.647 33.1745L127.738 27.6645L127.31 27.3925L127.515 27.0863L129.127 27.7117Z" fill="#001440"/>
<path d="M123.757 36.63L124.001 37.1118L123.71 37.3253L122.089 35.4205L122.38 35.207L122.834 35.538L127.059 32.5321L126.642 32.2477L126.859 31.953L128.438 32.6514C128.499 32.6833 128.553 32.726 128.598 32.7773C128.656 32.8428 128.688 32.9263 128.69 33.0133C128.681 33.0596 128.662 33.1033 128.635 33.1414C128.607 33.1796 128.571 33.2112 128.53 33.2342L123.757 36.63ZM130.758 31.6016C130.742 31.6903 130.709 31.7751 130.661 31.8508C130.612 31.9264 130.549 31.9915 130.474 32.0421C130.3 32.1896 130.075 32.262 129.847 32.2434C129.736 32.2401 129.626 32.2136 129.526 32.1656C129.425 32.1177 129.336 32.0492 129.263 31.9648C129.198 31.8937 129.147 31.8098 129.115 31.7183C129.083 31.6268 129.07 31.5297 129.077 31.4331C129.086 31.3404 129.113 31.2503 129.157 31.1686C129.202 31.0868 129.263 31.015 129.336 30.9576C129.422 30.884 129.521 30.8283 129.629 30.7937C129.737 30.7591 129.85 30.7464 129.963 30.7563C130.076 30.7646 130.186 30.7957 130.286 30.8477C130.387 30.8996 130.475 30.9715 130.547 31.0588C130.616 31.1328 130.667 31.221 130.697 31.3172C130.728 31.4133 130.736 31.515 130.722 31.6148L130.758 31.6016Z" fill="#001440"/>
<path d="M135.377 35.4587C135.419 35.7203 135.396 35.9882 135.309 36.2385L134.121 36.4833C134.257 36.2084 134.363 35.9201 134.438 35.6231C134.472 35.5259 134.482 35.4218 134.466 35.32C134.45 35.2183 134.409 35.1222 134.346 35.0403C134.008 34.6095 133.412 34.6662 132.546 35.2107L131.095 36.1225L131.86 37.1244L131.368 37.4286L130.616 36.4383L125.936 39.4123L126.268 40.0345L125.917 40.2501L124.399 38.234L124.727 38.0312L125.085 38.3417L129.764 35.3438L129.401 34.8781L129.893 34.5739L130.256 35.0396L130.946 34.6088C131.637 34.1167 132.464 33.8536 133.312 33.8565C133.663 33.8788 134.004 33.978 134.311 34.1471C134.619 34.3162 134.886 34.551 135.092 34.8348C135.241 35.0139 135.339 35.2292 135.377 35.4587Z" fill="#001440"/>
<path d="M129.945 40.5162C129.691 40.6458 129.444 40.7902 129.207 40.9486C128.796 41.1921 128.447 41.5277 128.188 41.929C128.097 42.0774 128.051 42.2496 128.057 42.4239C128.063 42.5982 128.121 42.7668 128.223 42.9085C128.314 43.0611 128.442 43.1879 128.596 43.2767C128.75 43.3655 128.924 43.4135 129.101 43.416C129.573 43.4025 130.039 43.3094 130.479 43.1406L130.529 44.5621C129.97 44.5708 129.42 44.4289 128.936 44.1513C128.435 43.8749 128.01 43.4789 127.699 42.9985C127.51 42.7358 127.376 42.4372 127.305 42.121C127.234 41.8048 127.229 41.4775 127.288 41.1591C127.382 40.7925 127.55 40.4492 127.782 40.1508C128.015 39.8525 128.306 39.6055 128.639 39.4256C128.768 39.3493 128.991 39.2219 129.32 39.055C129.927 38.7238 130.607 38.548 131.299 38.5433C131.835 38.55 132.36 38.6966 132.821 38.9686C133.201 39.2066 133.522 39.5263 133.763 39.9044C133.934 40.1611 134.042 40.4547 134.078 40.7612C134.113 41.0677 134.076 41.3782 133.968 41.6673C133.683 42.3221 133.194 42.8675 132.575 43.2229C132.47 43.2864 132.318 43.3874 132.094 43.5028L129.945 40.5162ZM132.696 39.846C132.374 39.8002 132.047 39.8116 131.729 39.8798C131.263 39.963 130.813 40.1158 130.393 40.3331L131.648 42.0234C131.862 41.9131 132.07 41.79 132.269 41.6549C132.624 41.4561 132.923 41.1699 133.137 40.8233C133.199 40.724 133.23 40.6084 133.226 40.4913C133.222 40.3741 133.183 40.2609 133.114 40.1663C133.016 40.0142 132.869 39.9009 132.696 39.846Z" fill="#001440"/>
<path d="M135.88 121.085L132.46 125.893L130.821 124.503L131.048 124.172L131.842 124.647C131.991 124.746 132.171 124.786 132.348 124.761C132.435 124.75 132.519 124.72 132.592 124.672C132.665 124.624 132.726 124.559 132.769 124.483L133.203 123.882L126.816 118.388L126.295 118.873L126.023 118.643L127.803 116.189L128.086 116.418L127.741 117.148L134.128 122.642L134.721 121.808C134.836 121.659 134.893 121.475 134.882 121.288C134.864 121.098 134.782 120.919 134.649 120.782L134.027 120.074L134.278 119.73L135.88 121.085Z" fill="#001440"/>
<path d="M126.53 122.883C126.336 122.679 126.13 122.486 125.912 122.306C125.566 121.977 125.148 121.734 124.691 121.596C124.523 121.561 124.348 121.575 124.187 121.635C124.026 121.696 123.886 121.801 123.782 121.938C123.663 122.07 123.579 122.23 123.539 122.403C123.499 122.576 123.504 122.756 123.554 122.927C123.703 123.352 123.923 123.749 124.205 124.1L122.845 124.542C122.683 124.011 122.663 123.447 122.788 122.906C122.903 122.362 123.153 121.856 123.514 121.433C123.71 121.175 123.957 120.959 124.239 120.799C124.521 120.639 124.833 120.539 125.155 120.503C125.534 120.489 125.911 120.553 126.263 120.691C126.616 120.829 126.936 121.038 127.205 121.305C127.316 121.396 127.501 121.581 127.762 121.847C128.253 122.332 128.615 122.932 128.815 123.592C128.972 124.108 128.992 124.656 128.871 125.181C128.768 125.634 128.553 126.053 128.244 126.399C128.049 126.639 127.8 126.828 127.517 126.95C127.234 127.072 126.925 127.124 126.618 127.102C125.907 127.021 125.242 126.713 124.721 126.223L124.325 125.842L126.53 122.883ZM127.967 125.32C127.936 124.998 127.844 124.685 127.695 124.397C127.48 123.971 127.204 123.578 126.877 123.23L125.621 124.936C125.789 125.107 125.967 125.268 126.152 125.42C126.444 125.701 126.8 125.906 127.19 126.017C127.302 126.055 127.423 126.061 127.538 126.033C127.653 126.006 127.759 125.947 127.842 125.863C127.944 125.702 127.988 125.51 127.967 125.32Z" fill="#001440"/>
<path d="M115.14 131.306L114.836 131.173L115.221 130.203C115.295 129.992 115.415 129.8 115.572 129.64C115.626 129.579 115.694 129.532 115.77 129.502C115.846 129.473 115.927 129.461 116.009 129.47C116.103 129.491 116.191 129.533 116.267 129.593C116.344 129.652 116.407 129.727 116.451 129.813L118.562 132.729L118.762 132.973C118.862 133.099 118.987 133.203 119.13 133.276C119.273 133.349 119.43 133.391 119.59 133.399C119.869 133.377 120.132 133.258 120.332 133.062C120.632 132.779 120.832 132.407 120.905 132.002C120.775 131.892 120.658 131.768 120.557 131.631L117.965 128.301L117.425 128.583L117.2 128.304L119.018 126.602L119.243 126.881L118.97 127.273L121.472 130.427C121.525 130.501 121.583 130.571 121.647 130.636C121.792 130.83 122.006 130.96 122.245 130.998C122.351 131.001 122.456 130.982 122.554 130.942C122.651 130.901 122.739 130.84 122.811 130.763C123.031 130.546 123.213 130.293 123.347 130.015C123.479 129.727 123.549 129.415 123.554 129.098L120.813 125.606L120.332 125.874L120.107 125.595L121.936 123.869L122.161 124.148L121.855 124.625L125.059 128.699L125.319 128.271L125.625 128.476L125 130.088C124.974 130.152 124.935 130.211 124.886 130.26C124.825 130.315 124.745 130.348 124.662 130.351C124.571 130.337 124.488 130.289 124.43 130.216L123.905 129.553C123.934 130.001 123.86 130.449 123.688 130.864C123.547 131.247 123.322 131.595 123.029 131.879C122.807 132.096 122.532 132.25 122.232 132.326C121.935 132.395 121.624 132.368 121.344 132.249C121.335 132.665 121.244 133.075 121.075 133.455C120.934 133.779 120.733 134.074 120.484 134.324C120.165 134.634 119.749 134.822 119.306 134.856C119.052 134.863 118.8 134.81 118.569 134.702C118.339 134.594 118.138 134.433 117.981 134.232C117.893 134.152 117.814 134.062 117.744 133.966L115.46 130.876L115.14 131.306Z" fill="#001440"/>
<path d="M113.194 138.956C112.598 138.677 112.091 138.24 111.727 137.692C111.551 137.447 111.424 137.248 111.336 137.108C110.868 136.41 110.649 135.575 110.715 134.737C110.801 134.057 111.096 133.419 111.56 132.914C111.77 132.688 111.999 132.48 112.244 132.292C112.436 132.155 112.64 132.036 112.853 131.936L111.799 130.167L111.247 130.461L111.094 130.191L113.228 128.634L113.381 128.904L112.953 129.313L116.917 135.98L117.155 135.601L117.435 135.735L116.654 137.329C116.623 137.386 116.584 137.44 116.54 137.488C116.501 137.507 116.458 137.517 116.415 137.519C116.372 137.52 116.329 137.513 116.289 137.497C116.244 137.484 116.202 137.463 116.166 137.433C116.13 137.403 116.1 137.366 116.079 137.325L115.826 136.915C115.735 137.273 115.594 137.616 115.407 137.934C115.24 138.23 115.007 138.483 114.727 138.676C114.519 138.853 114.268 138.973 113.998 139.022C113.729 139.071 113.452 139.049 113.194 138.956ZM112.972 136.704C113.218 137.071 113.544 137.378 113.924 137.603C114.038 137.679 114.168 137.726 114.304 137.742C114.439 137.758 114.577 137.742 114.705 137.696L114.857 137.607C115.226 137.298 115.467 136.863 115.532 136.387L113.131 132.345C112.992 132.423 112.859 132.512 112.733 132.61C112.523 132.747 112.346 132.929 112.214 133.142C111.99 133.502 111.9 133.928 111.957 134.347C112.052 134.964 112.263 135.558 112.58 136.095L112.972 136.704Z" fill="#001440"/>
<path d="M104.334 137.974L103.636 138.214L103.481 137.872L105.942 136.435L106.097 136.764L105.691 137.125L108.543 138.975L108.7 138.336L107.603 136.042L107.106 136.179L106.938 135.838L109.154 134.564L109.333 134.905L108.846 135.329L112.716 143.398L113.14 142.869L113.422 143.074L112.444 144.855C112.406 144.922 112.35 144.978 112.282 145.016C112.244 145.037 112.201 145.049 112.157 145.05C112.114 145.052 112.07 145.043 112.031 145.025C111.984 145.01 111.94 144.984 111.904 144.95C111.867 144.916 111.839 144.875 111.821 144.829L109.097 139.099L108.359 142.282L109.105 142.065L109.26 142.394L107.303 143.551L107.136 143.21L107.725 142.627L108.188 140.459L104.334 137.974Z" fill="#001440"/>
<path d="M94.4726 142.253L93.7593 142.374L93.6512 142.019L96.3063 140.993L96.4144 141.348L95.9577 141.627L98.4302 143.933L98.696 143.326L98.0103 140.814L97.4967 140.832L97.3886 140.477L99.7484 139.557L99.8569 139.924L99.3183 140.254L101.795 148.85L102.293 148.39L102.541 148.633L101.282 150.244C101.237 150.302 101.176 150.346 101.107 150.369C101.068 150.388 101.025 150.399 100.982 150.4C100.939 150.402 100.896 150.394 100.856 150.378C100.811 150.355 100.772 150.322 100.741 150.282C100.711 150.241 100.69 150.195 100.68 150.145L98.9245 144.047L97.6901 147.056L98.4546 147.03L98.5627 147.385L96.4384 148.2L96.3303 147.845L97.0073 147.367L97.8451 145.329L94.4726 142.253Z" fill="#001440"/>
<path d="M93.0864 145.363C93.0359 145.087 92.9705 144.814 92.8903 144.545C92.7886 144.072 92.572 143.632 92.2596 143.263C92.1408 143.14 91.9887 143.053 91.8217 143.015C91.6548 142.976 91.4801 142.986 91.3191 143.045C91.1454 143.085 90.9848 143.169 90.8529 143.289C90.721 143.408 90.622 143.56 90.5656 143.729C90.4354 144.181 90.387 144.653 90.4228 145.121L89.0452 144.715C89.2107 144.186 89.5115 143.71 89.9179 143.333C90.3181 142.949 90.8044 142.665 91.3361 142.506C91.6452 142.408 91.9707 142.371 92.2939 142.399C92.6171 142.427 92.9317 142.518 93.2195 142.668C93.5419 142.867 93.8201 143.131 94.0366 143.442C94.2532 143.753 94.4037 144.106 94.4786 144.477C94.4836 144.621 94.5641 144.869 94.6367 145.237C94.7668 145.915 94.7297 146.614 94.5285 147.274C94.3601 147.789 94.0584 148.249 93.6541 148.608C93.3163 148.903 92.914 149.113 92.4796 149.224C92.1846 149.307 91.8741 149.321 91.573 149.263C91.2718 149.205 90.9885 149.077 90.7458 148.889C90.1991 148.427 89.8199 147.797 89.6666 147.097C89.6128 146.922 89.5707 146.744 89.5403 146.563L93.0864 145.363ZM92.9092 148.168C93.0615 147.882 93.16 147.571 93.2 147.249C93.2452 146.779 93.2286 146.305 93.1508 145.839L91.1542 146.543C91.1634 146.806 91.2553 147.042 91.3102 147.243C91.4008 147.642 91.586 148.013 91.8503 148.325C91.9183 148.421 92.0137 148.494 92.1239 148.535C92.2341 148.576 92.3541 148.582 92.4682 148.554C92.6587 148.486 92.8163 148.348 92.9092 148.168Z" fill="#001440"/>
<path d="M87.4091 146.841C87.3987 146.542 87.3887 146.256 87.2839 145.996C87.2198 145.52 87.0397 145.066 86.7594 144.675C86.6542 144.538 86.5102 144.436 86.3462 144.382C86.1823 144.328 86.0058 144.325 85.8399 144.372C85.6647 144.398 85.4989 144.468 85.3583 144.575C85.2176 144.683 85.1067 144.824 85.0361 144.986C84.8705 145.426 84.7815 145.89 84.7731 146.359L83.4399 145.855C83.6459 145.338 83.9849 144.885 84.4226 144.541C84.8491 144.186 85.3595 143.946 85.9051 143.844C86.2207 143.77 86.5479 143.758 86.8678 143.811C87.1878 143.863 87.4942 143.978 87.7696 144.15C88.073 144.376 88.3268 144.663 88.5151 144.992C88.7035 145.32 88.8225 145.684 88.8649 146.061C88.8703 146.216 88.8791 146.467 88.9637 146.835C89.0327 147.521 88.9338 148.214 88.6754 148.854C88.4737 149.348 88.1361 149.774 87.7017 150.084C87.3551 150.347 86.9517 150.525 86.5239 150.603C86.2224 150.662 85.9114 150.649 85.6157 150.566C85.32 150.483 85.0478 150.332 84.8209 150.125C84.3169 149.614 83.9918 148.954 83.8941 148.244C83.8899 148.124 83.8836 147.945 83.8749 147.694L87.4091 146.841ZM86.9927 149.642C87.1676 149.368 87.2907 149.063 87.356 148.745C87.4564 148.284 87.4883 147.812 87.4505 147.342L85.4003 147.88C85.409 148.131 85.4174 148.37 85.5085 148.582C85.5457 149.007 85.6962 149.415 85.9444 149.763C86.0082 149.86 86.0974 149.939 86.2024 149.99C86.3074 150.041 86.4242 150.063 86.5406 150.053C86.7382 149.979 86.9 149.832 86.9927 149.642Z" fill="#001440"/>
<path d="M77.834 151.086C77.4571 150.546 77.2364 149.912 77.196 149.255C77.1851 148.944 77.1772 148.717 77.1714 148.55C77.0963 147.694 77.3247 146.84 77.8166 146.136C78.2242 145.622 78.7782 145.244 79.4053 145.052C79.6999 144.96 80.0016 144.894 80.3073 144.853C80.5412 144.827 80.7769 144.818 81.0121 144.828L80.9403 142.773L80.3192 142.795L80.3079 142.473L82.9296 142.202L82.9413 142.536L82.3601 142.676L82.4393 150.423L82.8388 150.218L83.0152 150.475L81.543 151.471L81.3664 151.549C81.3222 151.551 81.2781 151.545 81.2365 151.53C81.1949 151.515 81.1567 151.492 81.1241 151.462C81.0587 151.391 81.0214 151.299 81.0194 151.202L81.0027 150.725C80.7492 150.995 80.4544 151.223 80.1293 151.401C79.8344 151.566 79.5078 151.667 79.1709 151.697C78.9147 151.716 78.6579 151.67 78.4243 151.563C78.1906 151.456 77.9876 151.292 77.834 151.086ZM78.7562 149.069C78.7901 149.485 78.9144 149.889 79.1205 150.252C79.179 150.376 79.2664 150.485 79.3755 150.568C79.4845 150.652 79.612 150.708 79.7472 150.732L79.9264 150.726C80.3891 150.637 80.8046 150.385 81.0975 150.016L81.0411 145.317L80.6111 145.332C80.3635 145.355 80.1225 145.424 79.9006 145.537C79.5424 145.737 79.2593 146.05 79.0945 146.426C78.8564 147.006 78.7398 147.629 78.7518 148.256C78.7386 148.527 78.74 148.798 78.7562 149.069Z" fill="#001440"/>
<path d="M67.2006 155.5C66.9737 155.367 66.7825 155.181 66.6434 154.957L67.1814 153.922C67.3013 154.202 67.4551 154.465 67.6393 154.707C67.6948 154.792 67.7686 154.864 67.8553 154.917C67.942 154.97 68.0394 155.002 68.1404 155.013C68.7018 154.993 69.0323 154.527 69.1522 153.506L69.38 151.812L68.1105 151.761L68.1865 151.196L69.4436 151.236L70.1246 145.734L69.4259 145.591L69.4838 145.195L72.0942 145.283L72.0362 145.68L71.5704 145.696L70.894 151.329L71.4793 151.308L71.3918 151.885L70.8065 151.906L70.7154 152.722C70.6544 153.559 70.3354 154.355 69.8024 155.003C69.5619 155.258 69.2682 155.458 68.942 155.587C68.6158 155.716 68.2651 155.772 67.915 155.75C67.6581 155.735 67.4106 155.649 67.2006 155.5Z" fill="#001440"/>
<path d="M67.9575 145.667C68.3424 146.304 68.4875 147.058 68.3666 147.793C68.3712 147.925 68.3779 148.116 68.2676 148.383C68.1398 149.339 67.6529 150.211 66.9057 150.822C66.2257 151.328 65.376 151.551 64.5354 151.443C64.0966 151.396 63.6783 151.233 63.3229 150.971C62.9617 150.699 62.6904 150.326 62.5439 149.898C62.3645 149.382 62.3124 148.83 62.3921 148.289C62.3879 148.169 62.382 148.002 62.4697 147.772C62.5924 147.147 62.8538 146.557 63.2347 146.047C63.5764 145.585 64.0343 145.221 64.5619 144.992C65.0894 144.764 65.668 144.679 66.239 144.746C66.5755 144.764 66.9039 144.856 67.2009 145.015C67.4979 145.174 67.7562 145.396 67.9575 145.667ZM63.9563 147.875C63.8955 148.188 63.8458 148.477 63.8191 148.741C63.7235 149.257 63.742 149.787 63.8733 150.294C63.9151 150.46 64.0076 150.609 64.1379 150.721C64.2683 150.832 64.43 150.9 64.6006 150.915C64.8373 150.918 65.0705 150.858 65.2765 150.741C65.4825 150.625 65.654 150.456 65.7735 150.252C66.1824 149.623 66.4588 148.917 66.5861 148.178C66.6854 147.733 66.7615 147.284 66.8141 146.831C66.9107 146.436 66.8963 146.023 66.7724 145.636C66.7028 145.497 66.5967 145.379 66.4652 145.295C66.3338 145.211 66.1821 145.164 66.0262 145.16C65.0553 145.098 64.4045 145.982 63.9563 147.875Z" fill="#001440"/>
<path d="M59.0641 149.23C58.7187 149.587 58.2871 149.85 57.811 149.992C57.3612 150.151 56.8732 150.168 56.4134 150.04L57.1123 148.82C57.2974 148.887 57.4871 148.94 57.68 148.98C57.9564 149.052 58.2464 149.053 58.5238 148.985C58.8012 148.917 59.0573 148.781 59.2689 148.589L60.4222 144.626L59.9241 144.404L60.0195 144.054L62.4286 144.544L62.3212 144.895L61.7718 144.914L60.3071 149.892L60.8088 149.875L60.8217 150.245L59.1385 150.675L58.9354 150.682C58.893 150.675 58.8524 150.66 58.8165 150.636C58.7806 150.613 58.7502 150.582 58.7273 150.546C58.7049 150.506 58.6924 150.461 58.6908 150.415C58.6892 150.37 58.6986 150.324 58.7181 150.283L59.0641 149.23Z" fill="#001440"/>
<path d="M46.75 146.276C46.6191 145.628 46.683 144.956 46.9337 144.344C47.0082 144.122 47.1007 143.907 47.2102 143.7C47.5133 142.939 48.0526 142.296 48.7488 141.865C49.2957 141.561 49.9145 141.411 50.5396 141.431C50.8648 141.456 51.1851 141.526 51.4916 141.637C51.8723 141.753 52.2198 141.958 52.5051 142.236L53.6449 142.339L49.7125 150.968L50.3217 150.947L50.335 151.329L48.5397 151.631C48.412 151.672 48.2756 151.677 48.1455 151.645C48.1068 151.635 48.0711 151.616 48.0416 151.59C48.0121 151.563 47.9897 151.529 47.9765 151.492C47.9634 151.454 47.9597 151.414 47.9661 151.375C47.9724 151.335 47.9884 151.298 48.0127 151.267L49.7801 147.426C49.1953 147.651 48.5517 147.674 47.9525 147.49C47.6627 147.412 47.3987 147.258 47.1874 147.045C46.9762 146.832 46.8252 146.566 46.75 146.276ZM48.4909 144.756C48.3333 145.198 48.2842 145.671 48.3478 146.136C48.3607 146.507 48.5128 146.752 48.6953 146.842L48.9384 146.953C49.2976 147.071 49.6873 147.058 50.0374 146.914L52.0493 142.539C51.9626 142.475 51.8684 142.422 51.7687 142.381C51.5206 142.303 51.2594 142.276 51.0005 142.3C50.5911 142.318 50.2001 142.476 49.8918 142.746C49.4113 143.166 49.0222 143.68 48.7486 144.257C48.6536 144.418 48.5676 144.585 48.4909 144.756Z" fill="#001440"/>
<path d="M45.3043 142.547C45.4508 142.291 45.5858 142.047 45.697 141.804C45.9225 141.376 46.0413 140.9 46.0432 140.416C46.0347 140.245 45.9768 140.08 45.8764 139.941C45.776 139.803 45.6375 139.696 45.4777 139.635C45.3199 139.552 45.1433 139.512 44.9653 139.518C44.7873 139.524 44.614 139.577 44.4623 139.67C44.0649 139.921 43.719 140.246 43.4433 140.627L42.661 139.458C43.1288 139.158 43.6673 138.987 44.2223 138.961C44.7776 138.935 45.331 139.043 45.8359 139.275C46.1364 139.397 46.409 139.579 46.637 139.809C46.8651 140.04 47.0438 140.314 47.1624 140.616C47.2757 140.977 47.3133 141.357 47.2729 141.733C47.2325 142.109 47.115 142.473 46.9278 142.801C46.8221 143.038 46.6981 143.266 46.5569 143.484C46.2154 144.083 45.732 144.588 45.1493 144.956C44.6906 145.242 44.1625 145.397 43.6221 145.404C43.1787 145.421 42.7375 145.334 42.3335 145.15C42.0554 145.02 41.8113 144.828 41.6202 144.587C41.4292 144.347 41.2966 144.066 41.2327 143.765C41.1217 143.055 41.2476 142.328 41.591 141.696C41.663 141.529 41.7452 141.366 41.8371 141.209L45.3043 142.547ZM43.3181 144.578C43.6222 144.465 43.9007 144.292 44.1376 144.071C44.4867 143.755 44.7882 143.389 45.0326 142.987L43.0683 142.218C42.9432 142.422 42.8307 142.634 42.7317 142.852C42.5346 143.223 42.434 143.638 42.4389 144.058C42.4304 144.173 42.4547 144.289 42.5091 144.39C42.5634 144.492 42.6456 144.577 42.746 144.634C42.9369 144.689 43.1416 144.669 43.3181 144.578Z" fill="#001440"/>
<path d="M37.3013 141.81L39.8997 138.131C40.0119 137.99 40.0732 137.815 40.0737 137.635C40.0671 137.564 40.0414 137.496 39.9994 137.438C39.9574 137.381 39.9006 137.336 39.835 137.308C39.5028 137.158 39.1397 137.089 38.7755 137.106L39.0373 136.726L39.5629 136.708C39.8167 136.68 40.0723 136.671 40.3274 136.681C40.5433 136.701 40.7549 136.754 40.9548 136.838L41.1616 136.939C41.2839 136.991 41.3926 137.07 41.4791 137.171C41.5656 137.271 41.6276 137.391 41.6603 137.519C41.6869 137.796 41.6163 138.074 41.4605 138.304C41.4034 138.414 41.3392 138.52 41.2682 138.621L38.5571 142.495L39.2035 142.856L38.8734 143.334L38.2269 142.973L36.8483 144.935L35.6279 144.236L37.0061 142.263L36.0058 141.7L36.3359 141.222L37.3013 141.81Z" fill="#001440"/>
<path d="M32.3249 138.695L35.2051 135.209C35.3355 135.084 35.4149 134.915 35.4278 134.735C35.4231 134.663 35.401 134.594 35.3634 134.533C35.3258 134.472 35.2739 134.42 35.2122 134.384C34.8914 134.213 34.5367 134.115 34.1736 134.097L34.4721 133.74L34.9858 133.722C35.2439 133.723 35.5013 133.75 35.754 133.803C35.9681 133.843 36.1758 133.912 36.3711 134.008L36.5664 134.121C36.6838 134.183 36.7856 134.271 36.8639 134.378C36.9423 134.485 36.9952 134.609 37.0186 134.739C37.0256 135.02 36.9335 135.294 36.7586 135.514C36.6676 135.649 36.5873 135.747 36.5301 135.821L33.5256 139.514L34.1259 139.923L33.7587 140.367L33.1584 139.957L31.6087 141.817L30.3846 141.011L31.9223 139.151L30.9672 138.515L31.3344 138.071L32.3249 138.695Z" fill="#001440"/>
<path d="M30.5865 133.78C30.7944 133.57 30.9784 133.36 31.1505 133.15C31.4724 132.806 31.7042 132.387 31.8255 131.931C31.8627 131.763 31.8488 131.588 31.7857 131.428C31.7226 131.269 31.6131 131.131 31.4713 131.034C31.3405 130.914 31.1801 130.83 31.0064 130.792C30.8328 130.754 30.6522 130.763 30.483 130.818C30.0342 130.966 29.6165 131.195 29.2509 131.495L28.7947 130.075C29.3257 129.913 29.8901 129.893 30.4312 130.018C30.9737 130.126 31.4823 130.363 31.9144 130.708C32.1756 130.9 32.3949 131.144 32.5589 131.424C32.7229 131.704 32.8282 132.015 32.8682 132.337C32.8944 132.714 32.8408 133.092 32.711 133.447C32.5812 133.802 32.3781 134.125 32.1149 134.396C32.0116 134.52 31.8387 134.705 31.5846 134.965C31.1057 135.465 30.5108 135.839 29.8526 136.054C29.3419 136.216 28.7966 136.235 28.2758 136.109C27.826 136.021 27.4068 135.817 27.0592 135.518C26.8195 135.325 26.6281 135.078 26.5 134.799C26.3719 134.519 26.3107 134.213 26.3212 133.905C26.3957 133.191 26.6946 132.519 27.1751 131.986L27.5316 131.579L30.5865 133.78ZM28.1746 135.264C28.4941 135.224 28.8031 135.124 29.0852 134.969C29.5117 134.749 29.9047 134.47 30.2522 134.139L28.5232 132.919C28.3562 133.087 28.1987 133.264 28.0514 133.45C27.7787 133.75 27.5785 134.109 27.4661 134.499C27.4322 134.611 27.4297 134.729 27.4589 134.842C27.4882 134.955 27.5481 135.058 27.632 135.139C27.7913 135.246 27.9845 135.291 28.1746 135.264Z" fill="#001440"/>
<path d="M23.8996 131C23.4262 131.141 22.9243 131.159 22.4422 131.05C21.965 130.94 21.5363 130.678 21.2202 130.304L22.4651 129.65C22.5811 129.808 22.7103 129.956 22.8513 130.091C23.0467 130.298 23.2907 130.453 23.5611 130.542C23.8315 130.631 24.1198 130.65 24.3999 130.599L27.4859 127.872L27.1945 127.404L27.4613 127.168L29.2799 128.898L29.013 129.135L28.5248 128.853L24.6383 132.289L25.089 132.525L24.8968 132.842L23.2518 132.314C23.1842 132.295 23.1242 132.255 23.0804 132.2C23.0464 132.177 23.019 132.145 23.001 132.108C22.9829 132.071 22.9748 132.03 22.9773 131.989C22.9736 131.941 22.9831 131.893 23.0048 131.85C23.0265 131.807 23.0596 131.771 23.1004 131.745L23.8996 131Z" fill="#001440"/>
<path d="M13.4807 127.178C13.416 127.142 13.3578 127.095 13.3085 127.04C13.2775 126.964 13.2745 126.879 13.3002 126.801C13.3061 126.756 13.3226 126.712 13.3482 126.674C13.3739 126.635 13.408 126.604 13.4479 126.581L21.4638 121.182L21.1481 120.703L21.4401 120.501L23.0387 122.443L22.7468 122.644L22.2923 122.301L14.8381 127.345L15.255 127.642L15.0262 127.937L13.4807 127.178Z" fill="#001440"/>
<path d="M12.1567 123.169C12.1717 123.079 12.2044 122.992 12.253 122.915C12.3016 122.837 12.3652 122.77 12.4399 122.717C12.6232 122.58 12.8531 122.52 13.08 122.551C13.1916 122.562 13.2997 122.597 13.3966 122.653C13.4936 122.71 13.5771 122.786 13.6415 122.878C13.7025 122.952 13.7473 123.037 13.7732 123.129C13.7991 123.221 13.8054 123.317 13.7917 123.411C13.7762 123.504 13.7422 123.594 13.6916 123.674C13.6409 123.753 13.5748 123.822 13.497 123.876C13.3119 124.008 13.0827 124.062 12.8581 124.027C12.6336 123.993 12.4314 123.872 12.2945 123.691C12.2379 123.617 12.1965 123.534 12.1728 123.444C12.1492 123.354 12.1437 123.261 12.1567 123.169ZM19.4497 118.645L19.2406 118.138L19.545 117.948L21.0386 119.965L20.7343 120.155L20.3033 119.799L15.8768 122.501L16.2707 122.822L16.0414 123.105L14.5059 122.286C14.4522 122.27 14.4024 122.243 14.3596 122.207C14.3422 122.172 14.3325 122.134 14.3311 122.095C14.3298 122.056 14.3368 122.017 14.3517 121.98C14.3606 121.934 14.3795 121.89 14.4071 121.852C14.4347 121.814 14.4703 121.782 14.5114 121.76L19.4497 118.645Z" fill="#001440"/>
<path d="M7.76516 118.993C7.75276 118.725 7.80064 118.458 7.90528 118.211L9.09563 118.05C8.94274 118.316 8.81634 118.597 8.71828 118.888C8.67621 118.981 8.65617 119.082 8.65971 119.183C8.66326 119.285 8.6903 119.384 8.73872 119.474C9.04167 119.93 9.63935 119.921 10.5425 119.411L12.0571 118.604L11.3379 117.529L11.8427 117.26L12.5369 118.301L17.3851 115.691L17.0994 115.044L17.4519 114.864L18.8913 117.038L18.6364 117.274L18.3018 116.939L13.3336 119.54L13.6617 120.031L13.1449 120.301L12.8308 119.869L12.1031 120.265C11.3899 120.695 10.5631 120.899 9.73161 120.85C9.38146 120.799 9.04713 120.67 8.75278 120.473C8.45843 120.277 8.21139 120.017 8.02951 119.714C7.86906 119.507 7.77671 119.255 7.76516 118.993Z" fill="#001440"/>
<path d="M13.5463 114.33C13.8051 114.219 14.0563 114.09 14.2983 113.945C14.7302 113.734 15.1049 113.421 15.3907 113.034C15.4797 112.887 15.524 112.717 15.518 112.545C15.512 112.373 15.456 112.207 15.3569 112.067C15.2766 111.907 15.1567 111.771 15.0088 111.672C14.8608 111.572 14.6896 111.512 14.5118 111.498C14.0445 111.477 13.5772 111.538 13.1308 111.678L13.2377 110.287C13.7982 110.309 14.3435 110.476 14.8213 110.77C15.2806 111.064 15.6667 111.46 15.95 111.926C16.2856 112.488 16.3864 113.159 16.2305 113.794C16.1117 114.153 15.9207 114.484 15.6693 114.766C15.418 115.048 15.1116 115.276 14.769 115.436C14.6281 115.513 14.3925 115.616 14.0627 115.76C13.4352 116.05 12.7442 116.177 12.0544 116.129C11.5173 116.087 11.0001 115.908 10.5531 115.607C10.1897 115.346 9.89131 115.004 9.68108 114.609C9.53562 114.339 9.45438 114.039 9.44367 113.732C9.43296 113.426 9.49308 113.121 9.61934 112.841C9.95136 112.205 10.4783 111.692 11.123 111.377L11.6168 111.133L13.5463 114.33ZM10.7525 114.811C11.0651 114.894 11.3909 114.915 11.7115 114.873C12.1805 114.825 12.6399 114.708 13.0748 114.526L11.9235 112.725C11.7014 112.818 11.4854 112.925 11.277 113.046C10.9119 113.224 10.5966 113.49 10.3591 113.82C10.2848 113.909 10.2373 114.017 10.2222 114.132C10.2072 114.247 10.2252 114.364 10.2742 114.469C10.3853 114.638 10.556 114.76 10.7525 114.811Z" fill="#001440"/>
<path d="M7.85752 105.201C4.3375 96.2194 2.70399 86.6098 3.05871 76.97C3.41343 67.3302 5.74877 57.8667 9.91934 49.1685L10.9897 49.6813C6.88891 58.2326 4.59393 67.5372 4.24792 77.0146C3.9019 86.492 5.51225 95.9391 8.97855 104.767L7.85752 105.201Z" fill="#001440"/>
<path d="M135.328 111.441L134.268 110.892C139.274 101.096 141.862 90.2432 141.815 79.2421C141.768 68.241 139.087 57.4111 133.997 47.658L135.055 47.1068C140.236 57.0287 142.964 68.0476 143.012 79.2407C143.059 90.4338 140.424 101.475 135.328 111.441Z" fill="#001440"/>
<path d="M101.752 71.2489V69.4441H101.106V69.1333H102.768V69.4441H102.122V71.2489H101.752ZM103.138 71.2489V69.1333H103.712L104.31 70.6871L104.895 69.1333H105.469V71.2489H105.087V69.5038L104.429 71.2489H104.178L103.521 69.5038V71.2489H103.138Z" fill="white"/>
<path d="M55.3286 71.1294H42.9219V73.2211H47.918V86.2493H50.3085V73.1852H55.3047L55.3286 71.1294Z" fill="white"/>
<path d="M73.2694 77.249H70.8789V86.2373H73.2694V77.249Z" fill="white"/>
<path d="M75.0142 74.7151H65.751V86.2852H68.1415V76.759H74.4883C74.689 76.7572 74.8881 76.7963 75.0733 76.8737C75.2585 76.9512 75.4261 77.0655 75.5658 77.2097C75.7055 77.3539 75.8145 77.525 75.8861 77.7125C75.9577 77.9001 75.9904 78.1003 75.9823 78.3009V86.2971H78.3729V78.0379C78.3695 77.1416 78.0131 76.2827 77.3808 75.6474C77.0672 75.3338 76.6943 75.0857 76.2839 74.9174C75.8735 74.7491 75.4338 74.6641 74.9903 74.6673L75.0142 74.7151Z" fill="white"/>
<path d="M97.3532 74.6076L93.8391 78.4922V71.1294H91.5801V86.2374H93.8391V81.6357L100.126 74.6076H97.3532Z" fill="white"/>
<path d="M96.7195 79.1733L95.0342 81.0499L98.2016 86.2492H101.01L96.7195 79.1733Z" fill="white"/>
<path d="M82.4843 77.2371H80.0938V89.6916H82.4843V77.2371Z" fill="white"/>
<path d="M84.6001 74.715H80.082V76.747H84.6001C85.5828 76.747 86.5252 77.1374 87.2201 77.8322C87.915 78.5271 88.3054 79.4696 88.3054 80.4523C88.3054 81.435 87.915 82.3774 87.2201 83.0723C86.5252 83.7672 85.5828 84.1575 84.6001 84.1575H82.9746V86.2373H84.6001C86.1344 86.2373 87.6058 85.6278 88.6907 84.5429C89.7756 83.458 90.3851 81.9866 90.3851 80.4523C90.3851 78.918 89.7756 77.4465 88.6907 76.3616C87.6058 75.2767 86.1344 74.6672 84.6001 74.6672V74.715Z" fill="white"/>
<path d="M61.3406 82.6396L61.2808 82.6994C60.874 83.1566 60.3504 83.4945 59.7661 83.6767C59.1818 83.8589 58.5589 83.8786 57.9643 83.7336C57.3696 83.5886 56.8257 83.2845 56.3908 82.8538C55.9559 82.4231 55.6465 81.8822 55.4958 81.289H64.508V81.1216C64.5195 80.8987 64.5195 80.6752 64.508 80.4523C64.5081 79.0438 63.9955 77.6835 63.0658 76.6254C62.1361 75.5674 60.8531 74.884 59.4563 74.7029C58.0595 74.5218 56.6446 74.8555 55.4758 75.6415C54.3071 76.4276 53.4646 77.6122 53.1055 78.9742C52.7465 80.3361 52.8957 81.7822 53.525 83.0422C54.1544 84.3022 55.221 85.29 56.5256 85.821C57.8301 86.352 59.2833 86.3899 60.6138 85.9276C61.9442 85.4653 63.0608 84.5344 63.755 83.3089L61.2808 82.6396H61.3406ZM58.7708 77.1056C59.4452 77.1016 60.105 77.3015 60.6638 77.679C61.2226 78.0566 61.6543 78.5941 61.9024 79.2212H55.5914C55.8438 78.5874 56.2832 78.0454 56.8512 77.6675C57.4191 77.2896 58.0887 77.0936 58.7708 77.1056Z" fill="white"/>
</svg>
