<svg width="24" height="24" viewBox="0 0 24 24" fill="none" xmlns="http://www.w3.org/2000/svg">
<circle cx="12" cy="12" r="12" fill="white"/>
<path d="M13.165 18.8885C13.165 18.8885 11.6142 19.1394 10.5126 18.8885L9.95465 18.4233L8.55884 15.6316L9.02411 12.6074L11.8157 10.5137L14.3747 13.3053L14.6073 18.1906L13.165 18.8885Z" fill="#FFBE3D"/>
<path d="M15.7994 8.8388L14.6672 9.95545C14.6672 9.95545 14.6672 5.48886 10.8931 4C10.8931 4 10.5156 8.09437 8.62858 9.58323C6.74153 11.0721 2.96742 15.5387 10.5156 18.8886C10.5156 18.8886 6.74153 14.7942 11.6479 11.8165C11.6479 11.8165 11.2705 13.3054 13.1575 14.7942C15.0446 16.2831 13.1575 18.8886 13.1575 18.8886C13.1575 18.8886 22.2154 16.6553 15.7994 8.8388Z" fill="#FF3034"/>
</svg>
