<svg width="26" height="23" viewBox="0 0 26 23" fill="none" xmlns="http://www.w3.org/2000/svg">
<path d="M14.5278 0.619448L14.5278 0.619442C14.1939 0.460186 13.8061 0.460186 13.4722 0.619442L13.2597 0.173938L13.4722 0.619443C13.2027 0.748026 13.0419 0.977774 12.9401 1.1441L12.5136 0.883135L12.9401 1.14411C12.8377 1.31151 12.7284 1.53208 12.6086 1.77519C12.6085 1.77522 12.6085 1.77524 12.6085 1.77526L12.5906 1.81161L12.5906 1.81164L10.1273 6.80458L10.0111 7.0401L9.75123 7.0781L4.24124 7.88388L4.24105 7.8839L4.201 7.88975C3.93294 7.9289 3.68962 7.96487 3.49892 8.01075L3.49891 8.01075C3.30948 8.05632 3.04158 8.13847 2.83623 8.35534L2.83622 8.35534C2.58183 8.624 2.46213 8.99325 2.51057 9.36027C2.54968 9.65656 2.7185 9.88044 2.84519 10.0286L2.46518 10.3535L2.84519 10.0286C2.97269 10.1777 3.14865 10.3497 3.34274 10.5387L3.34288 10.5389L3.37174 10.567L3.37203 10.5673L7.35724 14.4509L7.54551 14.6344L7.50109 14.8935L6.55387 20.419L6.55385 20.4191C6.50798 20.6863 6.46674 20.9292 6.45125 21.1249L14.5278 0.619448ZM14.5278 0.619448C14.7973 0.748004 14.9579 0.977667 15.0598 1.14412L15.0599 1.1442M14.5278 0.619448L15.0599 1.1442M15.0599 1.1442C15.1623 1.31155 15.2715 1.53209 15.3914 1.77524L15.4092 1.81124L15.4094 1.81161M15.0599 1.1442L15.4094 1.81161M15.4094 1.81161L17.8728 6.80458L17.989 7.0401M15.4094 1.81161L17.989 7.0401M17.989 7.0401L18.2488 7.0781M17.989 7.0401L18.2488 7.0781M18.2488 7.0781L23.7988 7.88974L23.799 7.88975M18.2488 7.0781L23.799 7.88975M23.799 7.88975C24.0671 7.9289 24.3104 7.96487 24.501 8.01074L24.5011 8.01075M23.799 7.88975L24.5011 8.01075M24.5011 8.01075C24.6905 8.05632 24.9584 8.13846 25.1637 8.35532C25.4182 8.62404 25.5379 8.99329 25.4894 9.36021C25.4503 9.65657 25.2814 9.88048 25.1548 10.0287C25.0272 10.1778 24.8513 10.3498 24.6573 10.5387L24.6572 10.5388M24.5011 8.01075L24.6572 10.5388M24.6572 10.5388L20.6427 14.4509L20.4545 14.6344M24.6572 10.5388L20.4545 14.6344M20.4545 14.6344L20.4989 14.8935M20.4545 14.6344L20.4989 14.8935M20.4989 14.8935L21.4461 20.419L21.4461 20.4191M20.4989 14.8935L21.4461 20.4191M21.4461 20.4191C21.492 20.6861 21.5332 20.929 21.5487 21.1246C21.5641 21.3194 21.5691 21.5999 21.4264 21.8627L21.4264 21.8627C21.2499 22.188 20.936 22.4161 20.5723 22.4835L20.5722 22.4835M21.4461 20.4191L20.5722 22.4835M20.5722 22.4835C20.2786 22.538 20.0135 22.4466 19.8337 22.3719L19.8336 22.3719M20.5722 22.4835L19.8336 22.3719M19.8336 22.3719C19.6523 22.2966 19.4341 22.1823 19.1944 22.0561L19.1943 22.056M19.8336 22.3719L19.1943 22.056M19.1943 22.056L14.2328 19.4455L14 19.323M19.1943 22.056L14 19.323M14 19.323L13.7672 19.4455M14 19.323L13.7672 19.4455M13.7672 19.4455L8.80564 22.056L8.80551 22.0561M13.7672 19.4455L8.80551 22.0561M8.80551 22.0561C8.56582 22.1823 8.34765 22.2966 8.16633 22.3719L8.16619 22.3719M8.80551 22.0561L8.16619 22.3719M8.16619 22.3719C7.98643 22.4466 7.72136 22.538 7.42771 22.4835L7.33655 22.9751M8.16619 22.3719L7.33655 22.9751M7.33655 22.9751L7.4277 22.4835C7.06406 22.4161 6.75015 22.188 6.57351 21.8627M7.33655 22.9751L6.57351 21.8627M6.57351 21.8627C6.4309 21.5999 6.43585 21.3193 6.45124 21.1249L6.57351 21.8627Z" stroke="#FFAB00"/>
<mask id="mask0_0_473" style="mask-type:alpha" maskUnits="userSpaceOnUse" x="0" y="0" width="14" height="23">
<rect width="14" height="23" fill="#D9D9D9"/>
</mask>
<g mask="url(#mask0_0_473)">
<path fill-rule="evenodd" clip-rule="evenodd" d="M13.257 0.168159C13.727 -0.0560529 14.2731 -0.0560529 14.7431 0.168159C15.1494 0.361983 15.3733 0.698514 15.4863 0.883135C15.6031 1.074 15.723 1.31714 15.8399 1.55412C15.8458 1.56623 15.8519 1.57832 15.8578 1.59039L18.3212 6.58336L23.8712 7.395C24.1325 7.43315 24.4006 7.4723 24.618 7.52462C24.8284 7.57522 25.2173 7.68468 25.5268 8.01156C25.8848 8.38968 26.0533 8.90929 25.9851 9.4257C25.9261 9.87209 25.6754 10.1891 25.5348 10.3535C25.3894 10.5235 25.1953 10.7126 25.0061 10.8969L20.9917 14.809L21.9389 20.3345C21.9837 20.595 22.0295 20.8624 22.0472 21.0854C22.0642 21.3013 22.0808 21.7053 21.8659 22.1012C21.6174 22.5591 21.1755 22.8802 20.6634 22.9751C20.2207 23.0572 19.8417 22.9167 19.6419 22.8336C19.4352 22.7478 19.1953 22.6217 18.9615 22.4985L14 19.888L9.03846 22.4985C8.80463 22.6217 8.56474 22.7478 8.35807 22.8336C8.15823 22.9167 7.77922 23.0572 7.33655 22.9751C6.8245 22.8802 6.38267 22.5591 6.1341 22.1012C5.91921 21.7053 5.93572 21.3013 5.9528 21.0854C5.97047 20.8624 6.01634 20.595 6.06106 20.3345L7.00828 14.809L3.02278 10.9251C3.01317 10.9157 3.00353 10.9063 2.99387 10.8969C2.80468 10.7127 2.61057 10.5236 2.46518 10.3535C2.32452 10.1891 2.07379 9.87209 2.01487 9.4257C1.94671 8.9093 2.11511 8.38968 2.47317 8.01156C2.78268 7.68468 3.1716 7.57522 3.38196 7.52462C3.59941 7.4723 3.86749 7.43315 4.12875 7.395C4.1421 7.39305 4.15541 7.39112 4.1687 7.38917L9.67887 6.58336L12.1422 1.59039C12.1482 1.57832 12.1541 1.56623 12.1601 1.55412C12.2769 1.31714 12.3968 1.074 12.5136 0.883135C12.6266 0.698514 12.8506 0.361983 13.257 0.168159Z" fill="#FFAB00"/>
</g>
</svg>
