<svg width="98" height="32" viewBox="0 0 98 32" fill="none" xmlns="http://www.w3.org/2000/svg">
<path d="M91.5907 3.2874V0.473343H90.583V0H93.1801V0.473343H92.1725V3.2874H91.5907ZM93.7539 3.2874V0H94.6495L95.5719 2.41513L96.4747 0H97.3703V3.2874H96.7885V0.577335L95.7575 3.28651H95.3658L94.3348 0.577335V3.28651H93.753L93.7539 3.2874Z" fill="white"/>
<path d="M19.3282 3.04004H0V6.30593H7.78506V26.6319H11.5413V6.30593H19.3282V3.04004Z" fill="white"/>
<path d="M47.2537 12.6224H43.501V26.6309H47.2537V12.6224Z" fill="white"/>
<path d="M49.9743 8.60356H35.8305L35.5427 8.60714V26.6318H39.2954V11.8596L49.1585 11.8614C50.4342 11.8614 51.4714 12.8995 51.4714 14.1743L51.475 26.6309H55.2277V13.8578C55.2286 12.454 54.6817 11.1343 53.6902 10.1419C52.6978 9.14952 51.3782 8.60266 49.9743 8.60266V8.60356Z" fill="white"/>
<path d="M84.7394 8.52114L79.3309 14.5715V3.03735H75.7549V26.6283H79.3309V19.4582L89.1098 8.52204L84.7394 8.52114Z" fill="white"/>
<path d="M83.75 15.6311L81.1367 18.5536L86.0665 26.6327H90.4727L83.75 15.6311Z" fill="white"/>
<path d="M61.5912 12.6038H57.835V32.0001H61.5912V12.6038Z" fill="white"/>
<path d="M64.8888 8.60344H57.8604V11.8451H64.8861C68.0677 11.8586 70.6559 14.4476 70.6559 17.6149C70.6559 20.7822 68.0677 23.3712 64.887 23.3855H62.3535V26.6272H64.8879C69.8616 26.6111 73.9083 22.568 73.9083 17.6149C73.9083 12.6618 69.8616 8.61868 64.8879 8.60254L64.8888 8.60344Z" fill="white"/>
<path d="M28.6794 21.0243L28.5942 21.1202C27.5982 22.2363 26.1728 22.8764 24.6828 22.8764C22.2659 22.8764 20.178 21.2314 19.5917 18.9176H33.6046L33.6342 18.6629C33.6755 18.2999 33.6961 17.9592 33.6961 17.6194C33.6961 12.6493 29.652 8.6062 24.6819 8.6062C19.7118 8.6062 15.6687 12.6493 15.6687 17.6194C15.6687 22.5895 19.7118 26.6327 24.6819 26.6327C27.9299 26.6327 30.9349 24.8568 32.5244 22.0552L28.6794 21.0252V21.0243ZM24.6828 12.3616C26.8541 12.3616 28.769 13.6713 29.5633 15.6606H19.8033C20.5976 13.6722 22.5116 12.3616 24.6828 12.3616Z" fill="white"/>
</svg>
