<svg width="26" height="26" viewBox="0 0 26 26" fill="none" xmlns="http://www.w3.org/2000/svg">
<mask id="mask0_0_172" style="mask-type:alpha" maskUnits="userSpaceOnUse" x="0" y="0" width="26" height="26">
<rect width="26" height="26" fill="#D9D9D9"/>
</mask>
<g mask="url(#mask0_0_172)">
<path d="M1.625 3.25H3.52083L4.33333 6.5M4.33333 6.5L7.04167 17.3333H21.125L23.8333 6.5H4.33333Z" stroke="white" stroke-width="2" stroke-linecap="round" stroke-linejoin="round"/>
<path d="M7.04199 22.75C7.93946 22.75 8.66699 22.0225 8.66699 21.125C8.66699 20.2275 7.93946 19.5 7.04199 19.5C6.14453 19.5 5.41699 20.2275 5.41699 21.125C5.41699 22.0225 6.14453 22.75 7.04199 22.75Z" stroke="white" stroke-width="2" stroke-linecap="round" stroke-linejoin="round"/>
<path d="M21.125 22.75C22.0225 22.75 22.75 22.0225 22.75 21.125C22.75 20.2275 22.0225 19.5 21.125 19.5C20.2275 19.5 19.5 20.2275 19.5 21.125C19.5 22.0225 20.2275 22.75 21.125 22.75Z" stroke="white" stroke-width="2" stroke-linecap="round" stroke-linejoin="round"/>
<path d="M11.917 11.9165H16.2503" stroke="white" stroke-width="2" stroke-linecap="square" stroke-linejoin="round"/>
<path d="M14.083 14.0833V9.75" stroke="white" stroke-width="2" stroke-linecap="square" stroke-linejoin="round"/>
</g>
</svg>
