<svg width="33" height="33" viewBox="0 0 33 33" fill="none" xmlns="http://www.w3.org/2000/svg">
<path d="M16.5001 13.6761C14.7798 13.6761 13.3759 15.08 13.3759 16.8003C13.3759 18.5206 14.7798 19.9245 16.5001 19.9245C18.2204 19.9245 19.6243 18.5206 19.6243 16.8003C19.6243 15.08 18.2204 13.6761 16.5001 13.6761ZM25.8704 16.8003C25.8704 15.5066 25.8821 14.2245 25.8095 12.9331C25.7368 11.4331 25.3946 10.1019 24.2978 9.005C23.1985 7.90578 21.8696 7.56593 20.3696 7.49328C19.0759 7.42062 17.7939 7.43234 16.5025 7.43234C15.2087 7.43234 13.9267 7.42062 12.6353 7.49328C11.1353 7.56593 9.80402 7.90812 8.70714 9.005C7.60792 10.1042 7.26808 11.4331 7.19542 12.9331C7.12277 14.2269 7.13449 15.5089 7.13449 16.8003C7.13449 18.0917 7.12277 19.3761 7.19542 20.6675C7.26808 22.1675 7.61027 23.4988 8.70714 24.5956C9.80636 25.6948 11.1353 26.0347 12.6353 26.1073C13.929 26.18 15.211 26.1683 16.5025 26.1683C17.7962 26.1683 19.0782 26.18 20.3696 26.1073C21.8696 26.0347 23.2009 25.6925 24.2978 24.5956C25.397 23.4964 25.7368 22.1675 25.8095 20.6675C25.8845 19.3761 25.8704 18.0941 25.8704 16.8003ZM16.5001 21.6073C13.84 21.6073 11.6931 19.4605 11.6931 16.8003C11.6931 14.1402 13.84 11.9933 16.5001 11.9933C19.1603 11.9933 21.3071 14.1402 21.3071 16.8003C21.3071 19.4605 19.1603 21.6073 16.5001 21.6073ZM21.504 12.9191C20.8829 12.9191 20.3814 12.4175 20.3814 11.7964C20.3814 11.1753 20.8829 10.6738 21.504 10.6738C22.1251 10.6738 22.6267 11.1753 22.6267 11.7964C22.6269 11.9439 22.5979 12.09 22.5416 12.2263C22.4852 12.3625 22.4026 12.4864 22.2983 12.5907C22.194 12.6949 22.0701 12.7776 21.9339 12.834C21.7976 12.8903 21.6515 12.9193 21.504 12.9191Z" fill="white"/>
</svg>
