<svg width="136" height="45" viewBox="0 0 136 45" fill="none" xmlns="http://www.w3.org/2000/svg">
<path d="M127.927 4.62278V0.665617H126.52V0H130.147V0.665617H128.74V4.62278H127.927ZM130.949 4.62278V0H132.2L133.488 3.39618L134.749 0H136V4.62278H135.187V0.81311L133.747 4.62278H133.2L131.76 0.81311V4.62278H130.948H130.949Z" fill="white"/>
<path d="M26.9962 4.27637H0V8.8689H10.8736V37.4502H16.1201V8.8689H26.9962V4.27637Z" fill="white"/>
<path d="M66.0003 17.751H60.7588V37.4498H66.0003V17.751Z" fill="white"/>
<path d="M69.8005 12.0996H50.0455L49.6436 12.1046V37.4512H54.885V16.6795L68.6611 16.6821C70.4429 16.6821 71.8916 18.1419 71.8916 19.9345L71.8966 37.4512H77.1381V19.4895C77.1393 17.5153 76.3755 15.6597 74.9906 14.2641C73.6045 12.8686 71.7614 12.0996 69.8005 12.0996Z" fill="white"/>
<path d="M118.357 11.9826L110.803 20.4919V4.27246H105.808V37.4463H110.803V27.3637L124.461 11.9851L118.357 11.9826Z" fill="white"/>
<path d="M116.976 21.9805L113.326 26.0902L120.212 37.4524H126.366L116.976 21.9805Z" fill="white"/>
<path d="M86.0258 17.7246H80.7793V44.9999H86.0258V17.7246Z" fill="white"/>
<path d="M90.6313 12.0999H80.8145V16.6584H90.6275C95.0713 16.6773 98.6863 20.318 98.6863 24.7719C98.6863 29.2258 95.0714 32.8665 90.6288 32.8867H87.0902V37.4452H90.63C97.5769 37.4225 103.229 31.737 103.229 24.7719C103.229 17.8068 97.5769 12.1213 90.63 12.0986L90.6313 12.0999Z" fill="white"/>
<path d="M40.0573 29.565L39.9384 29.6999C38.5472 31.2694 36.5563 32.1695 34.4753 32.1695C31.0995 32.1695 28.1833 29.8562 27.3644 26.6025H46.9366L46.9779 26.2445C47.0355 25.7339 47.0643 25.2548 47.0643 24.7771C47.0643 17.788 41.4159 12.1025 34.474 12.1025C27.5322 12.1025 21.885 17.788 21.885 24.7771C21.885 31.7661 27.5322 37.4516 34.474 37.4516C39.0105 37.4516 43.2077 34.9542 45.4278 31.0147L40.0573 29.5663V29.565ZM34.4753 17.3834C37.508 17.3834 40.1825 19.2252 41.2919 22.0226H27.6599C28.7693 19.2264 31.4426 17.3834 34.4753 17.3834Z" fill="white"/>
</svg>
