<svg width="37" height="26" viewBox="0 0 37 26" fill="none" xmlns="http://www.w3.org/2000/svg">
<rect x="1" y="1" width="35" height="24" rx="3" fill="white"/>
<rect x="0.5" y="0.5" width="36" height="25" rx="3.5" stroke="#EEEEEE" stroke-opacity="0.2"/>
<path fill-rule="evenodd" clip-rule="evenodd" d="M10.9 16.241H9.34439C9.23794 16.241 9.1474 16.3184 9.1308 16.4234L8.50163 20.4125C8.48913 20.4912 8.55009 20.5622 8.62993 20.5622H9.37259C9.47905 20.5622 9.56958 20.4848 9.58618 20.3796L9.75588 19.3037C9.77225 19.1983 9.863 19.121 9.96924 19.121H10.4617C11.4864 19.121 12.0778 18.6251 12.2323 17.6425C12.3019 17.2126 12.2353 16.8748 12.0339 16.6382C11.8128 16.3785 11.4206 16.241 10.9 16.241ZM11.0795 17.698C10.9944 18.2562 10.5679 18.2562 10.1555 18.2562H9.92078L10.0855 17.2137C10.0952 17.1507 10.1498 17.1043 10.2135 17.1043H10.3211C10.602 17.1043 10.8671 17.1043 11.004 17.2644C11.0856 17.36 11.1106 17.5019 11.0795 17.698ZM15.5501 17.6801H14.8052C14.7417 17.6801 14.6869 17.7265 14.6771 17.7895L14.6441 17.9979L14.592 17.9224C14.4308 17.6883 14.0712 17.6101 13.7122 17.6101C12.889 17.6101 12.1859 18.2336 12.049 19.1082C11.9778 19.5444 12.079 19.9616 12.3264 20.2525C12.5535 20.52 12.8783 20.6315 13.2647 20.6315C13.928 20.6315 14.2959 20.2049 14.2959 20.2049L14.2626 20.412C14.2501 20.4911 14.3111 20.5621 14.3904 20.5621H15.0615C15.1682 20.5621 15.2582 20.4847 15.2751 20.3794L15.6777 17.8298C15.6904 17.7513 15.6297 17.6801 15.5501 17.6801ZM14.5117 19.13C14.4398 19.5556 14.102 19.8412 13.6713 19.8412C13.455 19.8412 13.282 19.7719 13.1711 19.6404C13.061 19.5099 13.0191 19.324 13.0541 19.117C13.1213 18.695 13.4647 18.4001 13.889 18.4001C14.1004 18.4001 14.2724 18.4703 14.3857 18.6029C14.4992 18.7369 14.5442 18.9239 14.5117 19.13ZM18.769 17.68H19.5176C19.6224 17.68 19.6836 17.7975 19.624 17.8835L17.1342 21.4775C17.0939 21.5357 17.0275 21.5703 16.9565 21.5703H16.2089C16.1036 21.5703 16.0421 21.4518 16.1031 21.3656L16.8783 20.2712L16.0538 17.8514C16.0253 17.7673 16.0874 17.68 16.1769 17.68H16.9124C17.008 17.68 17.0923 17.7427 17.1199 17.8342L17.5575 19.2957L18.59 17.7748C18.6304 17.7154 18.6976 17.68 18.769 17.68Z" fill="#253B80"/>
<path fill-rule="evenodd" clip-rule="evenodd" d="M26.8854 20.4125L27.5238 16.3505C27.5336 16.2874 27.5882 16.241 27.6517 16.2408H28.3704C28.4498 16.2408 28.5108 16.3119 28.4982 16.3907L27.8687 20.3795C27.8522 20.4848 27.7617 20.5622 27.6551 20.5622H27.0132C26.9338 20.5622 26.8729 20.4912 26.8854 20.4125ZM21.996 16.241H20.4401C20.3339 16.241 20.2434 16.3184 20.2267 16.4234L19.5976 20.4125C19.5851 20.4912 19.646 20.5622 19.7255 20.5622H20.5238C20.598 20.5622 20.6615 20.508 20.6731 20.4344L20.8516 19.3036C20.868 19.1983 20.9587 19.121 21.065 19.121H21.5572C22.5821 19.121 23.1734 18.6251 23.328 17.6425C23.3978 17.2126 23.3307 16.8748 23.1295 16.6381C22.9085 16.3785 22.5166 16.241 21.996 16.241ZM22.1755 17.6979C22.0906 18.2561 21.6641 18.2561 21.2515 18.2561H21.017L21.1819 17.2136C21.1917 17.1507 21.2458 17.1043 21.3097 17.1043H21.4173C21.698 17.1043 21.9633 17.1043 22.1001 17.2644C22.1818 17.3599 22.2066 17.5018 22.1755 17.6979ZM26.6457 17.68H25.9013C25.8373 17.68 25.783 17.7265 25.7734 17.7895L25.7404 17.9978L25.6881 17.9224C25.5269 17.6883 25.1675 17.61 24.8085 17.61C23.9853 17.61 23.2824 18.2335 23.1455 19.1082C23.0745 19.5444 23.1753 19.9615 23.4228 20.2525C23.6502 20.5199 23.9746 20.6314 24.3611 20.6314C25.0243 20.6314 25.3921 20.2049 25.3921 20.2049L25.359 20.4119C25.3464 20.4911 25.4074 20.562 25.4873 20.562H26.158C26.2642 20.562 26.3548 20.4847 26.3714 20.3794L26.7742 17.8297C26.7865 17.7513 26.7256 17.68 26.6457 17.68ZM25.6074 19.1299C25.5359 19.5555 25.1977 19.8412 24.7669 19.8412C24.551 19.8412 24.3777 19.7718 24.2666 19.6404C24.1565 19.5098 24.1152 19.3239 24.1498 19.117C24.2173 18.695 24.5603 18.4 24.9845 18.4C25.1961 18.4 25.368 18.4703 25.4814 18.6029C25.5953 18.7369 25.6403 18.9238 25.6074 19.1299Z" fill="#179BD7"/>
<path d="M16.6569 14.8139L16.8482 13.5992L16.4222 13.5893H14.3879L15.8016 4.62547C15.8059 4.5984 15.8203 4.57317 15.8411 4.55526C15.8619 4.53734 15.8887 4.52747 15.9165 4.52747H19.3465C20.4852 4.52747 21.271 4.76442 21.6813 5.23212C21.8736 5.45153 21.9962 5.6808 22.0554 5.93312C22.1175 6.19788 22.1187 6.51419 22.058 6.89998L22.0535 6.92813V7.17532L22.246 7.2843C22.408 7.37023 22.5366 7.4686 22.6353 7.58123C22.8 7.76882 22.9064 8.00724 22.9513 8.28991C22.9977 8.58062 22.9824 8.92655 22.9064 9.31819C22.8186 9.76871 22.6767 10.1611 22.4851 10.4821C22.3088 10.778 22.0843 11.0233 21.8177 11.2135C21.5632 11.3941 21.2608 11.5313 20.9189 11.6191C20.5875 11.7053 20.2098 11.7489 19.7955 11.7489H19.5286C19.3377 11.7489 19.1523 11.8176 19.0068 11.9409C18.8609 12.0667 18.7643 12.2385 18.7347 12.4265L18.7146 12.5358L18.3767 14.6768L18.3613 14.7554C18.3573 14.7803 18.3504 14.7928 18.3402 14.8012C18.331 14.8088 18.3178 14.8139 18.305 14.8139H16.6569Z" fill="#253B80"/>
<path d="M22.4281 6.95679C22.4179 7.02224 22.4062 7.08916 22.3931 7.1579C21.9407 9.48032 20.3932 10.2826 18.4166 10.2826H17.4103C17.1686 10.2826 16.965 10.4581 16.9273 10.6966L16.412 13.9643L16.2661 14.8905C16.2416 15.047 16.3623 15.1882 16.5202 15.1882H18.3052C18.5165 15.1882 18.696 15.0346 18.7293 14.8262L18.7469 14.7354L19.083 12.6028L19.1045 12.4859C19.1374 12.2767 19.3173 12.1231 19.5286 12.1231H19.7956C21.5249 12.1231 22.8787 11.421 23.2743 9.38927C23.4396 8.54053 23.354 7.83185 22.9167 7.33343C22.7843 7.18313 22.6201 7.05844 22.4281 6.95679Z" fill="#179BD7"/>
<path d="M21.9547 6.76825C21.8856 6.74814 21.8143 6.72985 21.7411 6.7134C21.6676 6.69732 21.5923 6.68305 21.5148 6.67062C21.2434 6.62674 20.9462 6.6059 20.6276 6.6059H17.9392C17.873 6.6059 17.8102 6.62089 17.7538 6.64795C17.6298 6.70755 17.5377 6.82494 17.5154 6.96864L16.9434 10.591L16.927 10.6967C16.9647 10.4583 17.1684 10.2828 17.4101 10.2828H18.4164C20.3929 10.2828 21.9405 9.48011 22.3928 7.15807C22.4063 7.08932 22.4176 7.0224 22.4279 6.95695C22.3134 6.89624 22.1894 6.84432 22.056 6.80006C22.0231 6.7891 21.9891 6.7785 21.9547 6.76825Z" fill="#222D65"/>
<path d="M17.5156 6.96854C17.5379 6.82483 17.6301 6.70745 17.754 6.6482C17.8107 6.62114 17.8733 6.60615 17.9394 6.60615H20.6279C20.9464 6.60615 21.2437 6.62699 21.5149 6.67088C21.5925 6.68331 21.6679 6.69757 21.7414 6.71366C21.8145 6.73012 21.8858 6.7484 21.9549 6.76851C21.9893 6.77875 22.0233 6.78935 22.0565 6.79996C22.19 6.8442 22.314 6.8965 22.4284 6.95684C22.5631 6.09859 22.4274 5.51424 21.9634 4.98511C21.4518 4.40259 20.5284 4.1532 19.3469 4.1532H15.9168C15.6755 4.1532 15.4697 4.32871 15.4323 4.5675L14.0037 13.6235C13.9755 13.8026 14.1137 13.9643 14.2943 13.9643H16.412L16.9437 10.5909L17.5156 6.96854Z" fill="#253B80"/>
</svg>
