<svg width="37" height="26" viewBox="0 0 37 26" fill="none" xmlns="http://www.w3.org/2000/svg">
<rect x="1" y="1" width="35" height="24" rx="3" fill="white"/>
<rect x="0.5" y="0.5" width="36" height="25" rx="3.5" stroke="#EEEEEE" stroke-opacity="0.2"/>
<path d="M11.8277 6.00079H17.3435C18.1135 6.00079 18.5924 6.62837 18.4127 7.40088L15.8448 18.4262C15.6635 19.1961 14.8926 19.8242 14.1221 19.8242H8.6069C7.83802 19.8242 7.35806 19.1961 7.53768 18.4262L10.1067 7.40088C10.2864 6.62837 11.0568 6.00079 11.8277 6.00079Z" fill="#E21836"/>
<path d="M16.8843 6H23.2273C23.9971 6 23.65 6.62758 23.4689 7.40008L20.9013 18.4255C20.7211 19.1953 20.7773 19.8234 20.0059 19.8234H13.6629C12.8915 19.8234 12.4141 19.1953 12.5953 18.4255L15.1627 7.40008C15.345 6.62758 16.1139 6 16.8843 6Z" fill="#00447C"/>
<path d="M22.9758 6H28.4916C29.2626 6 29.7415 6.62758 29.5604 7.40008L26.9928 18.4255C26.8116 19.1953 26.0402 19.8234 25.2693 19.8234H19.7561C18.9846 19.8234 18.5061 19.1953 18.6868 18.4255L21.2548 7.40008C21.4344 6.62758 22.2044 6 22.9758 6Z" fill="#007B84"/>
<path d="M13.268 9.53326C12.7008 9.53904 12.5333 9.53326 12.4798 9.52062C12.4592 9.61836 12.0765 11.384 12.0754 11.3855C11.993 11.7427 11.933 11.9973 11.7293 12.1617C11.6137 12.2573 11.4787 12.3034 11.3223 12.3034C11.0707 12.3034 10.9242 12.1786 10.8996 11.9417L10.8949 11.8603C10.8949 11.8603 10.9715 11.3818 10.9715 11.3792C10.9715 11.3792 11.3732 9.77015 11.4451 9.55746C11.4489 9.54536 11.45 9.53904 11.4509 9.53326C10.669 9.54012 10.5304 9.53326 10.5208 9.52062C10.5156 9.53797 10.4962 9.63772 10.4962 9.63772L10.0861 11.4512L10.0508 11.605L9.98267 12.1081C9.98267 12.2573 10.012 12.3791 10.0703 12.4821C10.2572 12.8087 10.7903 12.8576 11.0918 12.8576C11.4804 12.8576 11.8448 12.7751 12.0911 12.6244C12.5187 12.3717 12.6305 11.9769 12.7303 11.626L12.7765 11.446C12.7765 11.446 13.1903 9.77485 13.2606 9.55746C13.2633 9.54536 13.2644 9.53904 13.268 9.53326ZM14.676 10.8814C14.5763 10.8814 14.394 10.9056 14.2302 10.9858C14.1708 11.0164 14.1146 11.0516 14.0553 11.0867L14.1088 10.8935L14.0795 10.8609C13.7322 10.9312 13.6545 10.9407 13.3337 10.9858L13.3069 11.0037C13.2696 11.3125 13.2365 11.5447 13.0985 12.1517C13.0459 12.3754 12.9913 12.6013 12.9366 12.8245L12.9514 12.8528C13.2801 12.8355 13.3799 12.8355 13.6655 12.8402L13.6887 12.8151C13.725 12.6291 13.7297 12.5856 13.8101 12.209C13.8478 12.0305 13.9266 11.6381 13.9655 11.4985C14.0369 11.4654 14.1073 11.4329 14.1745 11.4329C14.3347 11.4329 14.3152 11.5725 14.309 11.6282C14.3021 11.7216 14.2438 12.0268 14.184 12.2888L14.144 12.458C14.1162 12.5829 14.0857 12.7043 14.0578 12.8281L14.0699 12.8528C14.394 12.8355 14.4928 12.8355 14.7695 12.8402L14.802 12.8151C14.852 12.5247 14.8667 12.447 14.9554 12.0241L15 11.8299C15.0867 11.4497 15.1303 11.2569 15.0647 11.0998C14.9953 10.9239 14.8289 10.8814 14.676 10.8814ZM16.2489 11.2794C16.0767 11.3125 15.9668 11.3346 15.8577 11.3488C15.7494 11.3662 15.6439 11.3819 15.4775 11.405L15.4643 11.417L15.4522 11.4265C15.4348 11.5505 15.4227 11.6576 15.3997 11.7836C15.3803 11.9139 15.3503 12.0619 15.3015 12.2746C15.2637 12.4374 15.2442 12.4941 15.2227 12.5514C15.2017 12.6087 15.1786 12.6643 15.1361 12.8245L15.1461 12.8392L15.1544 12.8528C15.3099 12.8454 15.4117 12.8402 15.5163 12.8392C15.6208 12.8355 15.729 12.8392 15.8965 12.8402L15.9112 12.8282L15.9269 12.815C15.9511 12.6707 15.9547 12.6318 15.9695 12.5614C15.9842 12.4858 16.0094 12.3812 16.0714 12.1018C16.1007 11.9706 16.1334 11.8398 16.1638 11.7059C16.1954 11.5725 16.2285 11.4412 16.2599 11.31L16.2552 11.2941L16.2489 11.2794ZM16.2526 10.7427C16.0961 10.6504 15.8214 10.6797 15.6365 10.8073C15.4522 10.9323 15.4312 11.1097 15.5872 11.2033C15.741 11.2931 16.0167 11.2664 16.2 11.1377C16.3839 11.01 16.4069 10.8341 16.2526 10.7427ZM17.199 12.8818C17.5156 12.8818 17.8401 12.7945 18.0844 12.5356C18.2724 12.3256 18.3585 12.0131 18.3884 11.8845C18.4856 11.458 18.4099 11.2589 18.3148 11.1376C18.1704 10.9528 17.9153 10.8935 17.6506 10.8935C17.4914 10.8935 17.1122 10.9092 16.8161 11.1823C16.6034 11.3792 16.5051 11.6465 16.4458 11.9028C16.386 12.1638 16.3172 12.6339 16.7494 12.8088C16.8828 12.866 17.075 12.8818 17.199 12.8818ZM17.1742 11.9223C17.2472 11.5993 17.3334 11.3283 17.5534 11.3283C17.7257 11.3283 17.7382 11.5299 17.6616 11.854C17.6479 11.9259 17.5849 12.1933 17.4998 12.3072C17.4404 12.3912 17.3701 12.4421 17.2924 12.4421C17.2693 12.4421 17.1317 12.4421 17.1296 12.2379C17.1285 12.1371 17.1491 12.0341 17.1742 11.9223ZM19.1798 12.8402L19.2046 12.8151C19.2397 12.6292 19.2454 12.5855 19.3232 12.209C19.362 12.0305 19.4424 11.6382 19.4802 11.4985C19.5517 11.4653 19.6209 11.4328 19.6903 11.4328C19.8494 11.4328 19.83 11.5724 19.8237 11.6281C19.8179 11.7217 19.7596 12.0267 19.6987 12.2888L19.6609 12.4579C19.632 12.5829 19.6005 12.7042 19.5727 12.8281L19.5848 12.8529C19.9099 12.8355 20.0049 12.8355 20.2832 12.8402L20.3168 12.8151C20.3656 12.5246 20.3788 12.4469 20.4702 12.0242L20.5138 11.8298C20.6009 11.4496 20.645 11.2569 20.5805 11.0999C20.5091 10.9239 20.3416 10.8814 20.1908 10.8814C20.091 10.8814 19.9077 10.9055 19.7449 10.9859C19.6867 11.0164 19.6283 11.0515 19.5711 11.0867L19.6209 10.8935L19.5942 10.8608C19.2471 10.9313 19.1677 10.9407 18.8474 10.9859L18.8228 11.0038C18.7839 11.3126 18.7523 11.5446 18.6142 12.1518C18.5617 12.3755 18.5071 12.6013 18.4525 12.8245L18.4672 12.8529C18.7964 12.8355 18.8947 12.8355 19.1798 12.8402ZM21.5683 12.8528C21.5887 12.7531 21.7101 12.1618 21.7112 12.1618C21.7112 12.1618 21.8146 11.7279 21.8209 11.7122C21.8209 11.7122 21.8534 11.667 21.886 11.6491H21.9338C22.3854 11.6491 22.8954 11.6491 23.2951 11.3551C23.567 11.1535 23.753 10.8557 23.8359 10.4937C23.8574 10.405 23.8733 10.2995 23.8733 10.1939C23.8733 10.0553 23.8455 9.9182 23.7651 9.81105C23.5613 9.52589 23.1554 9.52065 22.6868 9.5185C22.6854 9.5185 22.4559 9.52065 22.4559 9.52065C21.8561 9.52804 21.6156 9.52589 21.5168 9.51379C21.5085 9.55749 21.4927 9.6352 21.4927 9.6352C21.4927 9.6352 21.2779 10.6309 21.2779 10.6325C21.2779 10.6325 20.7638 12.7494 20.7396 12.8492C21.2632 12.8429 21.4779 12.8429 21.5683 12.8528ZM21.9664 11.0841C21.9664 11.0841 22.1948 10.0904 22.1937 10.0942L22.2011 10.0432L22.2043 10.0044L22.2956 10.0138C22.2956 10.0138 22.7667 10.0543 22.7777 10.0553C22.9637 10.1273 23.0403 10.3127 22.9868 10.5546C22.938 10.7758 22.7945 10.9617 22.6102 11.0515C22.4584 11.1276 22.2725 11.134 22.0809 11.134H21.957L21.9664 11.0841ZM23.3886 11.9407C23.3282 12.198 23.2588 12.668 23.6889 12.8355C23.826 12.8939 23.9489 12.9112 24.0738 12.9049C24.2057 12.8978 24.3279 12.8316 24.4411 12.7364C24.4309 12.7755 24.4207 12.8147 24.4104 12.8539L24.4299 12.8791C24.7393 12.866 24.8353 12.866 25.1705 12.8686L25.2008 12.8455C25.2498 12.5577 25.2959 12.2784 25.4231 11.728C25.485 11.4643 25.5469 11.2032 25.6105 10.9407L25.6005 10.9118C25.2545 10.9759 25.162 10.9896 24.8291 11.0368L24.8038 11.0574C24.8005 11.0841 24.797 11.1098 24.7937 11.1355C24.742 11.0519 24.667 10.9805 24.5512 10.936C24.4032 10.8778 24.0555 10.9528 23.7567 11.2249C23.5467 11.4192 23.4458 11.6853 23.3886 11.9407ZM24.1153 11.9564C24.1894 11.6392 24.2745 11.3709 24.495 11.3709C24.6344 11.3709 24.7078 11.4996 24.6929 11.719C24.6811 11.7737 24.6683 11.8314 24.6531 11.8966C24.6311 11.9908 24.6071 12.0842 24.5839 12.1778C24.5602 12.2418 24.5327 12.3022 24.5024 12.3424C24.4457 12.4228 24.3107 12.4726 24.233 12.4726C24.2109 12.4726 24.0749 12.4726 24.0702 12.2721C24.0691 12.1722 24.0897 12.0693 24.1153 11.9564ZM27.9107 10.9092L27.884 10.8787C27.5415 10.9481 27.4796 10.9591 27.165 11.0016L27.1419 11.0247C27.1408 11.0285 27.1398 11.0342 27.1382 11.0395L27.1371 11.0342C26.9029 11.5746 26.9098 11.458 26.7192 11.8834C26.7181 11.864 26.7181 11.8519 26.717 11.8313L26.6693 10.9092L26.6393 10.8787C26.2806 10.9481 26.2721 10.9591 25.9409 11.0016L25.9151 11.0247C25.9114 11.0357 25.9114 11.0478 25.9093 11.061L25.9114 11.0657C25.9528 11.2773 25.9429 11.2301 25.9844 11.5641C26.0038 11.728 26.0296 11.8928 26.049 12.0546C26.0816 12.3256 26.0999 12.4589 26.1399 12.8723C25.9161 13.2415 25.8632 13.3812 25.6478 13.7052L25.6493 13.7084L25.4976 13.9483C25.4803 13.9735 25.4645 13.9909 25.4425 13.9983C25.4183 14.0103 25.3868 14.0124 25.3431 14.0124H25.2591L25.1342 14.4278L25.5627 14.4352C25.8142 14.4341 25.9723 14.3165 26.0574 14.1584L26.3269 13.6967H26.3226L26.3509 13.6642C26.5322 13.274 27.9107 10.9092 27.9107 10.9092ZM23.3885 16.3652H23.2068L23.8795 14.1401H24.1027L24.1735 13.9108L24.1804 14.1657C24.1721 14.3233 24.296 14.463 24.6216 14.4399H24.9982L25.1278 14.0114H24.9861C24.9046 14.0114 24.8669 13.9908 24.8716 13.9467L24.8647 13.6874H24.1674V13.6887C23.9419 13.6934 23.2686 13.7104 23.1323 13.7467C22.9673 13.7892 22.7935 13.9142 22.7935 13.9142L22.8618 13.6847H22.2095L22.0736 14.1401L21.3918 16.3992H21.2595L21.1298 16.8246H22.429L22.3855 16.9664H23.0257L23.0682 16.8246H23.2478L23.3885 16.3652ZM22.8555 14.5922C22.751 14.6211 22.5566 14.7087 22.5566 14.7087L22.7295 14.1401H23.2478L23.1227 14.5544C23.1227 14.5544 22.9626 14.5638 22.8555 14.5922ZM22.8654 15.4046C22.8654 15.4046 22.7026 15.4251 22.5955 15.4493C22.4899 15.4813 22.292 15.5821 22.292 15.5821L22.4706 14.9903H22.9915L22.8654 15.4046ZM22.575 16.3705H22.0551L22.2058 15.871H22.7241L22.575 16.3705ZM23.827 14.9903H24.5764L24.4687 15.339H23.7094L23.5954 15.7203H24.2598L23.7567 16.4287C23.7215 16.4807 23.6899 16.4991 23.6548 16.5138C23.6196 16.5317 23.5733 16.5526 23.5198 16.5526H23.3355L23.2089 16.9702H23.691C23.9416 16.9702 24.0896 16.8562 24.1989 16.7066L24.5439 16.2344L24.618 16.7138C24.6337 16.8036 24.6982 16.8562 24.7419 16.8766C24.7902 16.9008 24.8401 16.9424 24.9105 16.9486C24.9861 16.9518 25.0406 16.9543 25.0769 16.9543H25.3138L25.4561 16.487H25.3626C25.309 16.487 25.2166 16.478 25.2009 16.4612C25.1852 16.4408 25.1852 16.4093 25.1767 16.3614L25.1016 15.881H24.7938L24.9288 15.7203H25.6866L25.8032 15.339H25.1016L25.2109 14.9903H25.9104L26.0401 14.5602H23.9546L23.827 14.9903ZM17.4977 16.4676L17.6726 15.8857H18.3915L18.5228 15.4529H17.8033L17.9131 15.0948H18.6163L18.7466 14.6757H16.9872L16.8597 15.0948H17.2594L17.1527 15.4529H16.752L16.6191 15.8931H17.0187L16.7856 16.6629C16.7541 16.7648 16.8004 16.8037 16.8297 16.851C16.8597 16.8971 16.89 16.9276 16.9583 16.945C17.0288 16.9607 17.0771 16.9701 17.1427 16.9701H17.9531L18.0975 16.4907L17.7382 16.54C17.6689 16.54 17.4767 16.5317 17.4977 16.4676ZM17.5802 13.6821L17.398 14.0113C17.359 14.0833 17.3239 14.1279 17.2923 14.1485C17.2645 14.1658 17.2094 14.1731 17.1295 14.1731H17.0345L16.9074 14.5943H17.2231C17.3749 14.5943 17.4914 14.5386 17.5471 14.5108C17.6069 14.4788 17.6227 14.4971 17.6689 14.4524L17.7755 14.3601H18.7613L18.8921 13.9215H18.1705L18.2965 13.6821H17.5802ZM19.0354 16.476C19.0186 16.4518 19.0307 16.4092 19.0564 16.3205L19.3258 15.4287H20.2843C20.424 15.4267 20.5248 15.4251 20.5904 15.4204C20.6608 15.413 20.7375 15.3878 20.821 15.3427C20.9071 15.2953 20.9512 15.2455 20.9885 15.1882C21.03 15.1311 21.0967 15.006 21.154 14.8132L21.4926 13.6847L20.498 13.6905C20.498 13.6905 20.1918 13.7357 20.0569 13.7856C19.9209 13.8412 19.7265 13.9966 19.7265 13.9966L19.8163 13.6873H19.2019L18.3417 16.54C18.3112 16.6508 18.2908 16.7312 18.2861 16.7795C18.2844 16.8315 18.3517 16.883 18.3952 16.9218C18.4467 16.9607 18.5228 16.9544 18.5958 16.9607C18.6726 16.9665 18.7817 16.9701 18.9325 16.9701H19.4046L19.5495 16.4807L19.1269 16.5207C19.0817 16.5207 19.049 16.4965 19.0354 16.476ZM19.4997 14.8264H20.5064L20.4424 15.027C20.4334 15.0317 20.4119 15.0171 20.3094 15.0292H19.4377L19.4997 14.8264ZM19.7013 14.1537H20.7165L20.6435 14.3953C20.6435 14.3953 20.165 14.3905 20.0884 14.4047C19.7512 14.463 19.5543 14.6432 19.5543 14.6432L19.7013 14.1537ZM20.4649 15.6987C20.4566 15.7287 20.4434 15.747 20.425 15.7607C20.4045 15.7739 20.3715 15.7786 20.3221 15.7786H20.1787L20.1872 15.5343H19.5905L19.5663 16.7285C19.5654 16.8147 19.5737 16.8646 19.6367 16.9045C19.6998 16.9544 19.8941 16.9607 20.1556 16.9607H20.5294L20.6644 16.5137L20.3389 16.5316L20.2307 16.5379C20.2159 16.5316 20.2018 16.5258 20.1861 16.5101C20.1724 16.4965 20.1492 16.5048 20.153 16.4187L20.1556 16.1125L20.4969 16.0984C20.6812 16.0984 20.76 16.0385 20.8272 15.9813C20.8914 15.9266 20.9123 15.8637 20.9365 15.7786L20.9938 15.5075H20.5247L20.4649 15.6987Z" fill="#FEFEFE"/>
</svg>
