<svg width="26" height="25" viewBox="0 0 26 25" fill="none" xmlns="http://www.w3.org/2000/svg">
<path d="M13.6389 1.14638L13.6389 1.14637C13.2905 0.980194 12.8858 0.980194 12.5374 1.14637L12.3128 0.67547L12.5374 1.14637C12.2562 1.28055 12.0884 1.52029 11.9822 1.69384L11.9822 1.69385C11.8753 1.86855 11.7613 2.09874 11.6362 2.35245L11.6175 2.39037L11.6175 2.39042L9.04704 7.60043L8.92579 7.84619L8.65464 7.88584L2.9051 8.72665L2.90489 8.72668L2.86311 8.73278L2.78771 8.21652L2.86311 8.73278C2.58339 8.77363 2.32948 8.81117 2.1305 8.85904L2.13048 8.85905C1.93282 8.9066 1.65327 8.99231 1.43899 9.21861L1.43898 9.21862C1.17353 9.49895 1.04863 9.88427 1.09918 10.2672C1.13999 10.5764 1.31615 10.81 1.44834 10.9646L1.05181 11.3037L1.44834 10.9646C1.58139 11.1202 1.765 11.2997 1.96752 11.497L1.96767 11.4971L1.99779 11.5265L1.99809 11.5268L6.15657 15.5792L6.35302 15.7707L6.30668 16.041L5.31827 21.8068L5.31825 21.8069C5.27039 22.0857 5.22736 22.3392 5.21118 22.5433C5.19512 22.7462 5.18995 23.039 5.33876 23.3132L13.6389 1.14638ZM13.6389 1.14638C13.9201 1.28053 14.0877 1.52017 14.194 1.69387L14.1941 1.69395M13.6389 1.14638L14.1941 1.69395M14.1941 1.69395C14.301 1.86858 14.415 2.0987 14.5401 2.35243L14.5587 2.38997L14.5589 2.39037M14.1941 1.69395L14.5589 2.39037M14.5589 2.39037L17.1293 7.60043L17.2505 7.84619M14.5589 2.39037L17.2505 7.84619M17.2505 7.84619L17.5217 7.88584M17.2505 7.84619L17.5217 7.88584M17.5217 7.88584L23.313 8.73277L23.3131 8.73279M17.5217 7.88584L23.3131 8.73279M23.3131 8.73279C23.5929 8.77363 23.8468 8.81117 24.0457 8.85903L24.0458 8.85905M23.3131 8.73279L24.0458 8.85905M24.0458 8.85905C24.2434 8.9066 24.523 8.99231 24.7373 9.21859C25.0028 9.49899 25.1277 9.88431 25.0771 10.2672C25.0363 10.5763 24.8602 10.8099 24.728 10.9645C24.5949 11.1202 24.4113 11.2997 24.2088 11.4969L24.2087 11.497M24.0458 8.85905L24.2087 11.497M24.2087 11.497L20.0197 15.5792L19.8232 15.7707M24.2087 11.497L19.8232 15.7707M19.8232 15.7707L19.8696 16.041M19.8232 15.7707L19.8696 16.041M19.8696 16.041L20.858 21.8068L20.858 21.8069M19.8696 16.041L20.858 21.8069M20.858 21.8069C20.9059 22.0857 20.9489 22.3392 20.9651 22.5434C20.9811 22.7466 20.9862 23.0392 20.8375 23.3132L20.8374 23.3133C20.6532 23.6527 20.3257 23.8907 19.9462 23.9611L19.9461 23.9611M20.858 21.8069L19.9461 23.9611M19.9461 23.9611C19.6397 24.0179 19.3631 23.9226 19.1755 23.8446L19.1754 23.8446M19.9461 23.9611L19.1754 23.8446M19.1754 23.8446C18.9862 23.766 18.7585 23.6468 18.5084 23.5151L18.5083 23.515M19.1754 23.8446L18.5083 23.515M18.5083 23.515L13.3311 20.791L13.0881 20.6631M18.5083 23.515L13.0881 20.6631M13.0881 20.6631L12.8452 20.791M13.0881 20.6631L12.8452 20.791M12.8452 20.791L7.66795 23.515L7.6678 23.5151M12.8452 20.791L7.6678 23.5151M7.6678 23.5151C7.4177 23.6468 7.19004 23.766 7.00084 23.8446L7.0007 23.8446M7.6678 23.5151L7.0007 23.8446M7.0007 23.8446C6.81312 23.9226 6.53652 24.0179 6.2301 23.9611M7.0007 23.8446L6.2301 23.9611M6.2301 23.9611C5.85067 23.8907 5.52313 23.6527 5.3388 23.3133L6.2301 23.9611Z" stroke="#FFAB00" stroke-width="1.04348"/>
<mask id="mask0_0_624" style="mask-type:alpha" maskUnits="userSpaceOnUse" x="1" y="1" width="13" height="23">
<rect x="1.09863" y="1.25" width="12" height="22.5" fill="#D9D9D9"/>
</mask>
<g mask="url(#mask0_0_624)">
<path fill-rule="evenodd" clip-rule="evenodd" d="M12.3128 0.67547C12.8032 0.44151 13.3731 0.44151 13.8635 0.67547C14.2875 0.877721 14.5212 1.22888 14.6391 1.42153C14.761 1.6207 14.8861 1.87441 15.008 2.1217C15.0142 2.13433 15.0205 2.14694 15.0267 2.15953L17.5972 7.36959L23.3885 8.21652C23.6612 8.25633 23.941 8.29718 24.1678 8.35178C24.3873 8.40458 24.7932 8.5188 25.1161 8.85989C25.4897 9.25445 25.6655 9.79665 25.5943 10.3355C25.5328 10.8013 25.2712 11.1321 25.1245 11.3037C24.9727 11.4811 24.7702 11.6784 24.5728 11.8707L20.3838 15.9529L21.3722 21.7186C21.4189 21.9904 21.4668 22.2694 21.4852 22.5022C21.503 22.7274 21.5202 23.149 21.296 23.5622C21.0367 24.0399 20.5757 24.375 20.0412 24.4741C19.5793 24.5597 19.1839 24.4131 18.9753 24.3264C18.7597 24.2369 18.5094 24.1052 18.2654 23.9767L13.0881 21.2527L7.91089 23.9767C7.66688 24.1052 7.41657 24.2369 7.20092 24.3264C6.99239 24.4131 6.59689 24.5597 6.13498 24.4741C5.60067 24.375 5.13963 24.0399 4.88025 23.5622C4.65602 23.149 4.67324 22.7274 4.69107 22.5022C4.70951 22.2694 4.75737 21.9904 4.80404 21.7186L5.79244 15.9529L1.63366 11.9001C1.62363 11.8903 1.61357 11.8805 1.60349 11.8707C1.40607 11.6784 1.20352 11.4811 1.05181 11.3037C0.905038 11.1321 0.64341 10.8013 0.581926 10.3355C0.510801 9.79666 0.686517 9.25445 1.06014 8.85989C1.38311 8.5188 1.78895 8.40458 2.00845 8.35178C2.23536 8.29718 2.51509 8.25633 2.78771 8.21652C2.80164 8.21449 2.81553 8.21247 2.82939 8.21044L8.57915 7.36959L11.1496 2.15953C11.1558 2.14694 11.162 2.13433 11.1682 2.1217C11.2902 1.87441 11.4153 1.6207 11.5372 1.42153C11.655 1.22888 11.8888 0.877721 12.3128 0.67547Z" fill="#FFAB00"/>
</g>
</svg>
