<svg width="20" height="20" viewBox="0 0 20 20" fill="none" xmlns="http://www.w3.org/2000/svg">
<circle opacity="0.1" cx="10" cy="9.99951" r="10" fill="white"/>
<path d="M15.6581 7.03255C15.1363 5.96379 14.3888 5.11218 13.4157 4.47772C12.407 3.82031 11.2987 3.49161 10.0905 3.49161C9.26515 3.49161 8.47383 3.64969 7.71654 3.96586C6.98513 4.27098 6.33283 4.70294 5.75964 5.26176C5.69803 5.31908 5.6483 5.38836 5.61338 5.46552C5.57845 5.54268 5.55903 5.62618 5.55625 5.71109C5.55348 5.796 5.56741 5.88062 5.59723 5.95998C5.62704 6.03933 5.67214 6.11182 5.72987 6.17318C5.7876 6.23453 5.8568 6.28352 5.9334 6.31727C6.01 6.35101 6.09245 6.36883 6.17591 6.36967C6.25937 6.37052 6.34215 6.35437 6.41939 6.32217C6.49663 6.28998 6.56677 6.2424 6.62568 6.18222C7.59422 5.23839 8.74895 4.76648 10.0899 4.76648C11.0542 4.76648 11.9376 5.02782 12.74 5.55052C13.5186 6.05877 14.1174 6.74188 14.5366 7.59987C14.6135 7.74586 14.7432 7.85563 14.8983 7.90594C15.0533 7.95625 15.2215 7.94314 15.3672 7.86939C15.5129 7.79564 15.6247 7.66704 15.6789 7.51083C15.7331 7.35463 15.7254 7.18309 15.6575 7.03255H15.6581Z" fill="white"/>
<path d="M15.714 4.76153C15.714 4.59314 15.6473 4.43164 15.5286 4.31257C15.41 4.1935 15.249 4.12661 15.0812 4.12661C14.9134 4.12661 14.7524 4.1935 14.6338 4.31257C14.5151 4.43164 14.4484 4.59314 14.4484 4.76153V7.30121C14.4484 7.4696 14.5151 7.6311 14.6338 7.75017C14.7524 7.86924 14.9134 7.93613 15.0812 7.93613C15.249 7.93613 15.41 7.86924 15.5286 7.75017C15.6473 7.6311 15.714 7.4696 15.714 7.30121V4.76153ZM4.28604 12.3806C4.28604 12.4784 4.30882 12.5755 4.35248 12.6631C4.8798 13.7277 5.63491 14.5759 6.61782 15.2079C7.63701 15.8627 8.75724 16.1901 9.97849 16.1901C10.8618 16.1901 11.7051 16.0142 12.5083 15.6625C13.2837 15.323 13.965 14.8453 14.5522 14.2295C14.6097 14.1692 14.6547 14.0982 14.6848 14.0205C14.715 13.9428 14.7295 13.8599 14.7277 13.7765C14.7259 13.6931 14.7077 13.6109 14.6742 13.5346C14.6407 13.4583 14.5926 13.3893 14.5326 13.3317C14.4725 13.274 14.4018 13.2288 14.3243 13.1986C14.2469 13.1684 14.1642 13.1538 14.0811 13.1556C13.9981 13.1574 13.9161 13.1756 13.8401 13.2092C13.764 13.2428 13.6953 13.2911 13.6378 13.3514C13.1675 13.8445 12.6222 14.2269 12.0021 14.4987C11.3601 14.7797 10.6857 14.9203 9.97913 14.9203C9.00465 14.9203 8.11201 14.6599 7.30122 14.1393C6.51447 13.6331 5.90953 12.9526 5.48642 12.098C5.42339 11.969 5.31857 11.8651 5.18911 11.8036C5.05965 11.7421 4.91321 11.7264 4.77373 11.7592C4.63426 11.792 4.51001 11.8714 4.4213 11.9842C4.3326 12.0971 4.28469 12.2368 4.28541 12.3806H4.28604Z" fill="white"/>
<path d="M5.55524 12.3811C5.55525 12.2977 5.53884 12.2152 5.50694 12.1381C5.47504 12.0611 5.42827 11.9911 5.36931 11.9321C5.31035 11.8731 5.24036 11.8264 5.16332 11.7945C5.08628 11.7625 5.00371 11.7461 4.92032 11.7461C4.83693 11.7461 4.75436 11.7625 4.67732 11.7945C4.60029 11.8264 4.53029 11.8731 4.47133 11.9321C4.41237 11.9911 4.3656 12.0611 4.3337 12.1381C4.3018 12.2152 4.28539 12.2977 4.2854 12.3811V14.9208C4.28543 15.0892 4.35233 15.2507 4.4714 15.3697C4.59047 15.4888 4.75195 15.5556 4.92032 15.5556C5.0887 15.5556 5.25018 15.4888 5.36924 15.3697C5.48831 15.2507 5.55522 15.0892 5.55524 14.9208V12.3811Z" fill="white"/>
<path d="M12.0956 7.30202C11.6414 7.3025 11.206 7.47462 10.8848 7.78061C10.5636 8.08661 10.383 8.5015 10.3825 8.93425V10.748C10.383 11.1807 10.5636 11.5956 10.8848 11.9016C11.206 12.2076 11.6414 12.3797 12.0956 12.3802C12.5498 12.3797 12.9853 12.2076 13.3064 11.9016C13.6276 11.5956 13.8082 11.1807 13.8087 10.748V8.93365C13.8082 8.5009 13.6276 8.08601 13.3064 7.78001C12.9853 7.47402 12.5498 7.3019 12.0956 7.30142V7.30202ZM8.00737 7.3128C7.30955 7.3128 6.70288 7.56917 6.32568 7.99864C6.28346 8.04399 6.25122 8.09694 6.23085 8.15437C6.21049 8.2118 6.20241 8.27254 6.20711 8.33299C6.21181 8.39344 6.22918 8.45238 6.2582 8.50633C6.28722 8.56027 6.32729 8.60813 6.37606 8.64706C6.42483 8.68599 6.48129 8.71521 6.54211 8.733C6.60294 8.75078 6.66689 8.75676 6.73018 8.75059C6.79347 8.74441 6.85482 8.72621 6.9106 8.69706C6.96638 8.6679 7.01546 8.62839 7.05494 8.58085C7.23034 8.38199 7.55096 8.21906 8.00737 8.21906C8.19409 8.21906 8.38458 8.27357 8.50214 8.36162C8.6197 8.44967 8.69954 8.55329 8.69954 8.81685C8.69954 9.08639 8.48579 9.3745 7.94702 9.38947C7.93633 9.38947 7.9269 9.38588 7.91559 9.38588C7.78937 9.38588 7.66832 9.43365 7.57907 9.51868C7.48982 9.60372 7.43968 9.71905 7.43968 9.83931V9.85308C7.43968 10.1035 7.65343 10.3065 7.91559 10.3065C7.9269 10.3065 7.9357 10.3005 7.94702 10.3005C8.24375 10.3065 8.49711 10.376 8.64296 10.4754C8.79573 10.5796 8.86111 10.6791 8.86111 10.8761C8.86111 11.1367 8.78755 11.2277 8.6549 11.3188C8.52163 11.4092 8.28525 11.4739 8.00737 11.4739C7.62703 11.4739 7.15112 11.2451 7.05745 11.1175C7.02179 11.0682 6.97623 11.0261 6.9234 10.9937C6.87057 10.9613 6.81153 10.9391 6.74967 10.9286C6.68781 10.918 6.62437 10.9192 6.563 10.9321C6.50163 10.945 6.44355 10.9694 6.39212 11.0038C6.34069 11.0382 6.29691 11.082 6.26333 11.1326C6.22975 11.1832 6.20703 11.2396 6.19646 11.2987C6.1859 11.3577 6.18772 11.4181 6.2018 11.4765C6.21589 11.5348 6.24197 11.5899 6.27853 11.6386C6.66642 12.1652 7.34413 12.3808 8.008 12.3808C8.42418 12.3808 8.85105 12.2999 9.20876 12.0555C9.5671 11.8112 9.81229 11.3769 9.81229 10.8761C9.81229 10.4197 9.56899 10.0196 9.22511 9.76923C9.48412 9.50508 9.65135 9.17444 9.65135 8.81685C9.65135 8.31849 9.42125 7.89621 9.09183 7.64883C8.76178 7.40265 8.36886 7.3122 8.00737 7.3128ZM12.0956 8.20888C12.5149 8.20888 12.8563 8.53413 12.8563 8.93365V10.748C12.8483 10.9352 12.7646 11.1123 12.6227 11.2421C12.4808 11.372 12.2917 11.4444 12.095 11.4444C11.8983 11.4444 11.7092 11.372 11.5673 11.2421C11.4254 11.1123 11.3417 10.9352 11.3337 10.748V8.93365C11.3337 8.53413 11.6757 8.20828 12.0956 8.20828V8.20888Z" fill="white"/>
</svg>
