<svg width="20" height="20" viewBox="0 0 20 20" fill="none" xmlns="http://www.w3.org/2000/svg">
<circle opacity="0.1" cx="10" cy="10" r="10" fill="white"/>
<path d="M15.4241 10.3952C15.4241 10.3952 14.8716 9.51603 14.2579 9.51603C13.6447 9.51603 13.0005 10.4249 13.0005 10.4249C13.0005 10.4249 12.4188 9.49969 11.7732 9.51693C11.306 9.5294 10.947 9.91101 10.7339 10.3344V13.8069C10.6912 14.2841 10.6593 14.4565 10.5762 14.6955C10.4889 14.9469 10.3195 15.145 10.1605 15.2814C9.97266 15.4424 9.77175 15.5629 9.55823 15.6313C9.34427 15.6997 9.16289 15.7142 8.88131 15.7142C8.62519 15.7142 8.39596 15.6764 8.1931 15.6013C7.99069 15.5262 7.81981 15.4186 7.68039 15.2791C7.54099 15.1396 7.43401 14.9718 7.35944 14.7748C7.28488 14.5777 7.24736 14.2618 7.24736 14.0184V13.6837H8.22506C8.22506 13.9982 8.22273 14.5061 8.34083 14.6663C8.45939 14.826 8.63972 14.8972 8.88131 14.9061C9.10103 14.9142 9.27577 14.8033 9.27577 14.8033C9.27577 14.8033 9.43237 14.6687 9.47269 14.5511C9.50783 14.4487 9.51952 14.2681 9.51952 14.2681C9.51952 14.2681 9.54685 13.9901 9.54685 13.8313V10.2786C9.32778 10.0384 8.97153 9.48827 8.45986 9.50117C7.74141 9.51928 7.14084 10.3952 7.14084 10.3952C7.14084 10.3952 6.40444 9.50117 5.91352 9.50117C5.42258 9.50117 4.71723 10.3952 4.71723 10.3952C4.71723 10.3952 4.50235 5.71596 9.38059 5.23904L10.086 4.28564L10.7607 5.23904C15.7923 5.53735 15.4241 10.3952 15.4241 10.3952Z" fill="white"/>
</svg>
