<svg width="20" height="20" viewBox="0 0 20 20" fill="none" xmlns="http://www.w3.org/2000/svg">
<circle opacity="0.1" cx="10" cy="10" r="10" fill="white"/>
<path d="M14.3478 12.9989H14.1726C14.1222 12.6352 13.9471 12.3025 13.6794 12.062C13.4117 11.8214 13.0694 11.6891 12.7152 11.6892C12.3611 11.6892 12.0188 11.8215 11.7511 12.0621C11.4834 12.3026 11.3082 12.6352 11.2576 12.9989H9.16087C9.11044 12.6351 8.93528 12.3025 8.66754 12.0619C8.3998 11.8213 8.05743 11.689 7.70326 11.6892C7.34917 11.6892 7.00692 11.8216 6.73925 12.0621C6.47159 12.3027 6.29642 12.6352 6.24587 12.9989H5.86957C5.75537 12.9989 5.6423 12.9755 5.5368 12.9302C5.4313 12.8849 5.33544 12.8184 5.25469 12.7346C5.17394 12.6508 5.10989 12.5514 5.06619 12.4419C5.02249 12.3324 5 12.2151 5 12.0966V6.61654C5 6.49806 5.02249 6.38073 5.06619 6.27126C5.10989 6.1618 5.17394 6.06233 5.25469 5.97855C5.33544 5.89477 5.4313 5.82831 5.5368 5.78297C5.6423 5.73762 5.75537 5.71429 5.86957 5.71429H10.8054C11.0361 5.71429 11.2572 5.80935 11.4203 5.97855C11.5834 6.14776 11.675 6.37725 11.675 6.61654V7.42835L13.0326 7.43354C13.187 7.43417 13.3385 7.47747 13.4715 7.55897C13.6044 7.64048 13.7141 7.75725 13.7891 7.89729L14.6824 9.56308C14.6824 9.56308 15 10.0221 15 10.4292V12.3222C15 12.5017 14.9313 12.6738 14.809 12.8007C14.6867 12.9276 14.5208 12.9989 14.3478 12.9989ZM14.1439 10.0638L13.2687 8.38654C13.2687 8.38654 13.1759 8.28481 13.1089 8.28481H12.0915V10.4277H14.3054C14.305 10.3205 14.2211 10.1818 14.1439 10.0638ZM7.70304 12.1424C8.27674 12.142 8.74217 12.6217 8.74283 13.2138C8.74196 13.8064 8.27674 14.2862 7.70304 14.2857C7.12957 14.2862 6.66391 13.8064 6.66326 13.2141C6.66348 12.9294 6.77304 12.6567 6.96826 12.4557C7.1636 12.2545 7.4278 12.1418 7.70304 12.1422V12.1424ZM12.715 12.1424C13.2885 12.142 13.7541 12.6217 13.7546 13.2138C13.7539 13.8064 13.2885 14.2862 12.715 14.2857C12.1413 14.2862 11.6759 13.8064 11.6752 13.2141C11.6761 12.6217 12.1413 12.142 12.715 12.1424Z" fill="white"/>
</svg>
