<svg width="27" height="11" viewBox="0 0 27 11" fill="none" xmlns="http://www.w3.org/2000/svg">
<path d="M15.7044 3.06124C15.7044 4.60134 14.6247 5.70075 13.1158 5.70075H11.6943C11.6786 5.70075 11.663 5.70385 11.6485 5.70987C11.6341 5.7159 11.6209 5.72472 11.6098 5.73585C11.5987 5.74697 11.59 5.76017 11.584 5.77469C11.5781 5.78922 11.5751 5.80477 11.5751 5.82046V7.84463C11.5751 7.87628 11.5626 7.90664 11.5403 7.92908C11.5179 7.95151 11.4876 7.96419 11.456 7.96434H10.4613C10.4376 7.96423 10.4145 7.95715 10.3949 7.94398C10.3752 7.93081 10.3599 7.91215 10.3508 7.89032C10.3448 7.87603 10.3417 7.8607 10.3415 7.84521V0.540865C10.3415 0.525171 10.3445 0.509617 10.3504 0.495096C10.3564 0.480575 10.3652 0.467373 10.3762 0.456249C10.3873 0.445125 10.4005 0.436297 10.415 0.430274C10.4295 0.424251 10.445 0.42115 10.4607 0.421151H13.1222C14.6247 0.419416 15.7044 1.51883 15.7044 3.06124ZM14.4639 3.06124C14.4639 2.17581 13.8601 1.52866 13.0412 1.52866H11.6943C11.6786 1.52866 11.663 1.53176 11.6485 1.53778C11.6341 1.5438 11.6209 1.55263 11.6098 1.56376C11.5987 1.57488 11.59 1.58808 11.584 1.6026C11.5781 1.61712 11.5751 1.63268 11.5751 1.64837V4.46716C11.5751 4.49876 11.5877 4.52907 11.61 4.55141C11.6324 4.57375 11.6627 4.5863 11.6943 4.5863H13.0412C13.8601 4.59209 14.4639 3.94435 14.4639 3.06124ZM15.9994 6.56304C15.9891 6.32684 16.0379 6.0918 16.1416 5.87929C16.2452 5.66678 16.4003 5.48354 16.5927 5.34623C16.9808 5.05417 17.5875 4.90323 18.4781 4.872L19.4266 4.83845V4.55854C19.4266 3.99756 19.0507 3.76044 18.4469 3.76044C17.8431 3.76044 17.4602 3.97443 17.3723 4.32432C17.3652 4.34892 17.35 4.37045 17.3293 4.38553C17.3086 4.4006 17.2834 4.40836 17.2578 4.4076H16.3209C16.3037 4.40807 16.2865 4.40473 16.2707 4.39782C16.2549 4.39091 16.2408 4.38061 16.2294 4.36763C16.2181 4.35465 16.2097 4.33933 16.2049 4.32274C16.2001 4.30616 16.1991 4.28873 16.2018 4.27169C16.3406 3.44236 17.0305 2.81198 18.4897 2.81198C20.0419 2.81198 20.6023 3.53489 20.6023 4.91479V7.84463C20.602 7.87658 20.5891 7.90712 20.5663 7.92955C20.5436 7.95199 20.5128 7.9645 20.4809 7.96434H19.5365C19.5049 7.96426 19.4745 7.9518 19.452 7.92964C19.441 7.91854 19.4322 7.90537 19.4263 7.89088C19.4203 7.87639 19.4173 7.86087 19.4173 7.84521V7.62602C19.4177 7.6079 19.4125 7.59011 19.4025 7.57499C19.3926 7.55986 19.3782 7.54811 19.3615 7.54128C19.3447 7.53446 19.3262 7.53288 19.3085 7.53675C19.2908 7.54062 19.2747 7.54977 19.2623 7.56298C18.9789 7.87123 18.5215 8.09389 17.7887 8.09389C16.7107 8.09389 15.9994 7.53291 15.9994 6.56304ZM19.4266 5.92803V5.70075L18.1982 5.76552C17.551 5.79849 17.1745 6.06741 17.1745 6.52025C17.1745 6.92971 17.5198 7.15641 18.123 7.15641C18.9425 7.15641 19.4266 6.71399 19.4266 5.92803ZM21.5508 10.1782V9.32921C21.551 9.3114 21.5551 9.29386 21.5628 9.27781C21.5705 9.26177 21.5817 9.24761 21.5955 9.23635C21.6092 9.2251 21.6253 9.21701 21.6426 9.21267C21.6599 9.20833 21.6779 9.20784 21.6954 9.21123C21.84 9.23841 21.9874 9.25229 22.1349 9.25287C22.3884 9.2652 22.6388 9.19212 22.8459 9.04533C23.0529 8.89853 23.2048 8.68652 23.2771 8.4432L23.3384 8.24773C23.3473 8.22147 23.3473 8.19301 23.3384 8.16676L21.3703 3.11213C21.3632 3.09381 21.3607 3.07403 21.3629 3.0545C21.3651 3.03497 21.372 3.01626 21.3831 3C21.3941 2.98373 21.4089 2.97038 21.4262 2.96111C21.4436 2.95183 21.4629 2.94689 21.4825 2.94673H22.4368C22.4612 2.94698 22.4849 2.95456 22.5049 2.96848C22.5249 2.98241 22.5403 3.00203 22.549 3.0248L23.8855 6.58965C23.8939 6.61333 23.9094 6.63383 23.9299 6.64834C23.9504 6.66284 23.9749 6.67063 24 6.67063C24.0251 6.67063 24.0496 6.66284 24.0702 6.64834C24.0907 6.63383 24.1062 6.61333 24.1145 6.58965L25.2753 3.03464C25.2833 3.01034 25.2988 2.9892 25.3196 2.97424C25.3404 2.95929 25.3653 2.95128 25.3909 2.95136H26.3781C26.3979 2.95148 26.4174 2.95638 26.4348 2.96565C26.4523 2.97491 26.4673 2.98827 26.4785 3.00457C26.4897 3.02088 26.4967 3.03965 26.4991 3.05929C26.5015 3.07892 26.4991 3.09884 26.4921 3.11734L24.3869 8.73063C23.9023 10.0354 23.0712 10.369 22.1563 10.369C21.9828 10.3737 21.8093 10.3529 21.6416 10.3072C21.6137 10.2998 21.5893 10.2828 21.5727 10.2592C21.5561 10.2356 21.5483 10.2069 21.5508 10.1782ZM3.94924 0.000124541C2.69546 -0.00880814 1.48593 0.463082 0.569461 1.31872C0.530269 1.35462 0.505836 1.40381 0.500918 1.45673C0.496001 1.50964 0.510951 1.5625 0.542858 1.605L1.1102 2.37996C1.12859 2.40577 1.15242 2.42722 1.17999 2.44283C1.20757 2.45843 1.23823 2.46781 1.26982 2.47029C1.30141 2.47277 1.33316 2.4683 1.36284 2.45719C1.39251 2.44608 1.41939 2.4286 1.44159 2.40599C1.77113 2.07653 2.16303 1.81606 2.59438 1.63981C3.02574 1.46355 3.48791 1.37504 3.95386 1.37945C5.89937 1.37945 6.91551 2.84379 6.91551 4.28962C6.91551 5.86153 5.8479 6.9673 4.31359 6.98927C3.12801 6.98927 2.23448 6.20332 2.23448 5.16521C2.23572 4.90295 2.29513 4.64424 2.40844 4.40772C2.52175 4.1712 2.68613 3.96277 2.88973 3.79746C2.93277 3.7615 2.95998 3.71009 2.9655 3.65428C2.97101 3.59847 2.9544 3.54272 2.91923 3.49904L2.32297 2.74605C2.30493 2.72328 2.28252 2.70435 2.25706 2.69038C2.23159 2.67641 2.20358 2.66769 2.17469 2.66472C2.14579 2.66176 2.1166 2.66461 2.08882 2.67312C2.06105 2.68162 2.03526 2.6956 2.01298 2.71424C1.64679 3.00927 1.35128 3.38253 1.14813 3.80664C0.944983 4.23075 0.839344 4.69496 0.838964 5.16521C0.838964 6.95226 2.35767 8.35414 4.30318 8.36571H4.3292C6.63906 8.33563 8.30929 6.62492 8.30929 4.28673C8.30929 2.21051 6.78018 0.000124541 3.94982 0.000124541H3.94924Z" fill="white"/>
</svg>
