<svg width="26" height="25" viewBox="0 0 26 25" fill="none" xmlns="http://www.w3.org/2000/svg">
<path fill-rule="evenodd" clip-rule="evenodd" d="M12.5286 0.67547C13.0191 0.44151 13.5889 0.44151 14.0793 0.67547C14.5034 0.877721 14.737 1.22888 14.8549 1.42153C14.9768 1.6207 15.1019 1.87441 15.2238 2.1217C15.23 2.13433 15.2364 2.14694 15.2426 2.15953L17.813 7.36959L23.6043 8.21652C23.877 8.25633 24.1568 8.29718 24.3836 8.35178C24.6031 8.40458 25.009 8.5188 25.332 8.85989C25.7055 9.25445 25.8814 9.79665 25.8102 10.3355C25.7486 10.8013 25.487 11.1321 25.3403 11.3037C25.1886 11.4811 24.9861 11.6784 24.7886 11.8707L20.5997 15.9529L21.5881 21.7186C21.6347 21.9904 21.6826 22.2694 21.701 22.5022C21.7188 22.7274 21.7361 23.149 21.5118 23.5622C21.2525 24.0399 20.7915 24.375 20.2571 24.4741C19.7952 24.5597 19.3997 24.4131 19.1911 24.3264C18.9755 24.2369 18.7252 24.1052 18.4812 23.9767L13.304 21.2527L8.12671 23.9767C7.88271 24.1052 7.63239 24.2369 7.41674 24.3264C7.20821 24.4131 6.81271 24.5597 6.3508 24.4741C5.81649 24.375 5.35545 24.0399 5.09607 23.5622C4.87184 23.149 4.88906 22.7274 4.90689 22.5022C4.92533 22.2694 4.97319 21.9904 5.01986 21.7186L6.00826 15.9529L1.84948 11.9001C1.83945 11.8903 1.82939 11.8805 1.81931 11.8707C1.62189 11.6784 1.41934 11.4811 1.26763 11.3037C1.12086 11.1321 0.85923 10.8013 0.797747 10.3355C0.726622 9.79666 0.902337 9.25445 1.27596 8.85989C1.59893 8.5188 2.00477 8.40458 2.22427 8.35178C2.45118 8.29718 2.73091 8.25633 3.00353 8.21652C3.01746 8.21449 3.03135 8.21247 3.04521 8.21044L8.79497 7.36959L11.3654 2.15953C11.3716 2.14694 11.3778 2.13433 11.3841 2.1217C11.506 1.87441 11.6311 1.6207 11.753 1.42153C11.8709 1.22888 12.1046 0.877721 12.5286 0.67547Z" fill="#FFAB00"/>
</svg>
