<svg width="26" height="25" viewBox="0 0 26 25" fill="none" xmlns="http://www.w3.org/2000/svg">
<path fill-rule="evenodd" clip-rule="evenodd" d="M11.9192 0.67547C12.4097 0.44151 12.9795 0.44151 13.47 0.67547C13.894 0.877721 14.1276 1.22888 14.2455 1.42153C14.3674 1.6207 14.4925 1.87441 14.6145 2.1217C14.6207 2.13433 14.627 2.14694 14.6332 2.15953L17.2036 7.36959L22.995 8.21652C23.2677 8.25633 23.5474 8.29718 23.7743 8.35178C23.9937 8.40458 24.3996 8.5188 24.7226 8.85988C25.0962 9.25445 25.272 9.79665 25.2008 10.3355C25.1392 10.8013 24.8777 11.1321 24.7309 11.3037C24.5792 11.4811 24.3767 11.6784 24.1792 11.8707L19.9903 15.9529L20.9787 21.7186C21.0254 21.9904 21.0732 22.2694 21.0917 22.5022C21.1094 22.7274 21.1267 23.149 20.9024 23.5622C20.6432 24.0399 20.1821 24.375 19.6477 24.4741C19.1858 24.5597 18.7903 24.4131 18.5818 24.3264C18.3661 24.2369 18.1158 24.1052 17.8718 23.9767L12.6946 21.2527L7.51733 23.9767C7.27333 24.1052 7.02302 24.2369 6.80736 24.3264C6.59883 24.4131 6.20334 24.5597 5.74142 24.4741C5.20711 24.375 4.74607 24.0399 4.48669 23.5622C4.26247 23.149 4.27969 22.7274 4.29752 22.5022C4.31595 22.2694 4.36381 21.9904 4.41048 21.7186L5.39888 15.9529L1.2401 11.9001C1.23007 11.8903 1.22001 11.8805 1.20994 11.8707C1.01252 11.6784 0.809964 11.4811 0.658259 11.3037C0.511483 11.1321 0.249855 10.8013 0.188372 10.3355C0.117247 9.79666 0.292962 9.25445 0.666589 8.85988C0.989556 8.5188 1.3954 8.40458 1.6149 8.35178C1.8418 8.29718 2.12153 8.25633 2.39416 8.21652C2.40808 8.21449 2.42198 8.21247 2.43584 8.21044L8.18559 7.36959L10.756 2.15953C10.7622 2.14694 10.7684 2.13433 10.7747 2.1217C10.8966 1.87441 11.0217 1.6207 11.1436 1.42153C11.2615 1.22888 11.4953 0.877721 11.9192 0.67547Z" fill="#FFAB00"/>
</svg>
