<svg width="18" height="17" viewBox="0 0 18 17" fill="none" xmlns="http://www.w3.org/2000/svg">
<path fill-rule="evenodd" clip-rule="evenodd" d="M8.61315 0.61698C8.94012 0.461007 9.32 0.461007 9.64697 0.61698C9.92964 0.751814 10.0854 0.985923 10.164 1.11435C10.2453 1.24713 10.3287 1.41627 10.41 1.58113C10.4141 1.58955 10.4183 1.59796 10.4225 1.60636L12.1361 5.07973L15.997 5.64435C16.1788 5.67089 16.3653 5.69812 16.5165 5.73452C16.6628 5.76972 16.9334 5.84587 17.1487 6.07326C17.3978 6.3363 17.515 6.69776 17.4675 7.05701C17.4265 7.36754 17.2521 7.58804 17.1543 7.70246C17.0531 7.82072 16.9181 7.95225 16.7865 8.08044L13.9938 10.8019L14.6528 14.6457C14.6839 14.8269 14.7158 15.013 14.7281 15.1681C14.7399 15.3183 14.7515 15.5994 14.6019 15.8748C14.4291 16.1933 14.1217 16.4167 13.7655 16.4827C13.4575 16.5398 13.1939 16.442 13.0548 16.3843C12.9111 16.3246 12.7442 16.2368 12.5815 16.1512L9.13004 14.3351L5.67855 16.1512C5.51588 16.2368 5.349 16.3246 5.20523 16.3843C5.06621 16.442 4.80255 16.5398 4.49461 16.4827C4.1384 16.4167 3.83104 16.1933 3.65812 15.8748C3.50864 15.5994 3.52012 15.3183 3.532 15.1681C3.54429 15.013 3.5762 14.8269 3.60731 14.6457L4.26625 10.8019L1.49373 8.10007C1.48704 8.09355 1.48033 8.08702 1.47362 8.08047C1.342 7.95228 1.20697 7.82073 1.10583 7.70246C1.00798 7.58804 0.833562 7.36754 0.792573 7.05701C0.745157 6.69777 0.8623 6.3363 1.11138 6.07326C1.3267 5.84587 1.59726 5.76972 1.74359 5.73452C1.89486 5.69812 2.08135 5.67089 2.2631 5.64435C2.27238 5.64299 2.28164 5.64165 2.29089 5.64029L6.12405 5.07973L7.83768 1.60636C7.84182 1.59796 7.84596 1.58955 7.85011 1.58113C7.93141 1.41627 8.01481 1.24713 8.09606 1.11435C8.17465 0.985923 8.33049 0.751814 8.61315 0.61698Z" fill="#FFAB00"/>
</svg>
