<svg width="18" height="17" viewBox="0 0 18 17" fill="none" xmlns="http://www.w3.org/2000/svg">
<path fill-rule="evenodd" clip-rule="evenodd" d="M8.35241 0.61698C8.67938 0.461007 9.05926 0.461007 9.38623 0.61698C9.6689 0.751814 9.82465 0.985923 9.90325 1.11435C9.98453 1.24713 10.0679 1.41627 10.1492 1.58113C10.1534 1.58955 10.1576 1.59796 10.1617 1.60636L11.8753 5.07973L15.7362 5.64435C15.918 5.67089 16.1045 5.69812 16.2557 5.73452C16.4021 5.76972 16.6727 5.84587 16.888 6.07326C17.137 6.3363 17.2542 6.69777 17.2068 7.05701C17.1657 7.36754 16.9914 7.58804 16.8935 7.70246C16.7924 7.82072 16.6574 7.95225 16.5257 8.08044L13.7331 10.8019L14.392 14.6457C14.4232 14.8269 14.4551 15.013 14.4674 15.1681C14.4792 15.3183 14.4907 15.5994 14.3412 15.8748C14.1684 16.1933 13.861 16.4167 13.5047 16.4827C13.1968 16.5398 12.9331 16.442 12.7941 16.3843C12.6503 16.3246 12.4834 16.2368 12.3208 16.1512L8.8693 14.3351L5.4178 16.1512C5.25514 16.2368 5.08826 16.3246 4.94449 16.3843C4.80547 16.442 4.54181 16.5398 4.23387 16.4827C3.87766 16.4167 3.5703 16.1933 3.39738 15.8748C3.24789 15.5994 3.25938 15.3183 3.27126 15.1681C3.28355 15.013 3.31546 14.8269 3.34657 14.6457L4.00551 10.8019L1.23298 8.10007C1.2263 8.09355 1.21959 8.08702 1.21287 8.08047C1.08126 7.95228 0.946226 7.82073 0.845089 7.70246C0.747239 7.58804 0.57282 7.36754 0.531831 7.05701C0.484414 6.69777 0.601558 6.3363 0.850643 6.07326C1.06595 5.84587 1.33651 5.76972 1.48285 5.73452C1.63412 5.69812 1.82061 5.67089 2.00236 5.64435C2.01164 5.64299 2.0209 5.64165 2.03014 5.64029L5.86331 5.07973L7.57693 1.60636C7.58108 1.59796 7.58522 1.58955 7.58937 1.58113C7.67066 1.41627 7.75407 1.24713 7.83532 1.11435C7.91391 0.985923 8.06975 0.751814 8.35241 0.61698Z" fill="#FFAB00"/>
</svg>
