<svg width="26" height="25" viewBox="0 0 26 25" fill="none" xmlns="http://www.w3.org/2000/svg">
<path fill-rule="evenodd" clip-rule="evenodd" d="M11.7464 0.67547C12.2368 0.44151 12.8067 0.44151 13.2971 0.67547C13.7211 0.877721 13.9548 1.22888 14.0726 1.42153C14.1946 1.6207 14.3197 1.87441 14.4416 2.1217C14.4478 2.13433 14.4541 2.14694 14.4603 2.15953L17.0308 7.36959L22.8221 8.21652C23.0948 8.25633 23.3745 8.29718 23.6014 8.35178C23.8209 8.40458 24.2268 8.5188 24.5497 8.85989C24.9233 9.25445 25.0991 9.79665 25.0279 10.3355C24.9664 10.8013 24.7048 11.1321 24.5581 11.3037C24.4063 11.4811 24.2038 11.6784 24.0064 11.8707L19.8174 15.9529L20.8058 21.7186C20.8525 21.9904 20.9004 22.2694 20.9188 22.5022C20.9365 22.7274 20.9538 23.149 20.7296 23.5622C20.4703 24.0399 20.0093 24.375 19.4748 24.4741C19.0129 24.5597 18.6174 24.4131 18.4089 24.3264C18.1933 24.2369 17.9429 24.1052 17.6989 23.9767L12.5217 21.2527L7.34448 23.9767C7.10048 24.1052 6.85016 24.2369 6.63451 24.3264C6.42598 24.4131 6.03049 24.5597 5.56857 24.4741C5.03426 24.375 4.57322 24.0399 4.31384 23.5622C4.08961 23.149 4.10684 22.7274 4.12467 22.5022C4.1431 22.2694 4.19096 21.9904 4.23763 21.7186L5.22603 15.9529L1.06725 11.9001C1.05722 11.8903 1.04716 11.8805 1.03708 11.8707C0.839664 11.6784 0.637112 11.4811 0.485407 11.3037C0.338632 11.1321 0.0770034 10.8013 0.0155201 10.3355C-0.055605 9.79666 0.120111 9.25445 0.493738 8.85989C0.816705 8.5188 1.22254 8.40458 1.44204 8.35178C1.66895 8.29718 1.94868 8.25633 2.22131 8.21652C2.23523 8.21449 2.24912 8.21247 2.26299 8.21044L8.01274 7.36959L10.5832 2.15953C10.5894 2.14694 10.5956 2.13433 10.6018 2.1217C10.7238 1.87441 10.8489 1.6207 10.9708 1.42153C11.0886 1.22888 11.3224 0.877721 11.7464 0.67547Z" fill="#FFAB00"/>
</svg>
