<svg width="12" height="12" viewBox="0 0 12 12" fill="none" xmlns="http://www.w3.org/2000/svg">
<path fill-rule="evenodd" clip-rule="evenodd" d="M5.62848 0.087735C5.86349 -0.029245 6.13653 -0.029245 6.37153 0.087735C6.57471 0.18886 6.68665 0.364442 6.74314 0.460766C6.80157 0.560348 6.86151 0.687206 6.91993 0.810848C6.9229 0.817164 6.92594 0.823472 6.92891 0.829767L8.16059 3.4348L10.9356 3.85826C11.0663 3.87817 11.2003 3.89859 11.309 3.92589C11.4142 3.95229 11.6087 4.0094 11.7634 4.17994C11.9424 4.37723 12.0267 4.64832 11.9926 4.91776C11.9631 5.15066 11.8377 5.31603 11.7674 5.40185C11.6947 5.49054 11.5977 5.58919 11.5031 5.68533L9.49585 7.72644L9.96946 10.6093C9.99183 10.7452 10.0148 10.8847 10.0236 11.0011C10.0321 11.1137 10.0404 11.3245 9.93293 11.5311C9.80869 11.7699 9.58777 11.9375 9.33169 11.987C9.11036 12.0299 8.92086 11.9565 8.82093 11.9132C8.71762 11.8684 8.59766 11.8026 8.48075 11.7384L5.99999 10.3763L3.51923 11.7384C3.40231 11.8026 3.28237 11.8684 3.17904 11.9132C3.07911 11.9565 2.88961 12.0299 2.66827 11.987C2.41225 11.9375 2.19134 11.7699 2.06705 11.5311C1.95961 11.3245 1.96786 11.1137 1.9764 11.0011C1.98523 10.8847 2.00817 10.7452 2.03053 10.6093L2.50414 7.72644L0.511391 5.70006C0.506584 5.69516 0.501764 5.69026 0.496936 5.68535C0.402339 5.58921 0.305283 5.49055 0.232591 5.40185C0.162261 5.31603 0.0368975 5.15066 0.00743673 4.91776C-0.0266441 4.64833 0.0575531 4.37723 0.236583 4.17994C0.391338 4.0094 0.585802 3.95229 0.69098 3.92589C0.799707 3.89859 0.933744 3.87817 1.06438 3.85826C1.07105 3.85724 1.07771 3.85623 1.08435 3.85522L3.83944 3.4348L5.0711 0.829767C5.07408 0.823472 5.07706 0.817164 5.08004 0.810848C5.13847 0.687206 5.19842 0.560348 5.25682 0.460766C5.3133 0.364442 5.42532 0.18886 5.62848 0.087735Z" fill="#FFAB00"/>
</svg>
