<svg width="26" height="25" viewBox="0 0 26 25" fill="none" xmlns="http://www.w3.org/2000/svg">
<path fill-rule="evenodd" clip-rule="evenodd" d="M12.138 0.67547C12.6284 0.44151 13.1983 0.44151 13.6887 0.67547C14.1127 0.877721 14.3464 1.22888 14.4642 1.42153C14.5862 1.6207 14.7113 1.87441 14.8332 2.1217C14.8394 2.13433 14.8457 2.14694 14.8519 2.15953L17.4224 7.36959L23.2137 8.21652C23.4864 8.25633 23.7661 8.29718 23.993 8.35178C24.2125 8.40458 24.6184 8.5188 24.9413 8.85989C25.3149 9.25445 25.4907 9.79665 25.4195 10.3355C25.358 10.8013 25.0964 11.1321 24.9497 11.3037C24.7979 11.4811 24.5954 11.6784 24.398 11.8707L20.209 15.9529L21.1974 21.7186C21.2441 21.9904 21.292 22.2694 21.3104 22.5022C21.3281 22.7274 21.3454 23.149 21.1212 23.5622C20.8619 24.0399 20.4009 24.375 19.8664 24.4741C19.4045 24.5597 19.0091 24.4131 18.8005 24.3264C18.5849 24.2369 18.3346 24.1052 18.0905 23.9767L12.9133 21.2527L7.73608 23.9767C7.49208 24.1052 7.24177 24.2369 7.02611 24.3264C6.81758 24.4131 6.42209 24.5597 5.96017 24.4741C5.42586 24.375 4.96482 24.0399 4.70544 23.5622C4.48122 23.149 4.49844 22.7274 4.51627 22.5022C4.5347 22.2694 4.58256 21.9904 4.62923 21.7186L5.61763 15.9529L1.45885 11.9001C1.44882 11.8903 1.43876 11.8805 1.42869 11.8707C1.23127 11.6784 1.02871 11.4811 0.877009 11.3037C0.730233 11.1321 0.468605 10.8013 0.407122 10.3355C0.335997 9.79666 0.511712 9.25445 0.885339 8.85989C1.20831 8.5188 1.61415 8.40458 1.83365 8.35178C2.06055 8.29718 2.34028 8.25633 2.61291 8.21652C2.62683 8.21449 2.64073 8.21247 2.65459 8.21044L8.40434 7.36959L10.9748 2.15953C10.981 2.14694 10.9872 2.13433 10.9934 2.1217C11.1154 1.87441 11.2405 1.6207 11.3624 1.42153C11.4802 1.22888 11.714 0.877721 12.138 0.67547Z" fill="#FFAB00"/>
</svg>
