<svg width="17" height="17" viewBox="0 0 17 17" fill="none" xmlns="http://www.w3.org/2000/svg">
<path fill-rule="evenodd" clip-rule="evenodd" d="M7.83092 0.61698C8.15789 0.461007 8.53777 0.461007 8.86474 0.61698C9.14742 0.751814 9.30317 0.985923 9.38176 1.11435C9.46305 1.24713 9.54645 1.41627 9.62774 1.58113C9.63187 1.58955 9.63609 1.59796 9.64023 1.60636L11.3539 5.07973L15.2147 5.64435C15.3965 5.67089 15.583 5.69812 15.7343 5.73452C15.8806 5.76972 16.1512 5.84587 16.3665 6.07326C16.6155 6.3363 16.7328 6.69777 16.6853 7.05701C16.6443 7.36754 16.4699 7.58804 16.3721 7.70246C16.2709 7.82072 16.1359 7.95225 16.0043 8.08044L13.2116 10.8019L13.8706 14.6457C13.9017 14.8269 13.9336 15.013 13.9459 15.1681C13.9577 15.3183 13.9692 15.5994 13.8197 15.8748C13.6469 16.1933 13.3395 16.4167 12.9832 16.4827C12.6753 16.5398 12.4116 16.442 12.2726 16.3843C12.1289 16.3246 11.962 16.2368 11.7993 16.1512L8.34782 14.3351L4.89632 16.1512C4.73365 16.2368 4.56678 16.3246 4.42301 16.3843C4.28399 16.442 4.02033 16.5398 3.71238 16.4827C3.35617 16.4167 3.04881 16.1933 2.87589 15.8748C2.72641 15.5994 2.73789 15.3183 2.74978 15.1681C2.76207 15.013 2.79398 14.8269 2.82509 14.6457L3.48402 10.8019L0.7115 8.10007C0.704813 8.09355 0.698106 8.08702 0.69139 8.08047C0.559776 7.95228 0.424741 7.82073 0.323605 7.70246C0.225754 7.58804 0.0513356 7.36754 0.0103468 7.05701C-0.03707 6.69777 0.0800739 6.3363 0.329158 6.07326C0.54447 5.84587 0.815029 5.76972 0.961363 5.73452C1.11264 5.69812 1.29912 5.67089 1.48087 5.64435C1.49015 5.64299 1.49942 5.64165 1.50866 5.64029L5.34183 5.07973L7.05545 1.60636C7.05959 1.59796 7.06373 1.58955 7.06788 1.58113C7.14918 1.41627 7.23259 1.24713 7.31383 1.11435C7.39242 0.985923 7.54827 0.751814 7.83092 0.61698Z" fill="#FFAB00"/>
</svg>
