<svg width="17" height="17" viewBox="0 0 17 17" fill="none" xmlns="http://www.w3.org/2000/svg">
<path fill-rule="evenodd" clip-rule="evenodd" d="M8.09191 0.61698C8.41888 0.461007 8.79876 0.461007 9.12573 0.61698C9.4084 0.751814 9.56415 0.985923 9.64275 1.11435C9.72404 1.24713 9.80744 1.41627 9.88872 1.58113C9.89285 1.58955 9.89708 1.59796 9.90121 1.60636L11.6148 5.07973L15.4757 5.64435C15.6575 5.67089 15.844 5.69812 15.9953 5.73452C16.1416 5.76972 16.4122 5.84587 16.6275 6.07326C16.8765 6.3363 16.9937 6.69777 16.9463 7.05701C16.9053 7.36754 16.7309 7.58804 16.633 7.70246C16.5319 7.82072 16.3969 7.95225 16.2652 8.08044L13.4726 10.8019L14.1315 14.6457C14.1627 14.8269 14.1946 15.013 14.2069 15.1681C14.2187 15.3183 14.2302 15.5994 14.0807 15.8748C13.9079 16.1933 13.6005 16.4167 13.2442 16.4827C12.9363 16.5398 12.6726 16.442 12.5336 16.3843C12.3898 16.3246 12.223 16.2368 12.0603 16.1512L8.6088 14.3351L5.15731 16.1512C4.99464 16.2368 4.82776 16.3246 4.68399 16.3843C4.54497 16.442 4.28131 16.5398 3.97337 16.4827C3.61716 16.4167 3.3098 16.1933 3.13688 15.8748C2.9874 15.5994 2.99888 15.3183 3.01076 15.1681C3.02305 15.013 3.05496 14.8269 3.08607 14.6457L3.74501 10.8019L0.972486 8.10007C0.965799 8.09355 0.959092 8.08702 0.952376 8.08047C0.820762 7.95228 0.685728 7.82073 0.584591 7.70246C0.486741 7.58804 0.312322 7.36754 0.271333 7.05701C0.223916 6.69777 0.34106 6.3363 0.590145 6.07326C0.805456 5.84587 1.07602 5.76972 1.22235 5.73452C1.37362 5.69812 1.56011 5.67089 1.74186 5.64435C1.75114 5.64299 1.7604 5.64165 1.76965 5.64029L5.60281 5.07973L7.31644 1.60636C7.32058 1.59796 7.32472 1.58955 7.32887 1.58113C7.41016 1.41627 7.49357 1.24713 7.57482 1.11435C7.65341 0.985923 7.80925 0.751814 8.09191 0.61698Z" fill="#FFAB00"/>
</svg>
