<svg width="24" height="23" viewBox="0 0 24 23" fill="none" xmlns="http://www.w3.org/2000/svg">
<path fill-rule="evenodd" clip-rule="evenodd" d="M11.257 0.168159C11.727 -0.0560529 12.2731 -0.0560529 12.7431 0.168159C13.1494 0.361983 13.3733 0.698514 13.4863 0.883135C13.6031 1.074 13.723 1.31714 13.8399 1.55412C13.8458 1.56623 13.8519 1.57832 13.8578 1.59039L16.3212 6.58336L21.8712 7.395C22.1325 7.43315 22.4006 7.4723 22.618 7.52462C22.8284 7.57522 23.2173 7.68468 23.5268 8.01156C23.8848 8.38968 24.0533 8.90929 23.9851 9.4257C23.9261 9.87209 23.6754 10.1891 23.5348 10.3535C23.3894 10.5235 23.1953 10.7126 23.0061 10.8969L18.9917 14.809L19.9389 20.3345C19.9837 20.595 20.0295 20.8624 20.0472 21.0854C20.0642 21.3013 20.0808 21.7053 19.8659 22.1012C19.6174 22.5591 19.1755 22.8802 18.6634 22.9751C18.2207 23.0572 17.8417 22.9167 17.6419 22.8336C17.4352 22.7478 17.1953 22.6217 16.9615 22.4985L12 19.888L7.03846 22.4985C6.80463 22.6217 6.56474 22.7478 6.35807 22.8336C6.15823 22.9167 5.77922 23.0572 5.33655 22.9751C4.8245 22.8802 4.38267 22.5591 4.1341 22.1012C3.91921 21.7053 3.93572 21.3013 3.9528 21.0854C3.97047 20.8624 4.01634 20.595 4.06106 20.3345L5.00828 14.809L1.02278 10.9251C1.01317 10.9157 1.00353 10.9063 0.993873 10.8969C0.804678 10.7127 0.610566 10.5236 0.465182 10.3535C0.324522 10.1891 0.0737949 9.87209 0.0148735 9.4257C-0.0532881 8.9093 0.115106 8.38968 0.473165 8.01156C0.782676 7.68468 1.1716 7.57522 1.38196 7.52462C1.59941 7.4723 1.86749 7.43315 2.12875 7.395C2.1421 7.39305 2.15541 7.39112 2.1687 7.38917L7.67887 6.58336L10.1422 1.59039C10.1482 1.57832 10.1541 1.56623 10.1601 1.55412C10.2769 1.31714 10.3968 1.074 10.5136 0.883135C10.6266 0.698514 10.8506 0.361983 11.257 0.168159Z" fill="#FFAB00"/>
</svg>
