<svg width="33" height="33" viewBox="0 0 33 33" fill="none" xmlns="http://www.w3.org/2000/svg">
<path d="M26.4937 11.9394C26.2538 11.0361 25.547 10.3247 24.6495 10.0832C23.0228 9.64453 16.5 9.64453 16.5 9.64453C16.5 9.64453 9.97711 9.64453 8.35037 10.0832C7.45291 10.3247 6.74609 11.0361 6.50619 11.9394C6.07031 13.5766 6.07031 16.9927 6.07031 16.9927C6.07031 16.9927 6.07031 20.4087 6.50619 22.046C6.74609 22.9493 7.45291 23.6311 8.35037 23.8725C9.97711 24.3112 16.5 24.3112 16.5 24.3112C16.5 24.3112 23.0228 24.3112 24.6495 23.8725C25.547 23.6311 26.2538 22.9493 26.4937 22.046C26.9296 20.4087 26.9296 16.9927 26.9296 16.9927C26.9296 16.9927 26.9296 13.5766 26.4937 11.9394ZM14.3666 20.0942V13.8912L19.8184 16.9928L14.3666 20.0942Z" fill="white"/>
</svg>
